<svg xmlns="http://www.w3.org/2000/svg" xmlns:xlink="http://www.w3.org/1999/xlink" width="500" zoomAndPan="magnify" viewBox="0 0 375 374.999991" height="500" preserveAspectRatio="xMidYMid meet" version="1.0"><defs><clipPath id="eb0aee8529"><path d="M 184 159.425781 L 374.765625 159.425781 L 374.765625 325.640625 L 184 325.640625 Z M 184 159.425781 " clip-rule="nonzero"/></clipPath><clipPath id="28534cf0e7"><path d="M 184 178.25 L 374.765625 178.25 L 374.765625 179.628906 L 184 179.628906 Z M 184 178.25 " clip-rule="nonzero"/></clipPath><clipPath id="fb737e8835"><path d="M 20 272 L 40 272 L 40 325.6875 L 20 325.6875 Z M 20 272 " clip-rule="nonzero"/></clipPath><clipPath id="64424fce01"><path d="M 0.554688 253.09375 L 58.789062 253.09375 L 58.789062 325.6875 L 0.554688 325.6875 Z M 0.554688 253.09375 " clip-rule="nonzero"/></clipPath><clipPath id="d5f9dd3874"><path d="M 69 272 L 85 272 L 85 325.6875 L 69 325.6875 Z M 69 272 " clip-rule="nonzero"/></clipPath><clipPath id="9a3d0d5fa7"><path d="M 0 267 L 32 267 L 32 325.6875 L 0 325.6875 Z M 0 267 " clip-rule="nonzero"/></clipPath><clipPath id="1139731a78"><path d="M 55 274 L 68 274 L 68 325.6875 L 55 325.6875 Z M 55 274 " clip-rule="nonzero"/></clipPath><clipPath id="9143809eec"><path d="M 109 317 L 125 317 L 125 325.6875 L 109 325.6875 Z M 109 317 " clip-rule="nonzero"/></clipPath><clipPath id="5c7042afc7"><path d="M 149 316 L 179 316 L 179 325.6875 L 149 325.6875 Z M 149 316 " clip-rule="nonzero"/></clipPath><clipPath id="6eca1829d5"><path d="M 89.511719 208.097656 L 132.15625 208.097656 L 132.15625 325.6875 L 89.511719 325.6875 Z M 89.511719 208.097656 " clip-rule="nonzero"/></clipPath><clipPath id="39fc8f0241"><path d="M 137.199219 214.523438 L 180.757812 214.523438 L 180.757812 325.6875 L 137.199219 325.6875 Z M 137.199219 214.523438 " clip-rule="nonzero"/></clipPath><clipPath id="bcd2476760"><path d="M 82 49.6875 L 183 49.6875 L 183 118 L 82 118 Z M 82 49.6875 " clip-rule="nonzero"/></clipPath><clipPath id="405220f194"><path d="M 93 49.6875 L 192 49.6875 L 192 117 L 93 117 Z M 93 49.6875 " clip-rule="nonzero"/></clipPath><clipPath id="deaf0d6f8f"><path d="M 102 49.6875 L 155 49.6875 L 155 75 L 102 75 Z M 102 49.6875 " clip-rule="nonzero"/></clipPath></defs><path fill="#f2d291" d="M 269.632812 199.773438 L 267.628906 186.601562 L 287.832031 186.601562 C 290.195312 190.085938 292.042969 194.671875 293.390625 199.773438 L 269.632812 199.773438 " fill-opacity="1" fill-rule="evenodd"/><path fill="#f2d291" d="M 272.660156 199.773438 L 273.355469 186.601562 C 268.335938 186.601562 263.320312 186.601562 258.300781 186.601562 C 255.917969 190.085938 254.054688 194.671875 252.683594 199.773438 L 272.660156 199.773438 " fill-opacity="1" fill-rule="evenodd"/><path fill="#8fb2ee" d="M 273.800781 186.605469 C 268.867188 186.605469 263.851562 186.601562 258.921875 186.601562 C 260.171875 179.035156 260.589844 170.363281 260.339844 162.570312 C 258.644531 159.933594 256.964844 158.632812 256.332031 156.308594 C 255.648438 153.78125 256.464844 149.464844 256.949219 147.886719 C 256.53125 145.8125 255.988281 141.933594 255.726562 139.800781 C 259.609375 135.980469 266.558594 132.75 273.800781 132.75 C 281.042969 132.75 287.992188 135.980469 291.875 139.800781 C 290.84375 148.292969 288.132812 156.164062 287.101562 164.660156 C 286.851562 172.453125 286.652344 179.035156 287.90625 186.601562 C 282.972656 186.601562 278.734375 186.605469 273.800781 186.605469 " fill-opacity="1" fill-rule="evenodd"/><path fill="#4247ca" d="M 267.96875 98.265625 C 270.589844 94.039062 279.84375 93.964844 283.621094 96.113281 C 291.375 100.527344 289.707031 106.242188 294.597656 109.652344 C 296.902344 111.261719 299.796875 110.289062 303.351562 113.253906 C 306.023438 115.476562 304.347656 118.9375 306.316406 121.648438 C 307.859375 123.777344 311.761719 121.953125 314.972656 127.863281 C 316.589844 130.835938 315.949219 137.4375 308.84375 139.128906 C 303 140.523438 296.867188 135.238281 295.53125 134.457031 C 290.019531 131.226562 281.234375 138.144531 274.726562 126.097656 C 273.300781 124.191406 271.792969 126.367188 271.792969 126.367188 C 264.015625 128.113281 258.328125 121.324219 256.824219 114.957031 C 254.988281 107.214844 259.375 96.757812 267.96875 98.265625 " fill-opacity="1" fill-rule="evenodd"/><path stroke-linecap="butt" transform="matrix(0.0458534, 0, 0, -0.0459158, 0.555544, 325.687479)" fill="none" stroke-linejoin="miter" d="M 6728.620885 4028.856702 C 6467.428632 3988.616622 6459.165212 4192.624467 6367.074923 4200.706512 " stroke="#4247ca" stroke-width="12.913" stroke-opacity="1" stroke-miterlimit="22.926001"/><path fill="#f2d291" d="M 279.089844 133.839844 C 277.125 137.859375 273.457031 140.34375 269.898438 140.324219 C 268.910156 140.316406 268.472656 136.355469 268.472656 133.839844 C 268.472656 130 268.472656 127.421875 268.472656 123.582031 C 272.027344 123.582031 275.578125 117.691406 279.128906 117.691406 C 279.128906 121.53125 279.089844 130 279.089844 133.839844 " fill-opacity="1" fill-rule="evenodd"/><path fill="#f2d291" d="M 274.949219 100.511719 C 272.363281 100.304688 264.570312 99.761719 263.511719 108.820312 C 262.453125 117.878906 263.5 121.027344 264.074219 122.773438 C 264.738281 124.773438 266.03125 127.445312 268.773438 127.765625 C 274.675781 128.449219 277.246094 126.152344 278.988281 124.578125 C 280.347656 123.34375 282.628906 120.214844 283.414062 111.128906 C 284.203125 102.042969 277.523438 100.832031 274.949219 100.511719 " fill-opacity="1" fill-rule="evenodd"/><path fill="#4247ca" d="M 270.941406 103.628906 C 267.089844 103.042969 262.050781 108.433594 263.214844 112.316406 C 262.316406 103.996094 265.8125 98.214844 274.878906 99.023438 C 283.945312 99.832031 286.386719 107.949219 284.222656 114.769531 C 284.203125 114.769531 272.9375 111.324219 270.941406 103.628906 " fill-opacity="1" fill-rule="evenodd"/><path fill="#f66f82" d="M 276.175781 116.890625 C 274.976562 117.125 274.113281 117.886719 274.25 118.597656 C 274.386719 119.308594 275.472656 119.695312 276.671875 119.460938 C 277.875 119.226562 278.738281 118.464844 278.601562 117.753906 C 278.464844 117.046875 277.378906 116.660156 276.175781 116.890625 " fill-opacity="1" fill-rule="evenodd"/><path fill="#2f2e6b" d="M 265.472656 112.503906 C 265.960938 112.554688 266.320312 113.085938 266.28125 113.6875 C 266.242188 114.289062 265.8125 114.734375 265.328125 114.679688 C 264.839844 114.628906 264.480469 114.09375 264.519531 113.496094 C 264.558594 112.894531 264.988281 112.449219 265.472656 112.503906 " fill-opacity="1" fill-rule="evenodd"/><path fill="#2f2e6b" d="M 273.863281 113.359375 C 273.378906 113.3125 272.914062 113.761719 272.832031 114.355469 C 272.75 114.953125 273.082031 115.472656 273.566406 115.519531 C 274.054688 115.566406 274.515625 115.121094 274.601562 114.523438 C 274.679688 113.925781 274.351562 113.40625 273.863281 113.359375 " fill-opacity="1" fill-rule="evenodd"/><path stroke-linecap="butt" transform="matrix(0.0458534, 0, 0, -0.0459158, 0.555544, 325.687479)" fill="none" stroke-linejoin="miter" d="M 5828.333956 4682.906872 C 5868.799161 4632.542967 5835.234338 4541.428538 5826.970917 4522.371925 C 5818.792686 4503.315312 5848.183204 4503.485461 5848.183204 4503.485461 " stroke="#2f2e6b" stroke-width="12.913" stroke-opacity="1" stroke-miterlimit="22.926001"/><path stroke-linecap="butt" transform="matrix(0.0458534, 0, 0, -0.0459158, 0.555544, 325.687479)" fill="none" stroke-linejoin="miter" d="M 5791.446726 4462.054343 C 5791.446726 4462.054343 5826.033828 4430.236606 5892.226385 4452.781259 " stroke="#2f2e6b" stroke-width="12.913" stroke-opacity="1" stroke-miterlimit="22.926001"/><path stroke-linecap="butt" transform="matrix(0.0458534, 0, 0, -0.0459158, 0.555544, 325.687479)" fill="none" stroke-linejoin="miter" d="M 5823.90408 4419.602335 C 5823.90408 4419.602335 5836.682566 4407.862101 5861.217259 4416.199369 " stroke="#2f2e6b" stroke-width="12.913" stroke-opacity="1" stroke-miterlimit="22.926001"/><path stroke-linecap="butt" transform="matrix(0.0458534, 0, 0, -0.0459158, 0.555544, 325.687479)" fill="none" stroke-linejoin="miter" d="M 5936.013997 4676.611384 C 5936.013997 4676.611384 5963.615527 4693.200845 6004.932631 4668.869635 " stroke="#2f2e6b" stroke-width="12.913" stroke-opacity="1" stroke-miterlimit="22.926001"/><path stroke-linecap="butt" transform="matrix(0.0458534, 0, 0, -0.0459158, 0.555544, 325.687479)" fill="none" stroke-linejoin="miter" d="M 5817.429648 4688.691915 C 5817.429648 4688.691915 5793.746854 4710.555975 5748.425823 4694.987403 " stroke="#2f2e6b" stroke-width="12.913" stroke-opacity="1" stroke-miterlimit="22.926001"/><path stroke-linecap="butt" transform="matrix(0.0458534, 0, 0, -0.0459158, 0.555544, 325.687479)" fill="none" stroke-linejoin="miter" d="M 5885.837142 4304.496992 C 5945.384887 4302.62536 6024.44112 4323.808827 6092.763425 4406.585988 " stroke="#2f2e6b" stroke-width="12.913" stroke-opacity="1" stroke-miterlimit="22.926001"/><path fill="#f2d291" d="M 255.726562 139.800781 C 249.90625 145.109375 249.140625 167.636719 247.382812 183.039062 C 246.851562 187.710938 246.433594 193.695312 246.105469 199.773438 L 255.179688 199.773438 C 256.132812 193.90625 256.867188 188.96875 257.136719 186.734375 C 257.902344 180.316406 260.871094 158.691406 260.871094 158.691406 C 260.871094 158.691406 260.125 148.917969 255.726562 139.800781 " fill-opacity="1" fill-rule="evenodd"/><path fill="#ffffff" d="M 255.726562 139.800781 C 251.308594 143.828125 249.023438 157.78125 247.785156 171.007812 L 259.894531 171.710938 C 260.800781 164.976562 260.871094 158.691406 260.871094 158.691406 C 260.871094 158.691406 260.125 148.917969 255.726562 139.800781 " fill-opacity="1" fill-rule="evenodd"/><path stroke-linecap="butt" transform="matrix(0.0458534, 0, 0, -0.0459158, 0.555544, 325.687479)" fill="none" stroke-linejoin="miter" d="M 5564.926765 4048.423759 C 5468.576981 3960.712297 5418.740886 3656.827384 5391.735686 3368.766266 L 5655.824395 3353.452917 C 5675.588454 3500.120775 5677.121872 3637.005104 5677.121872 3637.005104 C 5677.121872 3637.005104 5660.8506 3849.860661 5564.926765 4048.423759 Z M 5564.926765 4048.423759 " stroke="#2f2e6b" stroke-width="12.913" stroke-opacity="1" stroke-miterlimit="22.926001"/><path fill="#ffffff" d="M 253.015625 199.773438 C 256.363281 189.289062 261.011719 183.5 260.339844 162.570312 C 258.644531 159.933594 256.964844 158.632812 256.332031 156.308594 C 255.648438 153.78125 256.464844 149.464844 256.949219 147.886719 C 256.53125 145.8125 255.988281 141.933594 255.726562 139.800781 C 258.675781 136.902344 262.472656 134.53125 267.746094 133.46875 C 264.988281 138.777344 264.539062 150.796875 265.398438 159.875 C 271.207031 148.914062 275.316406 142.8125 280.050781 133.546875 C 285.222656 134.640625 288.972656 136.945312 291.875 139.800781 C 290.84375 148.292969 288.132812 156.164062 287.101562 164.660156 C 286.46875 184.371094 290.28125 190.175781 293.164062 199.773438 L 253.015625 199.773438 " fill-opacity="1" fill-rule="evenodd"/><path stroke-linecap="butt" transform="matrix(0.0458534, 0, 0, -0.0459158, 0.555544, 325.687479)" fill="none" stroke-linejoin="miter" d="M 5505.80497 2742.280125 C 5578.81272 2970.61918 5680.188708 3096.699091 5665.536045 3552.526459 C 5628.563625 3609.95152 5591.931966 3638.281216 5578.131201 3688.900344 C 5563.222967 3743.943328 5581.027658 3837.950278 5591.591206 3872.320241 C 5582.475886 3917.494621 5570.634489 4001.973266 5564.926765 4048.423759 C 5629.245145 4111.548789 5712.049733 4163.188806 5827.056107 4186.328979 C 5766.912033 4070.71319 5757.115194 3808.939989 5775.856973 3611.227632 C 5902.534364 3849.945736 5992.154145 3982.831579 6095.404312 4184.627495 C 6208.195748 4160.806729 6289.978058 4110.612973 6353.274158 4048.423759 C 6330.784023 3863.472528 6271.662228 3692.048088 6249.172093 3507.011782 C 6235.371328 3077.727552 6318.516676 2951.307345 6381.386827 2742.280125 Z M 5505.80497 2742.280125 " stroke="#2f2e6b" stroke-width="12.913" stroke-opacity="1" stroke-miterlimit="22.926001"/><path fill="#f2d291" d="M 299.058594 146.410156 C 303.023438 153.375 311.164062 172.316406 312.171875 178.554688 L 302.964844 180.707031 C 300.953125 174.53125 290.71875 158.816406 287.050781 152.503906 C 285.320312 149.523438 282.121094 141.300781 286.074219 138.875 C 290.539062 136.136719 296.261719 141.492188 299.058594 146.410156 " fill-opacity="1" fill-rule="evenodd"/><path fill="#ffffff" d="M 306.679688 160.609375 L 294.367188 166.015625 C 291.621094 161.429688 279.570312 141.976562 285.988281 138.039062 C 293.902344 133.179688 304.320312 155.054688 306.679688 160.609375 " fill-opacity="1" fill-rule="evenodd"/><path stroke-linecap="butt" transform="matrix(0.0458534, 0, 0, -0.0459158, 0.555544, 325.687479)" fill="none" stroke-linejoin="miter" d="M 6676.143903 3595.23369 L 6407.625318 3477.491047 C 6347.736814 3577.368115 6084.925953 4001.03745 6224.892969 4086.792207 C 6397.487719 4192.624467 6624.689199 3716.20915 6676.143903 3595.23369 Z M 6676.143903 3595.23369 " stroke="#2f2e6b" stroke-width="12.913" stroke-opacity="1" stroke-miterlimit="22.926001"/><path fill="#f2d291" d="M 312.261719 177.996094 C 309.46875 185.425781 302.011719 193.523438 295.246094 199.773438 L 284.492188 199.773438 C 291.054688 190.527344 300.429688 177.304688 302.796875 173.941406 L 312.261719 177.996094 " fill-opacity="1" fill-rule="evenodd"/><path stroke-linecap="butt" transform="matrix(0.0458534, 0, 0, -0.0459158, 0.555544, 325.687479)" fill="none" stroke-linejoin="miter" d="M 5774.834694 3596.67995 L 6073.510506 3853.09348 L 6026.315298 3959.35111 L 6141.236481 3994.91211 L 6154.270537 4163.358954 " stroke="#2f2e6b" stroke-width="12.913" stroke-opacity="1" stroke-miterlimit="22.926001"/><path stroke-linecap="butt" transform="matrix(0.0458534, 0, 0, -0.0459158, 0.555544, 325.687479)" fill="none" stroke-linejoin="miter" d="M 5774.834694 3596.67995 L 5704.638212 3932.637823 L 5751.83342 3987.170361 L 5696.204411 4038.044711 L 5786.335332 4183.606605 " stroke="#2f2e6b" stroke-width="12.913" stroke-opacity="1" stroke-miterlimit="22.926001"/><path stroke-linecap="butt" transform="matrix(0.0458534, 0, 0, -0.0459158, 0.555544, 325.687479)" fill="none" stroke-linejoin="miter" d="M 5771.086339 3599.147101 C 5774.493935 3560.863727 5798.347109 3440.56886 5793.150524 2980.657931 C 5792.213435 2893.967359 5786.420522 2816.464796 5778.242291 2742.280125 " stroke="#2f2e6b" stroke-width="12.913" stroke-opacity="1" stroke-miterlimit="22.926001"/><path fill="#f2d291" d="M 281.714844 115.34375 C 282.007812 114.765625 282.335938 114.375 283.101562 114.289062 C 283.867188 114.210938 285.1875 114.730469 284.96875 116.855469 C 284.75 118.976562 282.792969 120.625 281.703125 120.257812 C 280.609375 119.886719 281.550781 115.902344 281.714844 115.34375 " fill-opacity="1" fill-rule="evenodd"/><path fill="#ffffff" d="M 282.539062 119.597656 C 281.984375 119.539062 281.488281 119.941406 281.433594 120.5 C 281.378906 121.050781 281.78125 121.550781 282.335938 121.605469 C 282.890625 121.664062 283.386719 121.257812 283.441406 120.703125 C 283.5 120.148438 283.09375 119.652344 282.539062 119.597656 " fill-opacity="1" fill-rule="evenodd"/><path stroke-linecap="butt" transform="matrix(0.0458534, 0, 0, -0.0459158, 0.555544, 325.687479)" fill="none" stroke-linejoin="miter" d="M 6144.558888 4556.571739 C 6145.155217 4562.356782 6170.371429 4586.858141 6187.75017 4566.695564 " stroke="#2f2e6b" stroke-width="9.683" stroke-opacity="1" stroke-miterlimit="22.926001"/><path fill="#2f2e6b" d="M 187.523438 131.558594 L 254.179688 131.558594 C 255.300781 131.558594 256.390625 132.476562 256.601562 133.601562 L 265.664062 181.929688 C 265.875 183.054688 265.128906 183.972656 264.007812 183.972656 L 197.351562 183.972656 C 196.230469 183.972656 195.140625 183.054688 194.925781 181.929688 L 185.867188 133.601562 C 185.65625 132.476562 186.398438 131.558594 187.523438 131.558594 " fill-opacity="1" fill-rule="evenodd"/><path stroke-linecap="butt" transform="matrix(0.0458534, 0, 0, -0.0459158, 0.555544, 325.687479)" fill="none" stroke-linejoin="miter" d="M 4126.324818 4136.645667 L 5462.698878 4136.645667 C 5487.148381 4136.645667 5510.916365 4116.568164 5515.51662 4092.151879 L 5691.007827 3157.697266 " stroke="#ffffff" stroke-width="12.913" stroke-opacity="1" stroke-miterlimit="22.926001"/><path fill="#8fb2ee" d="M 207.128906 197.832031 L 252.320312 197.832031 C 252.320312 196.523438 251.253906 195.457031 249.945312 195.457031 L 209.503906 195.457031 C 208.195312 195.457031 207.128906 196.523438 207.128906 197.832031 " fill-opacity="1" fill-rule="evenodd"/><path fill="#8fb2ee" d="M 221.882812 195.457031 L 236.585938 195.457031 L 236.585938 183.972656 L 221.882812 183.972656 L 221.882812 195.457031 " fill-opacity="1" fill-rule="evenodd"/><path fill="#2f2e6b" d="M 236.585938 183.972656 L 221.882812 191.503906 L 221.882812 183.972656 Z M 236.585938 183.972656 " fill-opacity="1" fill-rule="evenodd"/><g clip-path="url(#eb0aee8529)"><path fill="#8fb2ee" d="M 184.257812 325.480469 L 374.765625 325.480469 L 374.765625 159.703125 L 184.257812 159.703125 L 184.257812 325.480469 " fill-opacity="1" fill-rule="evenodd"/></g><path fill="#ffffff" d="M 276.9375 237.863281 C 289.730469 237.863281 300.164062 227.414062 300.164062 214.601562 C 300.164062 201.789062 289.730469 191.339844 276.9375 191.339844 C 264.144531 191.339844 253.707031 201.789062 253.707031 214.601562 C 253.707031 227.414062 264.144531 237.863281 276.9375 237.863281 " fill-opacity="1" fill-rule="evenodd"/><path fill="#8fb2ee" d="M 272.039062 199.53125 L 281.835938 199.53125 L 281.835938 209.695312 L 291.984375 209.695312 L 291.984375 219.507812 L 281.835938 219.507812 L 281.835938 229.667969 L 272.039062 229.667969 L 272.039062 219.507812 L 261.890625 219.507812 L 261.890625 209.695312 L 272.039062 209.695312 L 272.039062 199.53125 " fill-opacity="1" fill-rule="evenodd"/><g clip-path="url(#28534cf0e7)"><path fill="#fefefe" d="M 184.257812 179.546875 L 374.765625 179.546875 L 374.765625 178.476562 L 184.257812 178.476562 L 184.257812 179.546875 " fill-opacity="1" fill-rule="evenodd"/></g><g clip-path="url(#fb737e8835)"><path fill="#ffffff" d="M 39.375 282.132812 C 39.851562 285.773438 39.691406 294.160156 36.847656 297.957031 C 34.003906 301.753906 31.316406 303.652344 31.316406 303.652344 L 32.3125 320.167969 C 32.3125 320.167969 33.894531 320.328125 35 320.328125 C 36.105469 320.328125 36.894531 322.382812 37.214844 323.332031 C 37.527344 324.285156 36.582031 325.390625 36.582031 325.390625 L 30.890625 325.390625 C 30.890625 325.390625 28.363281 324.125 27.574219 322.542969 C 26.785156 320.960938 23.414062 302.386719 23.414062 302.386719 C 23.414062 302.386719 28 298.429688 27.683594 296.375 C 27.367188 294.316406 21.046875 287.828125 20.257812 285.296875 C 19.464844 282.765625 21.203125 274.695312 25.46875 272.953125 C 29.738281 271.214844 37.480469 273.269531 39.375 282.132812 " fill-opacity="1" fill-rule="evenodd"/></g><g clip-path="url(#64424fce01)"><path stroke-linecap="butt" transform="matrix(0.0458534, 0, 0, -0.0459158, 0.555544, 325.687479)" fill="none" stroke-linejoin="miter" d="M 846.598616 948.576459 C 856.991784 869.287338 853.498998 686.633109 791.480746 603.941022 C 729.462495 521.248935 670.851839 479.902891 670.851839 479.902891 L 692.575265 120.209327 C 692.575265 120.209327 727.077177 116.721287 751.185921 116.721287 C 775.294664 116.721287 792.503025 71.972277 799.488598 51.299255 C 806.30379 30.541159 785.687833 6.465171 785.687833 6.465171 L 661.566139 6.465171 C 661.566139 6.465171 606.44827 34.0292 589.239909 68.484236 C 572.031548 102.939272 498.512659 507.46692 498.512659 507.46692 C 498.512659 507.46692 598.525609 593.647048 591.625226 638.396058 C 584.724844 683.230142 446.887575 824.538328 429.679214 879.666386 C 412.385663 934.794444 450.295172 1110.557666 543.322549 1148.500743 C 636.435117 1186.358746 805.281511 1141.609736 846.598616 948.576459 Z M 846.598616 948.576459 " stroke="#2f2e6b" stroke-width="12.913" stroke-opacity="1" stroke-miterlimit="22.926001"/></g><path fill="#8cb2ef" d="M 23.628906 259.421875 C 18.882812 260.457031 11.355469 252.914062 13.722656 245.164062 C 15.03125 240.882812 18.664062 239.53125 21.71875 239.378906 C 20.648438 237.699219 11.671875 233.832031 6.773438 241.230469 C 2.734375 247.328125 4.207031 260.761719 18.613281 262.953125 C 34.089844 266.671875 23.628906 259.421875 23.628906 259.421875 " fill-opacity="1" fill-rule="evenodd"/><g clip-path="url(#d5f9dd3874)"><path fill="#6f97c5" d="M 80.449219 272.789062 C 81.945312 280.277344 78.984375 291.988281 79.015625 294.726562 L 79.3125 320.257812 C 79.3125 320.257812 80.890625 320.417969 82 320.417969 C 83.105469 320.417969 83.894531 322.472656 84.210938 323.421875 C 84.527344 324.371094 83.578125 325.480469 83.578125 325.480469 L 77.890625 325.480469 C 77.890625 325.480469 75.359375 324.214844 74.570312 322.632812 C 74.164062 321.816406 73.25 317.164062 72.464844 312.851562 C 71.726562 308.8125 69.386719 285.371094 69.386719 285.371094 C 72.503906 284.5625 77.332031 273.597656 80.449219 272.789062 " fill-opacity="1" fill-rule="evenodd"/></g><path fill="#8cb2ef" d="M 80.714844 261.226562 C 80.796875 261.488281 80.871094 261.777344 80.933594 262.085938 L 80.9375 262.105469 C 81.886719 266.722656 80.992188 276.171875 78.25 280.074219 C 75.246094 284.347656 62.765625 292.257812 53.125 289.730469 C 43.484375 287.195312 36.53125 282.921875 35.109375 282.921875 C 33.6875 282.921875 30.210938 283.558594 28.789062 286.089844 C 27.367188 288.621094 13.304688 287.671875 12.039062 280.074219 C 10.773438 272.480469 11.742188 263.359375 22.625 257.765625 C 29.148438 254.410156 49.015625 260.453125 56.441406 257.289062 C 59.523438 255.976562 60.207031 256.09375 60.769531 253.445312 C 64.796875 255.496094 72.242188 258.496094 79.894531 257.484375 C 80.136719 258.9375 80.476562 260.289062 80.714844 261.226562 " fill-opacity="1" fill-rule="evenodd"/><g clip-path="url(#9a3d0d5fa7)"><path fill="#8cb2ef" d="M 9.871094 306.105469 C 6.917969 310.355469 7.054688 315.46875 5.960938 320.109375 C 5.960938 320.109375 7.5 320.265625 8.605469 320.265625 C 9.710938 320.265625 9.96875 322.324219 10.042969 323.273438 C 10.113281 324.226562 8.878906 325.332031 8.878906 325.332031 L 3.191406 325.332031 C 3.191406 325.332031 0.960938 323.960938 0.605469 322.484375 C 0.25 321.007812 1.863281 306.023438 2.148438 302.78125 C 2.148438 302.78125 8.007812 294.398438 8.796875 288.066406 C 9.589844 281.738281 11.003906 274.4375 13.960938 269.167969 C 16.917969 263.898438 34.160156 269.632812 30.84375 282.921875 C 28.628906 286.246094 24.304688 293.402344 19.464844 296.453125 C 14.625 299.503906 12.703125 302.027344 9.871094 306.105469 " fill-opacity="1" fill-rule="evenodd"/></g><g clip-path="url(#1139731a78)"><path fill="#8cb2ef" d="M 66.964844 274.238281 C 68.058594 281.726562 64.554688 293.445312 64.347656 296.179688 L 62.546875 320.207031 C 62.546875 320.207031 64.121094 320.363281 65.226562 320.363281 C 66.332031 320.363281 67.011719 322.421875 67.277344 323.371094 C 67.539062 324.320312 66.535156 325.429688 66.535156 325.429688 L 60.84375 325.429688 C 60.84375 325.429688 58.382812 324.160156 57.679688 322.578125 C 57.316406 321.761719 56.414062 317.523438 55.859375 313.210938 C 55.335938 309.171875 55.226562 286.824219 55.226562 286.824219 C 58.382812 286.015625 63.804688 275.046875 66.964844 274.238281 " fill-opacity="1" fill-rule="evenodd"/></g><path stroke-linecap="butt" transform="matrix(0.0458534, 0, 0, -0.0459158, 0.555544, 325.687479)" fill="none" stroke-linejoin="miter" d="M 142.92999 1926.078599 L 182.969246 1826.031383 " stroke="#2f2e6b" stroke-width="12.913" stroke-opacity="1" stroke-miterlimit="22.926001"/><path stroke-linecap="butt" transform="matrix(0.0458534, 0, 0, -0.0459158, 0.555544, 325.687479)" fill="none" stroke-linejoin="miter" d="M 109.535547 1894.516084 L 149.574802 1794.383794 " stroke="#2f2e6b" stroke-width="12.913" stroke-opacity="1" stroke-miterlimit="22.926001"/><path stroke-linecap="butt" transform="matrix(0.0458534, 0, 0, -0.0459158, 0.555544, 325.687479)" fill="none" stroke-linejoin="miter" d="M 85.341613 1855.381969 L 125.380869 1755.334753 " stroke="#2f2e6b" stroke-width="12.913" stroke-opacity="1" stroke-miterlimit="22.926001"/><path fill="#6f97c5" d="M 64.707031 224.8125 C 67.332031 224.394531 73.5 223.304688 75.035156 222.832031 C 76.570312 222.363281 78.277344 223.355469 79.136719 225.578125 C 80 227.804688 84.136719 239.765625 84.882812 240.589844 C 85.628906 241.414062 83.441406 241.550781 80.574219 240.804688 C 77.707031 240.058594 73.0625 237.222656 71.195312 233.253906 C 69.332031 229.28125 66.660156 225.695312 64.707031 224.8125 " fill-opacity="1" fill-rule="evenodd"/><path fill="#8cb2ef" d="M 61.15625 254.667969 C 61.125 254.085938 61.050781 250.492188 60.945312 249.570312 C 60.789062 248.183594 58.152344 244.261719 55.925781 239.996094 C 53.695312 235.726562 53.789062 229.34375 56.800781 227.777344 C 59.808594 226.214844 63.246094 224.453125 66.59375 224.382812 C 69.945312 224.308594 75.015625 225.527344 75.8125 227.070312 C 76.613281 228.613281 77.585938 231.96875 78.007812 232.394531 C 78.644531 233.039062 80.234375 233.046875 80.695312 234.464844 C 81.179688 235.953125 81.109375 238.617188 80.476562 239.261719 C 81.28125 240.453125 81.339844 242.257812 80.078125 243.003906 C 79.570312 243.304688 78.089844 244.78125 77.402344 244.972656 C 76.777344 246.480469 78.960938 255.449219 79.894531 257.484375 C 73.566406 260.109375 65.078125 255.5 61.15625 254.667969 " fill-opacity="1" fill-rule="evenodd"/><path fill="#6f97c5" d="M 55.800781 228.582031 C 53.78125 230.3125 48.953125 234.300781 47.597656 235.164062 C 46.246094 236.035156 45.890625 237.976562 47.023438 240.074219 C 48.15625 242.175781 54.558594 253.089844 54.703125 254.191406 C 54.84375 255.296875 56.367188 253.71875 57.660156 251.046875 C 58.953125 248.378906 59.8125 243 58.007812 239.003906 C 56.199219 235.007812 55.207031 230.644531 55.800781 228.582031 " fill-opacity="1" fill-rule="evenodd"/><path fill="#ffffff" d="M 79.894531 257.484375 C 80.527344 261.25 81.246094 262.097656 81.300781 265.996094 C 79.648438 272.265625 77.074219 279.628906 74.390625 278.046875 C 69.863281 275.378906 66.667969 265.886719 66.40625 261.359375 C 66.285156 259.289062 67.324219 257.039062 67.886719 254.960938 L 78.929688 253.546875 C 79.160156 255.144531 79.5 256.625 79.894531 257.484375 " fill-opacity="1" fill-rule="evenodd"/><path fill="#ffffff" d="M 67.355469 256.6875 C 68.0625 254.523438 68.738281 252.4375 67.699219 250.789062 C 66.503906 248.882812 60.855469 245.246094 60.90625 241.585938 C 60.949219 238.398438 61.675781 238.273438 62.289062 235.414062 C 62.796875 233.054688 64.3125 230.867188 67.558594 232.691406 C 70.804688 234.511719 72.328125 235.832031 73.109375 237.207031 C 73.890625 238.585938 76.898438 236.867188 77.152344 234.730469 C 75.820312 234.121094 75.761719 234.753906 74.617188 232.160156 C 73.472656 229.566406 74.304688 228.015625 76.144531 227.785156 C 76.867188 229.464844 77.644531 232.023438 78.007812 232.394531 C 78.644531 233.039062 80.234375 233.046875 80.695312 234.464844 C 81.179688 235.953125 81.109375 238.617188 80.476562 239.261719 C 81.28125 240.453125 81.339844 242.257812 80.078125 243.003906 C 79.570312 243.304688 78.089844 244.78125 77.402344 244.972656 C 76.789062 246.453125 78.882812 255.125 79.839844 257.363281 L 79.847656 257.382812 L 79.894531 257.484375 C 76.011719 259.09375 71.3125 257.980469 67.355469 256.6875 " fill-opacity="1" fill-rule="evenodd"/><path stroke-linecap="butt" transform="matrix(0.0458534, 0, 0, -0.0459158, 0.555544, 325.687479)" fill="none" stroke-linejoin="miter" d="M 1516.446849 1811.313552 C 1548.904203 1796.850944 1602.488654 1807.485215 1620.889674 1817.864263 C 1651.8988 1835.304466 1670.29982 1871.801283 1670.29982 1871.801283 C 1670.29982 1871.801283 1713.405912 1864.910275 1742.96681 1882.265405 " stroke="#2f2e6b" stroke-width="12.913" stroke-opacity="1" stroke-miterlimit="22.926001"/><path fill="#2f2e6b" d="M 72.398438 236.289062 C 73.558594 235.613281 75.945312 234.507812 76.636719 234.511719 C 77.328125 234.515625 77.46875 235.324219 77.519531 235.625 C 77.5625 235.925781 76.734375 237.414062 76.050781 237.730469 C 75.367188 238.046875 73.605469 238.308594 73.046875 238.199219 C 72.488281 238.085938 71.316406 236.742188 72.398438 236.289062 " fill-opacity="1" fill-rule="evenodd"/><path stroke-linecap="butt" transform="matrix(0.0458534, 0, 0, -0.0459158, 0.555544, 325.687479)" fill="none" stroke-linejoin="miter" d="M 1646.446646 1915.614477 C 1646.446646 1915.614477 1666.636654 1898.51457 1670.29982 1871.801283 " stroke="#2f2e6b" stroke-width="12.913" stroke-opacity="1" stroke-miterlimit="22.926001"/><path fill="#2f2e6b" d="M 65.089844 234.753906 C 65.792969 234.464844 66.597656 234.796875 66.890625 235.503906 C 67.179688 236.207031 66.847656 237.011719 66.140625 237.304688 C 65.441406 237.597656 64.632812 237.261719 64.34375 236.554688 C 64.050781 235.851562 64.386719 235.046875 65.089844 234.753906 " fill-opacity="1" fill-rule="evenodd"/><path fill="#2f2e6b" d="M 75.539062 230.496094 C 76.136719 230.25 76.8125 230.53125 77.058594 231.125 C 77.304688 231.71875 77.023438 232.398438 76.429688 232.644531 C 75.835938 232.890625 75.15625 232.609375 74.910156 232.015625 C 74.667969 231.421875 74.949219 230.742188 75.539062 230.496094 " fill-opacity="1" fill-rule="evenodd"/><path fill="#ffffff" d="M 64.214844 229.902344 C 64.546875 230.09375 64.578125 230.664062 64.285156 231.175781 C 63.992188 231.6875 63.484375 231.949219 63.152344 231.757812 C 62.820312 231.566406 62.789062 230.996094 63.082031 230.488281 C 63.375 229.972656 63.882812 229.714844 64.214844 229.902344 " fill-opacity="1" fill-rule="evenodd"/><path fill="#ffffff" d="M 72.8125 226.710938 C 72.671875 227.0625 73.003906 227.53125 73.550781 227.746094 C 74.101562 227.960938 74.660156 227.847656 74.796875 227.492188 C 74.941406 227.136719 74.609375 226.671875 74.0625 226.457031 C 73.511719 226.238281 72.953125 226.355469 72.8125 226.710938 " fill-opacity="1" fill-rule="evenodd"/><path fill="#f66f82" d="M 60.148438 252.476562 C 62.644531 253.058594 66.339844 253.433594 70.320312 253.132812 C 73.375 252.898438 76.582031 252.261719 79.507812 251.011719 L 80.667969 253.730469 C 77.410156 255.125 73.878906 255.828125 70.539062 256.085938 C 66.246094 256.414062 62.226562 256 59.488281 255.363281 L 60.148438 252.476562 " fill-opacity="1" fill-rule="evenodd"/><path stroke-linecap="butt" transform="matrix(0.0458534, 0, 0, -0.0459158, 0.555544, 325.687479)" fill="none" stroke-linejoin="miter" d="M 1629.749424 1445.664797 L 1629.749424 863.502295 C 1629.749424 733.679121 1735.896047 627.506565 1865.725465 627.506565 C 1995.554882 627.506565 2101.786695 733.679121 2101.786695 863.502295 C 2101.445935 1379.306949 2101.190366 1895.026529 2100.934796 2410.916258 C 2100.934796 2428.186313 2102.638594 2442.308624 2086.793271 2457.877196 " stroke="#2f2e6b" stroke-width="12.913" stroke-opacity="1" stroke-miterlimit="22.926001"/><path stroke-linecap="butt" transform="matrix(0.0458534, 0, 0, -0.0459158, 0.555544, 325.687479)" fill="none" stroke-linejoin="miter" d="M 1629.749424 1445.749871 C 1653.943358 1445.749871 1673.707416 1465.487077 1673.707416 1489.64814 C 1673.707416 1513.894276 1653.943358 1533.631482 1629.749424 1533.631482 C 1605.555491 1533.631482 1585.791433 1513.894276 1585.791433 1489.64814 C 1585.791433 1465.487077 1605.555491 1445.749871 1629.749424 1445.749871 Z M 1629.749424 1445.749871 " stroke="#2f2e6b" stroke-width="12.913" stroke-opacity="1" stroke-miterlimit="22.926001"/><path fill="#f2d291" d="M 109.304688 321.300781 L 117.683594 321.300781 L 117.683594 311.492188 L 109.304688 311.492188 L 109.304688 321.300781 " fill-opacity="1" fill-rule="evenodd"/><g clip-path="url(#9143809eec)"><path fill="#2f2e6b" d="M 124.769531 325.480469 C 124.769531 324.640625 124.890625 322.84375 123.8125 322.25 C 123.027344 321.808594 122.515625 322.015625 122.050781 321.875 C 121.484375 321.707031 118.308594 317.78125 117.683594 317.058594 L 111.875 317.058594 L 109.304688 319.75 L 109.304688 325.480469 L 124.769531 325.480469 " fill-opacity="1" fill-rule="evenodd"/></g><path fill="#4247ca" d="M 108.210938 162.75 C 102.234375 215.753906 103.433594 269.796875 106.597656 315.089844 C 110.84375 315.089844 115.710938 315.089844 119.953125 315.089844 C 124.171875 276.746094 130.277344 232.6875 132.257812 183.367188 C 132.53125 176.5625 130.871094 169.765625 131.054688 162.753906 L 108.210938 162.75 " fill-opacity="1" fill-rule="evenodd"/><path fill="#f2d291" d="M 149.6875 321.554688 L 160.035156 321.554688 L 160.035156 311.75 L 149.6875 311.75 L 149.6875 321.554688 " fill-opacity="1" fill-rule="evenodd"/><path fill="#4247ca" d="M 152.429688 162.75 C 155.890625 190.902344 158.816406 219.8125 160.03125 246.652344 C 161.164062 271.574219 160.707031 294.660156 160.589844 315.089844 L 148.105469 316.804688 C 142.011719 292.402344 141.144531 265.972656 140.378906 245.667969 C 134.234375 225.265625 129.882812 208.808594 127.691406 189.8125 C 126.769531 181.8125 130.015625 171.128906 129.015625 162.75 L 152.429688 162.75 " fill-opacity="1" fill-rule="evenodd"/><g clip-path="url(#5c7042afc7)"><path fill="#2f2e6b" d="M 149.6875 325.058594 L 178.96875 325.058594 C 178.96875 325.058594 178.835938 322.542969 177.347656 322.0625 C 175.863281 321.585938 164.976562 319.292969 164.976562 319.292969 C 164.976562 319.292969 162.101562 317.269531 161.292969 316.792969 C 160.480469 316.316406 159.71875 316.507812 158.222656 317.390625 L 154.664062 319.5 L 149.6875 319.515625 L 149.6875 325.058594 " fill-opacity="1" fill-rule="evenodd"/></g><path fill="#2f2e6b" d="M 105.714844 315.292969 L 120.316406 315.292969 L 120.316406 311.691406 L 105.714844 311.691406 L 105.714844 315.292969 " fill-opacity="1" fill-rule="evenodd"/><path fill="#2f2e6b" d="M 146.796875 313.886719 L 161.1875 311.402344 L 161.078125 314.953125 L 147.40625 317.441406 L 146.796875 313.886719 " fill-opacity="1" fill-rule="evenodd"/><path fill="#2f2e6b" d="M 133.820312 194.199219 C 133.820312 194.199219 147.125 241.019531 147.195312 245.117188 C 147.257812 249.21875 147.203125 307.265625 149.6875 313.386719 C 150.203125 314.648438 150 315.726562 149.355469 316.632812 L 148.105469 316.804688 C 142.011719 292.402344 141.144531 265.972656 140.378906 245.667969 C 136.433594 232.566406 133.226562 221.089844 130.855469 209.519531 L 130.890625 209.523438 L 133.820312 194.199219 " fill-opacity="1" fill-rule="evenodd"/><path stroke-linecap="butt" transform="matrix(0.0458534, 0, 0, -0.0459158, 0.555544, 325.687479)" fill="none" stroke-linejoin="miter" d="M 2842.34255 2527.042491 L 2920.972834 2940.588 " stroke="#2f2e6b" stroke-width="13.66" stroke-opacity="1" stroke-miterlimit="22.926001"/><g clip-path="url(#6eca1829d5)"><path stroke-linecap="butt" transform="matrix(0.0458534, 0, 0, -0.0459158, 0.555544, 325.687479)" fill="none" stroke-linejoin="miter" d="M 2397.56605 286.274095 C 2375.842623 474.96859 2404.807192 1672.217295 2426.615808 2114.858168 " stroke="#2f2e6b" stroke-width="13.66" stroke-opacity="1" stroke-miterlimit="22.926001"/></g><g clip-path="url(#39fc8f0241)"><path stroke-linecap="butt" transform="matrix(0.0458534, 0, 0, -0.0459158, 0.555544, 325.687479)" fill="none" stroke-linejoin="miter" d="M 3474.366465 300.821777 C 3496.089891 496.747576 3459.798991 1752.01686 3430.749233 1976.952949 " stroke="#2f2e6b" stroke-width="13.66" stroke-opacity="1" stroke-miterlimit="22.926001"/></g><path fill="#f2d291" d="M 155.714844 98.398438 C 162.691406 100.59375 167.484375 143 167.484375 158.332031 C 167.484375 173.667969 169.664062 191.246094 170.714844 196.75 C 168.929688 197.710938 167.148438 198.667969 165.363281 199.625 C 158.597656 185.4375 156.195312 169.132812 155.125 162.355469 C 154.058594 155.578125 151.535156 130.699219 151.535156 130.699219 C 151.535156 130.699219 151.441406 108.027344 155.714844 98.398438 " fill-opacity="1" fill-rule="evenodd"/><path fill="#ffffff" d="M 155.714844 98.398438 C 160.90625 100.03125 167.296875 121.9375 169.296875 140.300781 L 152.75 142.125 C 151.792969 135.980469 151.535156 130.699219 151.535156 130.699219 C 151.535156 130.699219 151.441406 108.027344 155.714844 98.398438 " fill-opacity="1" fill-rule="evenodd"/><path stroke-linecap="butt" transform="matrix(0.0458534, 0, 0, -0.0459158, 0.555544, 325.687479)" fill="none" stroke-linejoin="miter" d="M 3383.809595 4950.12482 C 3497.02698 4914.563819 3636.397667 4437.46791 3680.014899 4037.534266 L 3319.150456 3997.804632 C 3298.278929 4131.626291 3292.656395 4246.646561 3292.656395 4246.646561 C 3292.656395 4246.646561 3290.611837 4740.417006 3383.809595 4950.12482 Z M 3383.809595 4950.12482 " stroke="#2f2e6b" stroke-width="13.66" stroke-opacity="1" stroke-miterlimit="22.926001"/><path fill="#ffffff" d="M 104.914062 190.699219 C 124.398438 186.910156 145.902344 199.273438 156.441406 190.3125 C 157.101562 159.546875 159.207031 125.617188 155.714844 98.398438 C 148.574219 94.417969 139.589844 92.320312 129.421875 92.320312 C 119.257812 92.320312 111.816406 94.417969 104.683594 98.398438 L 107.480469 132.027344 C 106.511719 150.726562 105.886719 172.003906 104.914062 190.699219 " fill-opacity="1" fill-rule="evenodd"/><path stroke-linecap="butt" transform="matrix(0.0458534, 0, 0, -0.0459158, 0.555544, 325.687479)" fill="none" stroke-linejoin="miter" d="M 2275.914863 2939.907407 C 2700.842116 3022.429346 3169.81255 2753.169618 3399.654917 2948.329749 C 3414.052011 3618.373862 3459.969371 4357.328047 3383.809595 4950.12482 C 3228.082446 5036.815392 3032.145661 5082.500218 2810.396335 5082.500218 C 2588.732199 5082.500218 2426.445428 5036.815392 2270.888659 4950.12482 L 2331.884632 4217.721345 C 2310.757535 3810.471324 2297.12715 3347.072354 2275.914863 2939.907407 Z M 2275.914863 2939.907407 " stroke="#2f2e6b" stroke-width="13.66" stroke-opacity="1" stroke-miterlimit="22.926001"/><path fill="#f2d291" d="M 106.230469 98.398438 C 99.25 100.59375 93.394531 142.730469 93.394531 158.066406 C 93.394531 173.398438 95.53125 200.148438 95.53125 200.148438 L 101.507812 200.148438 C 101.507812 200.148438 104.949219 165.664062 106.015625 158.886719 C 107.085938 152.109375 110.40625 130.699219 110.40625 130.699219 C 110.40625 130.699219 110.503906 108.027344 106.230469 98.398438 " fill-opacity="1" fill-rule="evenodd"/><path fill="#f2d291" d="M 140.109375 92.808594 C 140.109375 104.710938 123.382812 104.710938 123.382812 92.808594 L 123.355469 72.648438 L 138.542969 74.789062 L 140.109375 92.808594 " fill-opacity="1" fill-rule="evenodd"/><path fill="#f2d291" d="M 101.507812 200.148438 C 102.007812 201.839844 103.609375 205.230469 103.890625 206.605469 C 103.984375 207.054688 104.019531 207.941406 104.1875 210.117188 C 104.511719 212.300781 105.160156 214.511719 105.160156 214.511719 C 105.160156 214.511719 104.25 214.636719 103.738281 213.941406 C 103.222656 213.246094 102.40625 211.800781 102.273438 210.839844 C 102.140625 209.886719 102.054688 208.382812 101.941406 208.050781 C 101.460938 209.289062 101.125 210.5625 101.125 210.5625 C 101.355469 211.910156 101.820312 213.609375 102.019531 214.59375 C 102.46875 215.121094 103.332031 216.574219 103.332031 216.574219 C 103.519531 216.578125 104.515625 217.59375 104.648438 218.0625 C 104.09375 218.410156 103.527344 218.496094 103.527344 218.496094 C 103.65625 218.664062 103.710938 218.863281 103.671875 219.03125 L 101.839844 218.867188 L 100.257812 217.972656 L 99.488281 217.9375 L 96.519531 215.558594 L 95.152344 214.21875 L 94.75 209.746094 C 94.75 209.746094 95.511719 203.164062 95.519531 202.1875 C 95.519531 201.941406 95.523438 201.175781 95.53125 200.144531 L 101.507812 200.148438 " fill-opacity="1" fill-rule="evenodd"/><path stroke-linecap="butt" transform="matrix(0.0458534, 0, 0, -0.0459158, 0.555544, 325.687479)" fill="none" stroke-linejoin="miter" d="M 2245.672447 2334.519659 L 2226.760287 2340.049479 L 2167.127353 2402.068545 L 2150.259752 2488.929266 " stroke="#2f2e6b" stroke-width="13.66" stroke-opacity="1" stroke-miterlimit="22.926001"/><path stroke-linecap="butt" transform="matrix(0.0458534, 0, 0, -0.0459158, 0.555544, 325.687479)" fill="none" stroke-linejoin="miter" d="M 2168.916341 2344.133039 L 2127.002907 2391.008903 L 2110.561255 2469.532356 " stroke="#2f2e6b" stroke-width="13.66" stroke-opacity="1" stroke-miterlimit="22.926001"/><path fill="#edba68" d="M 174.910156 205.996094 C 174.761719 205.695312 174.824219 205.308594 174.886719 205.164062 C 174.953125 205.019531 177.664062 206.261719 177.664062 206.261719 C 177.664062 206.261719 175.441406 206.398438 174.910156 205.996094 " fill-opacity="1" fill-rule="evenodd"/><path stroke-linecap="butt" transform="matrix(0.0458534, 0, 0, -0.0459158, 0.555544, 325.687479)" fill="none" stroke-linejoin="miter" d="M 3885.152193 2572.897465 C 3885.152193 2572.897465 3869.136491 2579.192953 3852.098509 2582.510846 C 3835.060528 2585.828738 3819.470775 2585.913812 3819.470775 2585.913812 " stroke="#2f2e6b" stroke-width="13.66" stroke-opacity="1" stroke-miterlimit="22.926001"/><path stroke-linecap="butt" transform="matrix(0.0458534, 0, 0, -0.0459158, 0.555544, 325.687479)" fill="none" stroke-linejoin="miter" d="M 3777.642531 2574.173578 C 3791.698866 2567.537793 3821.600523 2557.66919 3828.671285 2554.266223 C 3835.742047 2550.863257 3864.110286 2523.214154 3864.110286 2523.214154 " stroke="#2f2e6b" stroke-width="13.66" stroke-opacity="1" stroke-miterlimit="22.926001"/><path fill="#f2d291" d="M 165.363281 199.625 C 166.007812 201.265625 166.824219 204.929688 167.441406 206.1875 C 167.644531 206.597656 168.164062 207.320312 169.359375 209.140625 C 170.445312 211.066406 171.285156 213.207031 171.285156 213.207031 C 171.285156 213.207031 172.078125 212.746094 172.058594 211.882812 C 172.035156 211.019531 171.796875 209.375 171.316406 208.539062 C 170.832031 207.703125 169.980469 206.460938 169.867188 206.128906 C 171.003906 206.8125 172.050781 207.609375 172.050781 207.609375 C 172.695312 208.8125 173.371094 210.441406 173.816406 211.34375 C 173.785156 212.035156 173.992188 213.710938 173.992188 213.710938 C 173.847656 213.832031 173.683594 215.246094 173.867188 215.699219 C 174.519531 215.632812 175.015625 215.351562 175.015625 215.351562 C 175.015625 215.5625 175.097656 215.753906 175.230469 215.863281 L 176.578125 214.605469 L 177.277344 212.925781 L 177.863281 212.425781 L 178.75 208.726562 L 179.007812 206.824219 L 176.585938 203.042969 C 176.585938 203.042969 171.945312 198.320312 171.34375 197.550781 C 171.191406 197.359375 170.71875 196.761719 170.082031 195.949219 L 165.363281 199.625 " fill-opacity="1" fill-rule="evenodd"/><path stroke-linecap="butt" transform="matrix(0.0458534, 0, 0, -0.0459158, 0.555544, 325.687479)" fill="none" stroke-linejoin="miter" d="M 3804.732922 2403.00436 L 3816.403939 2418.998303 L 3825.348879 2504.582912 L 3785.309623 2583.531736 " stroke="#2f2e6b" stroke-width="13.66" stroke-opacity="1" stroke-miterlimit="22.926001"/><path stroke-linecap="butt" transform="matrix(0.0458534, 0, 0, -0.0459158, 0.555544, 325.687479)" fill="none" stroke-linejoin="miter" d="M 3859.424841 2457.792122 L 3863.769527 2520.49178 L 3828.586095 2592.549597 " stroke="#2f2e6b" stroke-width="13.66" stroke-opacity="1" stroke-miterlimit="22.926001"/><path stroke-linecap="butt" transform="matrix(0.0458534, 0, 0, -0.0459158, 0.555544, 325.687479)" fill="none" stroke-linejoin="miter" d="M 2678.096411 3878.190358 C 2678.096411 3878.190358 3165.979004 4132.647181 3325.113749 4334.187875 " stroke="#2f2e6b" stroke-width="13.66" stroke-opacity="1" stroke-miterlimit="22.926001"/><path stroke-linecap="butt" transform="matrix(0.0458534, 0, 0, -0.0459158, 0.555544, 325.687479)" fill="none" stroke-linejoin="miter" d="M 3045.350097 3851.902441 C 3045.350097 3851.902441 3211.470414 4026.729848 3263.862207 4149.151569 " stroke="#2f2e6b" stroke-width="13.66" stroke-opacity="1" stroke-miterlimit="22.926001"/><path fill="#ffffff" d="M 106.230469 98.398438 C 101.039062 100.03125 94.648438 121.9375 92.648438 140.300781 L 109.191406 142.125 C 110.148438 135.980469 110.40625 130.699219 110.40625 130.699219 C 110.40625 130.699219 110.503906 108.027344 106.230469 98.398438 " fill-opacity="1" fill-rule="evenodd"/><path stroke-linecap="butt" transform="matrix(0.0458534, 0, 0, -0.0459158, 0.555544, 325.687479)" fill="none" stroke-linejoin="miter" d="M 2275.233344 4955.484492 C 2162.101149 4919.838417 2052.03579 4437.46791 2008.418558 4037.534266 L 2369.197811 3997.804632 C 2390.069338 4131.626291 2395.691872 4246.646561 2395.691872 4246.646561 C 2395.691872 4246.646561 2368.516292 4745.776679 2275.233344 4955.484492 Z M 2275.233344 4955.484492 " stroke="#2f2e6b" stroke-width="13.66" stroke-opacity="1" stroke-miterlimit="22.926001"/><path fill="#f2d291" d="M 131.902344 55.429688 C 129.035156 55.777344 120.410156 56.917969 121.339844 68.167969 C 122.269531 79.414062 124.34375 82.929688 125.867188 84.476562 C 127.820312 86.457031 130.863281 88.558594 137.921875 88.804688 C 141.96875 88.1875 142.414062 85.6875 143.460938 83.171875 C 144.296875 81.167969 145.9375 77.128906 144.703125 65.910156 C 143.46875 54.691406 134.78125 55.222656 131.902344 55.429688 " fill-opacity="1" fill-rule="evenodd"/><path fill="#2f2e6b" d="M 132.976562 71.761719 C 133.527344 71.710938 134.042969 72.21875 134.132812 72.894531 C 134.222656 73.566406 133.847656 74.152344 133.296875 74.203125 C 132.746094 74.25 132.230469 73.746094 132.140625 73.074219 C 132.054688 72.398438 132.425781 71.8125 132.976562 71.761719 " fill-opacity="1" fill-rule="evenodd"/><path fill="#2f2e6b" d="M 142.054688 71.117188 C 141.507812 71.175781 141.097656 71.773438 141.136719 72.449219 C 141.179688 73.128906 141.660156 73.632812 142.207031 73.574219 C 142.757812 73.515625 143.167969 72.917969 143.128906 72.242188 C 143.085938 71.5625 142.605469 71.058594 142.054688 71.117188 " fill-opacity="1" fill-rule="evenodd"/><path stroke-linecap="butt" transform="matrix(0.0458534, 0, 0, -0.0459158, 0.555544, 325.687479)" fill="none" stroke-linejoin="miter" d="M 3031.719712 5567.082654 C 3030.867813 5518.335159 3055.658076 5427.305804 3055.743266 5409.270081 C 3055.743266 5384.768722 3018.089327 5383.577683 3018.089327 5383.577683 " stroke="#2f2e6b" stroke-width="12.947" stroke-opacity="1" stroke-miterlimit="22.926001"/><path fill="#ffffff" d="M 135.96875 80.9375 C 135.96875 80.9375 139.292969 81.167969 141.804688 80.3125 C 142.511719 82.308594 138.199219 85.75 135.96875 80.9375 " fill-opacity="1" fill-rule="evenodd"/><g clip-path="url(#bcd2476760)"><path stroke-linecap="round" transform="matrix(0.0458534, 0, 0, -0.0459158, 0.555544, 325.687479)" fill="none" stroke-linejoin="miter" d="M 2844.727868 5580.26915 L 2928.810305 5589.457159 " stroke="#2f2e6b" stroke-width="32.368999" stroke-opacity="1" stroke-miterlimit="22.926001"/></g><path stroke-linecap="butt" transform="matrix(0.0458534, 0, 0, -0.0459158, 0.555544, 325.687479)" fill="none" stroke-linejoin="miter" d="M 2672.985017 5369.795669 C 2692.493505 5303.693044 2714.472501 5271.960381 2732.873521 5253.329139 C 2775.468474 5210.196538 2841.831411 5164.426638 2995.769572 5159.066966 " stroke="#2f2e6b" stroke-width="12.947" stroke-opacity="1" stroke-miterlimit="22.926001"/><g clip-path="url(#405220f194)"><path stroke-linecap="round" transform="matrix(0.0458534, 0, 0, -0.0459158, 0.555544, 325.687479)" fill="none" stroke-linejoin="miter" d="M 3122.021013 5599.751133 L 3066.136434 5597.283982 " stroke="#2f2e6b" stroke-width="32.368999" stroke-opacity="1" stroke-miterlimit="22.926001"/></g><path fill="#2f2e6b" d="M 120.996094 72.691406 L 123.769531 73.703125 C 123.769531 73.703125 123.175781 69.214844 123.652344 67.710938 C 124.128906 66.203125 124.109375 63.054688 126.679688 61.636719 C 129.253906 60.222656 136.855469 63.230469 141.75 61.183594 C 143.859375 60.300781 144.71875 64.351562 145.03125 69.660156 C 145.03125 69.660156 146.15625 67.351562 146.34375 64.289062 C 146.53125 61.234375 146.746094 58.929688 145.671875 57.710938 C 144.597656 56.496094 144.203125 57.191406 142.789062 56.636719 C 141.375 56.082031 142.140625 52.320312 138.164062 51.496094 C 134.191406 50.679688 121.882812 53.980469 119.429688 56.515625 C 116.972656 59.050781 117.789062 66.558594 119.210938 68.371094 C 120.367188 69.84375 119.402344 70.53125 120.996094 72.691406 " fill-opacity="1" fill-rule="evenodd"/><path fill="#f2d291" d="M 122.679688 72.945312 C 122.25 72.304688 121.753906 71.800781 120.855469 71.703125 C 119.957031 71.601562 118.402344 72.203125 118.648438 74.699219 C 118.894531 77.199219 121.179688 79.144531 122.464844 78.71875 C 123.753906 78.292969 122.679688 72.945312 122.679688 72.945312 " fill-opacity="1" fill-rule="evenodd"/><path stroke-linecap="butt" transform="matrix(0.0458534, 0, 0, -0.0459158, 0.555544, 325.687479)" fill="none" stroke-linejoin="miter" d="M 2644.616778 5475.883151 C 2644.020448 5482.60401 2614.459551 5511.6143 2594.013973 5487.963682 " stroke="#2f2e6b" stroke-width="12.947" stroke-opacity="1" stroke-miterlimit="22.926001"/><g clip-path="url(#deaf0d6f8f)"><path stroke-linecap="butt" transform="matrix(0.0458534, 0, 0, -0.0459158, 0.555544, 325.687479)" fill="none" stroke-linejoin="miter" d="M 2634.905128 5882.622727 C 2663.273367 5921.246398 2833.14204 5994.069882 2937.925625 6004.534004 " stroke="#2f2e6b" stroke-width="12.947" stroke-opacity="1" stroke-miterlimit="22.926001"/></g><path fill="#ffffff" d="M 304.101562 277.195312 L 304.101562 258.304688 L 298.339844 258.304688 L 298.339844 255.792969 L 312.222656 255.792969 L 312.222656 258.304688 L 306.429688 258.304688 L 306.429688 277.195312 Z M 274.136719 277.195312 L 274.136719 255.792969 L 286.796875 255.792969 L 286.796875 258.304688 L 276.464844 258.304688 L 276.464844 264.878906 L 286.167969 264.878906 L 286.167969 267.390625 L 276.464844 267.390625 L 276.464844 274.683594 L 287.214844 274.683594 L 287.214844 277.195312 Z M 253.578125 277.195312 L 246.804688 255.792969 L 249.308594 255.792969 L 253.871094 271.339844 C 254.21875 272.546875 254.523438 273.710938 254.789062 274.832031 C 255.058594 273.664062 255.375 272.5 255.722656 271.339844 L 260.476562 255.792969 L 262.835938 255.792969 L 255.976562 277.195312 L 253.578125 277.195312 " fill-opacity="1" fill-rule="evenodd"/></svg>