<svg xmlns="http://www.w3.org/2000/svg" xmlns:xlink="http://www.w3.org/1999/xlink" width="500" zoomAndPan="magnify" viewBox="0 0 375 374.999991" height="500" preserveAspectRatio="xMidYMid meet" version="1.0"><defs><clipPath id="1e78947ac1"><path d="M 38.671875 6 L 337.171875 6 L 337.171875 375 L 38.671875 375 Z M 38.671875 6 " clip-rule="nonzero"/></clipPath></defs><g clip-path="url(#1e78947ac1)"><path fill="#c07d1c" d="M 324.078125 376.5 L 51.765625 376.5 C 44.605469 376.5 38.796875 370.6875 38.796875 363.515625 L 38.796875 19.472656 C 38.796875 12.304688 44.605469 6.492188 51.765625 6.492188 L 324.078125 6.492188 C 331.238281 6.492188 337.046875 12.304688 337.046875 19.472656 L 337.046875 363.515625 C 337.046875 370.6875 331.238281 376.5 324.078125 376.5 " fill-opacity="1" fill-rule="nonzero"/></g><path fill="#fbfcfc" d="M 259.242188 350.535156 L 64.734375 350.535156 L 64.734375 32.457031 L 311.109375 32.457031 L 311.109375 298.601562 L 259.242188 350.535156 " fill-opacity="1" fill-rule="nonzero"/><path fill="#4d8ace" d="M 265.726562 188.25 L 110.117188 188.25 L 110.117188 58.421875 L 265.726562 58.421875 L 265.726562 188.25 " fill-opacity="1" fill-rule="nonzero"/><path fill="#f2a91a" d="M 110.117188 155.792969 C 122.925781 134.421875 140.3125 116.164062 161.023438 102.339844 L 168.472656 97.371094 L 207.371094 97.371094 L 220.339844 110.351562 L 239.792969 110.351562 L 239.792969 125.578125 C 239.792969 135.09375 232.085938 142.808594 222.578125 142.808594 L 213.855469 142.808594 C 209.648438 142.808594 205.550781 144.175781 202.1875 146.707031 C 189.125 156.511719 181.4375 171.902344 181.4375 188.25 L 110.117188 188.25 L 110.117188 155.792969 " fill-opacity="1" fill-rule="nonzero"/><path fill="#8b4a31" d="M 187.921875 97.371094 L 187.921875 124.449219 C 187.921875 127.894531 186.554688 131.195312 184.121094 133.632812 C 179.0625 138.699219 170.847656 138.699219 165.785156 133.632812 C 163.355469 131.195312 161.988281 127.894531 161.988281 124.449219 L 161.988281 97.371094 L 187.921875 97.371094 " fill-opacity="1" fill-rule="nonzero"/><path fill="#f03e3d" d="M 181.4375 175.265625 L 180.34375 175.265625 C 154.757812 175.265625 130.691406 161.621094 117.527344 139.660156 C 115.683594 136.585938 116.679688 132.597656 119.75 130.753906 C 122.820312 128.910156 126.800781 129.902344 128.644531 132.976562 C 139.476562 151.054688 159.285156 162.285156 180.34375 162.285156 L 181.4375 162.285156 C 185.019531 162.285156 187.921875 165.191406 187.921875 168.777344 C 187.921875 172.359375 185.019531 175.265625 181.4375 175.265625 " fill-opacity="1" fill-rule="nonzero"/><path fill="#6f3c29" d="M 226.824219 32.457031 L 149.019531 32.457031 C 141.859375 32.457031 136.050781 26.644531 136.050781 19.472656 L 136.050781 0 L 239.792969 0 L 239.792969 19.472656 C 239.792969 26.644531 233.984375 32.457031 226.824219 32.457031 " fill-opacity="1" fill-rule="nonzero"/><path fill="#87d08f" d="M 272.210938 246.671875 L 252.757812 246.671875 L 252.757812 227.199219 L 226.824219 227.199219 L 226.824219 246.671875 L 207.371094 246.671875 L 207.371094 272.636719 L 226.824219 272.636719 L 226.824219 292.113281 L 252.757812 292.113281 L 252.757812 272.636719 L 272.210938 272.636719 L 272.210938 246.671875 " fill-opacity="1" fill-rule="nonzero"/><path fill="#ecece9" d="M 136.050781 233.691406 L 84.183594 233.691406 L 84.183594 220.707031 L 136.050781 220.707031 L 136.050781 233.691406 " fill-opacity="1" fill-rule="nonzero"/><path fill="#ecece9" d="M 97.152344 259.65625 L 84.183594 259.65625 L 84.183594 246.671875 L 97.152344 246.671875 L 97.152344 259.65625 " fill-opacity="1" fill-rule="nonzero"/><path fill="#ecece9" d="M 181.4375 259.65625 L 110.117188 259.65625 L 110.117188 246.671875 L 181.4375 246.671875 L 181.4375 259.65625 " fill-opacity="1" fill-rule="nonzero"/><path fill="#ecece9" d="M 181.4375 285.621094 L 155.503906 285.621094 L 155.503906 272.636719 L 181.4375 272.636719 L 181.4375 285.621094 " fill-opacity="1" fill-rule="nonzero"/><path fill="#ecece9" d="M 142.535156 285.621094 L 84.183594 285.621094 L 84.183594 272.636719 L 142.535156 272.636719 L 142.535156 285.621094 " fill-opacity="1" fill-rule="nonzero"/><path fill="#ecece9" d="M 161.988281 311.585938 L 84.183594 311.585938 L 84.183594 298.601562 L 161.988281 298.601562 L 161.988281 311.585938 " fill-opacity="1" fill-rule="nonzero"/><path fill="#ecece9" d="M 259.242188 350.535156 L 259.242188 298.601562 L 311.109375 298.601562 Z M 259.242188 350.535156 " fill-opacity="1" fill-rule="nonzero"/><path fill="#a1681d" d="M 259.242188 350.535156 L 311.109375 298.601562 L 311.109375 311.585938 L 272.210938 350.535156 L 259.242188 350.535156 " fill-opacity="1" fill-rule="nonzero"/></svg>