<svg xmlns="http://www.w3.org/2000/svg" xmlns:xlink="http://www.w3.org/1999/xlink" width="500" zoomAndPan="magnify" viewBox="0 0 375 374.999991" height="500" preserveAspectRatio="xMidYMid meet" version="1.0"><defs><filter x="0%" y="0%" width="100%" height="100%" id="b07ebd3d93"><feColorMatrix values="0 0 0 0 1 0 0 0 0 1 0 0 0 0 1 0 0 0 1 0" color-interpolation-filters="sRGB"/></filter><clipPath id="fb39326219"><path d="M 9.023438 80.742188 L 366.078125 80.742188 L 366.078125 294 L 9.023438 294 Z M 9.023438 80.742188 " clip-rule="nonzero"/></clipPath><clipPath id="afb9a12f0d"><path d="M 19.808594 93.464844 L 245.730469 93.464844 L 245.730469 233.285156 L 19.808594 233.285156 Z M 19.808594 93.464844 " clip-rule="nonzero"/></clipPath><mask id="26b9a2fee8"><g filter="url(#b07ebd3d93)"><rect x="-37.5" width="450" fill="#000000" y="-37.499999" height="449.999989" fill-opacity="0.1373"/></g></mask><clipPath id="ed32f13159"><path d="M 3 0.769531 L 133.84375 0.769531 L 133.84375 126 L 3 126 Z M 3 0.769531 " clip-rule="nonzero"/></clipPath><clipPath id="0abfd5438a"><rect x="0" width="135" y="0" height="128"/></clipPath></defs><g clip-path="url(#fb39326219)"><path fill="#1a1a1a" d="M 279.273438 80.789062 C 275.292969 80.789062 272.089844 83.988281 272.089844 87.960938 L 272.089844 286.8125 C 272.089844 290.789062 275.292969 293.988281 279.273438 293.988281 L 358.902344 293.988281 C 362.882812 293.988281 366.085938 290.789062 366.085938 286.8125 L 366.085938 87.960938 C 366.085938 83.988281 362.882812 80.789062 358.902344 80.789062 Z M 14.851562 81.515625 C 11.625 81.515625 9.023438 84.113281 9.023438 87.339844 L 9.023438 240.867188 C 9.023438 244.09375 11.625 246.6875 14.851562 246.6875 L 115.097656 246.6875 L 112.652344 277.25 L 76.824219 277.25 C 74.804688 277.25 73.179688 278.175781 73.179688 279.328125 L 73.179688 283.902344 C 73.179688 285.054688 74.804688 285.980469 76.824219 285.980469 L 186.847656 285.980469 C 188.867188 285.980469 190.492188 285.054688 190.492188 283.902344 L 190.492188 279.328125 C 190.492188 278.175781 188.867188 277.25 186.847656 277.25 L 152.472656 277.25 L 150.03125 246.6875 L 250.273438 246.6875 C 253.503906 246.6875 256.101562 244.09375 256.101562 240.867188 L 256.101562 87.339844 C 256.101562 84.113281 253.503906 81.515625 250.273438 81.515625 L 14.847656 81.515625 Z M 15.167969 89.523438 L 249.960938 89.523438 L 249.960938 238.695312 L 15.167969 238.695312 Z M 291.753906 103.347656 L 342.800781 103.347656 C 343.597656 103.347656 344.238281 103.988281 344.238281 104.78125 L 344.238281 105.550781 C 344.238281 106.347656 343.597656 106.984375 342.800781 106.984375 L 291.753906 106.984375 C 290.957031 106.984375 290.320312 106.347656 290.320312 105.550781 L 290.320312 104.78125 C 290.320312 103.988281 290.957031 103.347656 291.753906 103.347656 Z M 291.753906 112.238281 L 342.800781 112.238281 C 343.597656 112.238281 344.238281 112.875 344.238281 113.667969 L 344.238281 114.441406 C 344.238281 115.234375 343.597656 115.875 342.800781 115.875 L 291.753906 115.875 C 290.957031 115.875 290.320312 115.234375 290.320312 114.441406 L 290.320312 113.667969 C 290.320312 112.875 290.957031 112.238281 291.753906 112.238281 Z M 336.222656 129.542969 C 336.652344 129.542969 337.078125 129.585938 337.5 129.667969 C 337.921875 129.753906 338.332031 129.875 338.730469 130.039062 C 339.128906 130.207031 339.507812 130.40625 339.867188 130.644531 C 340.222656 130.886719 340.554688 131.15625 340.859375 131.460938 C 341.164062 131.765625 341.433594 132.09375 341.675781 132.453125 C 341.914062 132.808594 342.117188 133.1875 342.28125 133.585938 C 342.445312 133.980469 342.570312 134.390625 342.652344 134.8125 C 342.738281 135.234375 342.78125 135.660156 342.78125 136.089844 C 342.78125 136.519531 342.738281 136.945312 342.652344 137.367188 C 342.570312 137.789062 342.445312 138.199219 342.28125 138.597656 C 342.117188 138.996094 341.914062 139.371094 341.675781 139.730469 C 341.433594 140.085938 341.164062 140.417969 340.859375 140.722656 C 340.554688 141.027344 340.222656 141.296875 339.863281 141.535156 C 339.507812 141.773438 339.128906 141.976562 338.730469 142.140625 C 338.332031 142.304688 337.921875 142.429688 337.5 142.515625 C 337.078125 142.597656 336.652344 142.640625 336.222656 142.640625 C 335.792969 142.640625 335.363281 142.597656 334.941406 142.515625 C 334.519531 142.429688 334.109375 142.304688 333.710938 142.140625 C 333.316406 141.976562 332.9375 141.773438 332.578125 141.535156 C 332.21875 141.296875 331.890625 141.027344 331.585938 140.722656 C 331.28125 140.417969 331.007812 140.085938 330.769531 139.730469 C 330.53125 139.371094 330.328125 138.996094 330.164062 138.597656 C 330 138.199219 329.875 137.789062 329.789062 137.367188 C 329.707031 136.945312 329.664062 136.519531 329.664062 136.089844 C 329.664062 135.660156 329.707031 135.234375 329.789062 134.8125 C 329.875 134.390625 330 133.980469 330.164062 133.585938 C 330.328125 133.1875 330.53125 132.808594 330.769531 132.453125 C 331.007812 132.09375 331.28125 131.765625 331.585938 131.460938 C 331.890625 131.15625 332.21875 130.886719 332.578125 130.644531 C 332.9375 130.40625 333.316406 130.207031 333.710938 130.039062 C 334.109375 129.875 334.519531 129.753906 334.941406 129.667969 C 335.363281 129.585938 335.792969 129.542969 336.222656 129.542969 Z M 290.296875 168.472656 L 341.34375 168.472656 C 342.140625 168.472656 342.78125 169.109375 342.78125 169.90625 L 342.78125 170.675781 C 342.78125 171.472656 342.140625 172.109375 341.34375 172.109375 L 290.296875 172.109375 C 289.5 172.109375 288.859375 171.472656 288.859375 170.675781 L 288.859375 169.90625 C 288.859375 169.109375 289.5 168.472656 290.296875 168.472656 Z M 290.296875 179.335938 L 341.34375 179.335938 C 342.140625 179.335938 342.78125 179.976562 342.78125 180.769531 L 342.78125 181.539062 C 342.78125 182.335938 342.140625 182.972656 341.34375 182.972656 L 290.296875 182.972656 C 289.5 182.972656 288.859375 182.335938 288.859375 181.539062 L 288.859375 180.769531 C 288.859375 179.976562 289.5 179.335938 290.296875 179.335938 Z M 290.296875 190.199219 L 341.34375 190.199219 C 342.140625 190.199219 342.78125 190.839844 342.78125 191.632812 L 342.78125 192.40625 C 342.78125 193.199219 342.140625 193.839844 341.34375 193.839844 L 290.296875 193.839844 C 289.5 193.839844 288.859375 193.199219 288.859375 192.40625 L 288.859375 191.632812 C 288.859375 190.839844 289.5 190.199219 290.296875 190.199219 Z M 290.296875 201.066406 L 341.34375 201.066406 C 342.140625 201.066406 342.78125 201.703125 342.78125 202.496094 L 342.78125 203.269531 C 342.78125 204.0625 342.140625 204.703125 341.34375 204.703125 L 290.296875 204.703125 C 289.5 204.703125 288.859375 204.0625 288.859375 203.269531 L 288.859375 202.496094 C 288.859375 201.703125 289.5 201.066406 290.296875 201.066406 Z M 332.554688 237.960938 L 346.445312 237.960938 C 348.855469 237.960938 350.792969 239.898438 350.792969 242.304688 L 350.792969 261.996094 C 350.792969 264.402344 348.855469 266.339844 346.445312 266.339844 L 332.554688 266.339844 C 330.144531 266.339844 328.207031 264.402344 328.207031 261.996094 L 328.207031 242.304688 C 328.207031 239.898438 330.144531 237.960938 332.554688 237.960938 Z M 332.554688 237.960938 " fill-opacity="1" fill-rule="nonzero"/></g><g clip-path="url(#afb9a12f0d)"><path fill="#a1cff0" d="M 245.664062 223.078125 C 245.664062 228.726562 241.097656 233.296875 235.460938 233.296875 L 30.074219 233.296875 C 24.4375 233.296875 19.875 228.726562 19.875 223.078125 L 19.875 103.6875 C 19.875 98.039062 24.4375 93.464844 30.074219 93.464844 L 235.460938 93.464844 C 241.097656 93.464844 245.664062 98.039062 245.664062 103.6875 L 245.664062 223.078125 " fill-opacity="1" fill-rule="nonzero"/></g><path fill="#2a384c" d="M 58.519531 133.460938 C 58.824219 133.527344 59.128906 133.5625 59.421875 133.578125 C 58.816406 131.871094 57.230469 130.636719 55.34375 130.558594 C 55.34375 131.804688 56.671875 133.054688 58.519531 133.460938 " fill-opacity="1" fill-rule="nonzero"/><path fill="#2a384c" d="M 51.328125 133.460938 C 53.152344 133.0625 54.472656 131.835938 54.503906 130.597656 C 52.828125 130.835938 51.453125 131.984375 50.890625 133.535156 C 51.039062 133.515625 51.183594 133.492188 51.328125 133.460938 " fill-opacity="1" fill-rule="nonzero"/><path fill="#2a384c" d="M 58.054688 134.046875 C 56.605469 133.734375 55.457031 132.933594 54.921875 132.003906 C 54.390625 132.933594 53.238281 133.734375 51.789062 134.046875 C 51.421875 134.125 51.058594 134.167969 50.707031 134.179688 C 50.644531 134.476562 50.613281 134.777344 50.613281 135.089844 C 50.613281 137.597656 52.640625 139.636719 55.144531 139.636719 C 57.652344 139.636719 59.683594 137.597656 59.683594 135.089844 C 59.683594 134.777344 59.652344 134.472656 59.59375 134.175781 C 59.101562 134.199219 58.585938 134.164062 58.054688 134.046875 " fill-opacity="1" fill-rule="nonzero"/><path fill="#2a384c" d="M 55.023438 142.445312 L 53.878906 141.296875 L 55.023438 140.140625 L 56.175781 141.296875 L 55.023438 142.445312 " fill-opacity="1" fill-rule="nonzero"/><path fill="#2a384c" d="M 55.023438 149.511719 L 53.878906 146.972656 L 55.023438 142.484375 L 56.175781 146.972656 L 55.023438 149.511719 " fill-opacity="1" fill-rule="nonzero"/><path fill="#2a384c" d="M 51.285156 147.898438 L 48.003906 147.898438 L 48.003906 145.988281 L 51.285156 145.988281 Z M 59.863281 140.898438 L 54.957031 151.265625 L 50.15625 140.914062 C 47.25 142.984375 45.292969 146.855469 45.292969 151.289062 L 64.746094 151.289062 C 64.746094 146.847656 62.78125 142.972656 59.863281 140.898438 " fill-opacity="1" fill-rule="nonzero"/><path fill="#e75a59" d="M 47.246094 195.289062 C 47.246094 196.101562 47.898438 196.753906 48.707031 196.753906 L 61.3125 196.753906 C 62.121094 196.753906 62.78125 196.101562 62.78125 195.289062 L 62.78125 186.339844 L 47.246094 186.339844 L 47.246094 195.289062 " fill-opacity="1" fill-rule="nonzero"/><path fill="#e75a59" d="M 50.085938 181.191406 C 50.105469 179.058594 52.339844 177.335938 55.070312 177.363281 C 57.800781 177.390625 60 179.148438 59.976562 181.289062 L 59.941406 185.378906 L 61.894531 185.394531 L 61.9375 181.308594 C 61.964844 178.09375 58.894531 175.441406 55.082031 175.402344 C 51.28125 175.367188 48.164062 177.957031 48.136719 181.171875 L 48.09375 185.261719 L 50.042969 185.28125 L 50.085938 181.191406 " fill-opacity="1" fill-rule="nonzero"/><path fill="#eff4f3" d="M 56.632812 189.789062 C 56.632812 188.886719 55.910156 188.15625 55.011719 188.15625 C 54.113281 188.15625 53.382812 188.886719 53.382812 189.789062 C 53.382812 190.351562 53.683594 190.855469 54.117188 191.144531 L 53.488281 194.929688 L 56.535156 194.929688 L 55.949219 191.117188 C 56.359375 190.820312 56.632812 190.339844 56.632812 189.789062 " fill-opacity="1" fill-rule="nonzero"/><path fill="#eff4f3" d="M 220.035156 141.535156 C 220.035156 147.175781 215.472656 151.753906 209.835938 151.753906 L 89.464844 151.753906 C 83.832031 151.753906 79.265625 147.175781 79.265625 141.535156 L 79.265625 140.230469 C 79.265625 134.582031 83.832031 130.007812 89.464844 130.007812 L 209.835938 130.007812 C 215.472656 130.007812 220.035156 134.582031 220.035156 140.230469 L 220.035156 141.535156 " fill-opacity="1" fill-rule="nonzero"/><path fill="#eff4f3" d="M 220.035156 186.539062 C 220.035156 192.179688 215.472656 196.753906 209.835938 196.753906 L 89.464844 196.753906 C 83.832031 196.753906 79.265625 192.179688 79.265625 186.539062 L 79.265625 185.234375 C 79.265625 179.585938 83.832031 175.007812 89.464844 175.007812 L 209.835938 175.007812 C 215.472656 175.007812 220.035156 179.585938 220.035156 185.234375 L 220.035156 186.539062 " fill-opacity="1" fill-rule="nonzero"/><path fill="#2a384c" d="M 100.292969 183.816406 L 100.191406 183.507812 C 99.960938 182.796875 99.199219 182.40625 98.488281 182.640625 L 94.839844 183.824219 L 94.839844 179.988281 C 94.839844 179.234375 94.234375 178.628906 93.488281 178.628906 L 93.164062 178.628906 C 92.421875 178.628906 91.8125 179.234375 91.8125 179.988281 L 91.8125 183.824219 L 88.167969 182.640625 C 87.453125 182.40625 86.695312 182.796875 86.464844 183.507812 L 86.363281 183.816406 C 86.25 184.160156 86.277344 184.527344 86.445312 184.851562 C 86.609375 185.167969 86.886719 185.410156 87.230469 185.523438 L 90.875 186.714844 L 88.628906 189.824219 C 88.414062 190.109375 88.328125 190.472656 88.382812 190.832031 C 88.4375 191.183594 88.632812 191.503906 88.921875 191.714844 L 89.183594 191.902344 C 89.789062 192.34375 90.636719 192.210938 91.074219 191.605469 L 93.324219 188.496094 L 95.582031 191.605469 C 95.84375 191.972656 96.257812 192.164062 96.671875 192.164062 C 96.949219 192.164062 97.230469 192.078125 97.46875 191.902344 L 97.730469 191.714844 C 98.019531 191.503906 98.210938 191.183594 98.269531 190.832031 C 98.324219 190.472656 98.242188 190.109375 98.027344 189.824219 L 95.777344 186.714844 L 99.421875 185.523438 C 99.765625 185.410156 100.046875 185.167969 100.210938 184.851562 C 100.371094 184.527344 100.398438 184.160156 100.292969 183.816406 " fill-opacity="1" fill-rule="nonzero"/><path fill="#2a384c" d="M 118.988281 183.816406 L 118.894531 183.507812 C 118.660156 182.796875 117.894531 182.40625 117.1875 182.640625 L 113.542969 183.824219 L 113.542969 179.988281 C 113.542969 179.234375 112.933594 178.628906 112.1875 178.628906 L 111.867188 178.628906 C 111.117188 178.628906 110.511719 179.234375 110.511719 179.988281 L 110.511719 183.824219 L 106.867188 182.640625 C 106.15625 182.40625 105.390625 182.796875 105.164062 183.507812 L 105.0625 183.816406 C 104.949219 184.160156 104.976562 184.527344 105.144531 184.851562 C 105.304688 185.167969 105.589844 185.410156 105.933594 185.523438 L 109.578125 186.714844 L 107.320312 189.824219 C 107.113281 190.109375 107.027344 190.472656 107.082031 190.832031 C 107.136719 191.183594 107.332031 191.503906 107.621094 191.714844 L 107.882812 191.902344 C 108.484375 192.34375 109.332031 192.210938 109.773438 191.605469 L 112.027344 188.496094 L 114.28125 191.605469 C 114.542969 191.972656 114.957031 192.164062 115.375 192.164062 C 115.65625 192.164062 115.925781 192.078125 116.175781 191.902344 L 116.429688 191.714844 C 116.71875 191.503906 116.917969 191.183594 116.972656 190.832031 C 117.027344 190.472656 116.9375 190.109375 116.730469 189.824219 L 114.476562 186.714844 L 118.117188 185.523438 C 118.460938 185.410156 118.75 185.167969 118.914062 184.851562 C 119.074219 184.527344 119.097656 184.160156 118.988281 183.816406 " fill-opacity="1" fill-rule="nonzero"/><path fill="#2a384c" d="M 137.6875 183.816406 L 137.59375 183.507812 C 137.359375 182.796875 136.597656 182.40625 135.882812 182.640625 L 132.238281 183.824219 L 132.238281 179.988281 C 132.238281 179.234375 131.632812 178.628906 130.886719 178.628906 L 130.5625 178.628906 C 129.816406 178.628906 129.210938 179.234375 129.210938 179.988281 L 129.210938 183.824219 L 125.566406 182.640625 C 124.855469 182.40625 124.09375 182.796875 123.859375 183.507812 L 123.757812 183.816406 C 123.652344 184.160156 123.679688 184.527344 123.84375 184.851562 C 124.003906 185.167969 124.289062 185.410156 124.625 185.523438 L 128.273438 186.714844 L 126.023438 189.824219 C 125.816406 190.109375 125.726562 190.472656 125.78125 190.832031 C 125.839844 191.183594 126.035156 191.503906 126.320312 191.714844 L 126.582031 191.902344 C 127.1875 192.34375 128.035156 192.210938 128.476562 191.605469 L 130.726562 188.496094 L 132.980469 191.605469 C 133.246094 191.972656 133.65625 192.164062 134.078125 192.164062 C 134.351562 192.164062 134.625 192.078125 134.871094 191.902344 L 135.132812 191.714844 C 135.417969 191.503906 135.613281 191.183594 135.671875 190.832031 C 135.726562 190.472656 135.636719 190.109375 135.429688 189.824219 L 133.175781 186.714844 L 136.820312 185.523438 C 137.164062 185.410156 137.449219 185.167969 137.609375 184.851562 C 137.769531 184.527344 137.800781 184.160156 137.6875 183.816406 " fill-opacity="1" fill-rule="nonzero"/><path fill="#2a384c" d="M 156.386719 183.816406 L 156.296875 183.507812 C 156.058594 182.796875 155.296875 182.40625 154.585938 182.640625 L 150.941406 183.824219 L 150.941406 179.988281 C 150.941406 179.234375 150.335938 178.628906 149.585938 178.628906 L 149.265625 178.628906 C 148.519531 178.628906 147.914062 179.234375 147.914062 179.988281 L 147.914062 183.824219 L 144.265625 182.640625 C 143.558594 182.40625 142.792969 182.796875 142.5625 183.507812 L 142.460938 183.816406 C 142.355469 184.160156 142.382812 184.527344 142.539062 184.851562 C 142.703125 185.167969 142.992188 185.410156 143.328125 185.523438 L 146.980469 186.714844 L 144.722656 189.824219 C 144.507812 190.109375 144.425781 190.472656 144.480469 190.832031 C 144.539062 191.183594 144.730469 191.503906 145.023438 191.714844 L 145.28125 191.902344 C 145.886719 192.34375 146.730469 192.210938 147.175781 191.605469 L 149.429688 188.496094 L 151.675781 191.605469 C 151.945312 191.972656 152.359375 192.164062 152.777344 192.164062 C 153.050781 192.164062 153.328125 192.078125 153.570312 191.902344 L 153.828125 191.714844 C 154.117188 191.503906 154.3125 191.183594 154.367188 190.832031 C 154.425781 190.472656 154.335938 190.109375 154.125 189.824219 L 151.875 186.714844 L 155.519531 185.523438 C 155.863281 185.410156 156.144531 185.167969 156.308594 184.851562 C 156.46875 184.527344 156.503906 184.160156 156.386719 183.816406 " fill-opacity="1" fill-rule="nonzero"/><path fill="#2a384c" d="M 175.089844 183.816406 L 174.992188 183.507812 C 174.761719 182.796875 173.996094 182.40625 173.285156 182.640625 L 169.640625 183.824219 L 169.640625 179.988281 C 169.640625 179.234375 169.03125 178.628906 168.285156 178.628906 L 167.964844 178.628906 C 167.21875 178.628906 166.609375 179.234375 166.609375 179.988281 L 166.609375 183.824219 L 162.964844 182.640625 C 162.257812 182.40625 161.492188 182.796875 161.261719 183.507812 L 161.164062 183.816406 C 161.046875 184.160156 161.082031 184.527344 161.242188 184.851562 C 161.40625 185.167969 161.683594 185.410156 162.03125 185.523438 L 165.675781 186.714844 L 163.421875 189.824219 C 163.210938 190.109375 163.121094 190.472656 163.183594 190.832031 C 163.234375 191.183594 163.429688 191.503906 163.71875 191.714844 L 163.980469 191.902344 C 164.585938 192.34375 165.429688 192.210938 165.871094 191.605469 L 168.128906 188.496094 L 170.378906 191.605469 C 170.644531 191.972656 171.058594 192.164062 171.476562 192.164062 C 171.75 192.164062 172.03125 192.078125 172.269531 191.902344 L 172.527344 191.714844 C 172.816406 191.503906 173.015625 191.183594 173.070312 190.832031 C 173.128906 190.472656 173.039062 190.109375 172.824219 189.824219 L 170.574219 186.714844 L 174.222656 185.523438 C 174.5625 185.410156 174.847656 185.167969 175.007812 184.851562 C 175.171875 184.527344 175.203125 184.160156 175.089844 183.816406 " fill-opacity="1" fill-rule="nonzero"/><g mask="url(#26b9a2fee8)"><g transform="matrix(1, 0, 0, 1, 69, 96)"><g clip-path="url(#0abfd5438a)"><g clip-path="url(#ed32f13159)"><path fill="#000000" d="M 90.636719 0.894531 C 90.367188 0.898438 90.085938 0.910156 89.808594 0.933594 C 78.757812 2.832031 72.683594 14.484375 71.804688 24.757812 C 70.515625 34.078125 74.636719 46.0625 84.902344 48.148438 C 86.390625 48.433594 87.9375 48.304688 89.394531 47.910156 C 101.757812 43.777344 107.289062 29.179688 105.5 17.085938 C 104.980469 9.277344 99.078125 0.785156 90.636719 0.894531 Z M 43.789062 1.394531 C 36.921875 1.5625 31.566406 8.507812 30.480469 15.039062 C 28.183594 27.980469 34.085938 44.058594 47.609375 48.152344 C 48.875 48.425781 50.183594 48.453125 51.464844 48.257812 C 60.601562 46.738281 64.472656 36.523438 64.089844 28.277344 C 63.816406 17.398438 58.148438 4.820312 46.816406 1.757812 C 45.78125 1.484375 44.773438 1.371094 43.792969 1.394531 Z M 120.574219 38.144531 C 108.691406 38.855469 100.542969 50.679688 99.378906 61.71875 C 97.804688 69.683594 102.066406 80.335938 111.175781 80.96875 C 123.882812 80.8125 132.554688 67.277344 132.914062 55.625 C 133.71875 47.921875 129.164062 38.570312 120.574219 38.144531 Z M 16.542969 40.769531 C 11.484375 40.726562 6.511719 43.746094 4.859375 48.871094 C 0.453125 62.582031 9.304688 79.945312 23.867188 82.828125 C 29.945312 83.863281 35.285156 79.210938 36.792969 73.609375 C 39.988281 61.632812 33.429688 47.726562 22.328125 42.289062 C 20.515625 41.277344 18.523438 40.789062 16.542969 40.769531 Z M 69.828125 65.351562 C 59.914062 65.375 49.84375 70.390625 43.425781 77.855469 C 36.492188 86.558594 30.8125 96.6875 28.589844 107.667969 C 25.890625 115.574219 32.011719 124.671875 40.484375 124.726562 C 50.683594 125.011719 59.445312 118.027344 69.585938 117.511719 C 78.1875 116.203125 85.890625 120.664062 93.625 123.585938 C 100.210938 126.394531 109.308594 125.316406 112.671875 118.25 C 115.316406 111.046875 111.425781 103.367188 108.199219 96.972656 C 101.621094 86.589844 94.578125 75.679688 83.792969 69.199219 C 79.472656 66.527344 74.667969 65.34375 69.828125 65.351562 Z M 69.828125 65.351562 " fill-opacity="1" fill-rule="nonzero"/></g></g></g></g></svg>