<svg xmlns="http://www.w3.org/2000/svg" xmlns:xlink="http://www.w3.org/1999/xlink" width="500" zoomAndPan="magnify" viewBox="0 0 375 374.999991" height="500" preserveAspectRatio="xMidYMid meet" version="1.0"><defs><clipPath id="1d5db99337"><path d="M 18.066406 37.5 L 357.066406 37.5 L 357.066406 318 L 18.066406 318 Z M 18.066406 37.5 " clip-rule="nonzero"/></clipPath></defs><g clip-path="url(#1d5db99337)"><path fill="#3d5666" d="M 357.066406 91.429688 C 357.066406 74.363281 343.15625 60.453125 326.089844 60.453125 L 303.9375 60.453125 L 303.9375 43.796875 C 303.9375 40.582031 301.304688 37.953125 298.09375 37.953125 C 294.878906 37.953125 292.246094 40.582031 292.246094 43.796875 L 292.246094 60.453125 L 248.644531 60.453125 L 248.644531 43.796875 C 248.644531 40.582031 246.015625 37.953125 242.800781 37.953125 C 239.585938 37.953125 236.953125 40.582031 236.953125 43.796875 L 236.953125 60.453125 L 193.410156 60.453125 L 193.410156 43.796875 C 193.410156 40.582031 190.78125 37.953125 187.566406 37.953125 C 184.351562 37.953125 181.722656 40.582031 181.722656 43.796875 L 181.722656 60.453125 L 138.117188 60.453125 L 138.117188 43.796875 C 138.117188 40.582031 135.488281 37.953125 132.273438 37.953125 C 129.058594 37.953125 126.429688 40.582031 126.429688 43.796875 L 126.429688 60.453125 L 82.828125 60.453125 L 82.828125 43.796875 C 82.828125 40.582031 80.195312 37.953125 76.980469 37.953125 C 73.765625 37.953125 71.136719 40.582031 71.136719 43.796875 L 71.136719 60.453125 L 49.042969 60.453125 C 31.976562 60.453125 18.066406 74.363281 18.066406 91.429688 C 18.183594 91.664062 17.890625 142.742188 18.125 142.976562 C 17.949219 143.617188 18.125 283.765625 18.066406 284.527344 C 18.066406 303.054688 33.144531 318.132812 51.675781 318.132812 L 323.398438 318.132812 C 341.929688 318.132812 357.007812 303.054688 357.007812 284.527344 C 356.949219 283.707031 357.125 143.734375 356.949219 142.976562 C 357.125 142.800781 357.007812 91.605469 357.066406 91.429688 Z M 125.960938 226.257812 C 120.527344 226.257812 114.855469 223.628906 110.121094 218.835938 C 88.90625 198.03125 106.5 162.4375 132.507812 185.582031 C 145.777344 198.265625 146.359375 225.207031 125.960938 226.257812 Z M 151.621094 141.574219 C 177.046875 132.046875 186.863281 185.582031 168.042969 193.296875 C 142.5625 202.824219 132.800781 149.230469 151.621094 141.574219 Z M 187.683594 288.03125 C 166.40625 288.617188 128.359375 281.664062 129.175781 261.148438 C 132.390625 185.992188 243.035156 185.992188 246.191406 261.148438 C 246.191406 280.960938 214.628906 288.03125 187.683594 288.03125 Z M 198.847656 160.507812 C 209.191406 125.5 241.515625 140.054688 232.105469 174.359375 C 221.816406 209.367188 189.4375 194.816406 198.847656 160.507812 Z M 265.011719 218.894531 C 239.117188 241.980469 221.40625 206.5625 242.625 185.640625 C 268.632812 162.496094 286.226562 198.03125 265.011719 218.894531 Z M 345.375 118.371094 C 339.472656 113.285156 331.816406 110.1875 323.457031 110.1875 L 51.675781 110.1875 C 43.316406 110.1875 35.660156 113.285156 29.757812 118.371094 L 29.757812 91.429688 C 29.757812 80.792969 38.40625 72.140625 49.042969 72.140625 L 71.195312 72.140625 L 71.195312 83.421875 C 71.195312 86.636719 73.824219 89.265625 77.039062 89.265625 C 80.253906 89.265625 82.886719 86.636719 82.886719 83.421875 L 82.886719 72.140625 L 126.488281 72.140625 L 126.488281 83.421875 C 126.488281 86.636719 129.117188 89.265625 132.332031 89.265625 C 135.546875 89.265625 138.175781 86.636719 138.175781 83.421875 L 138.175781 72.140625 L 181.722656 72.140625 L 181.722656 83.421875 C 181.722656 86.636719 184.351562 89.265625 187.566406 89.265625 C 190.78125 89.265625 193.410156 86.636719 193.410156 83.421875 L 193.410156 72.140625 L 237.011719 72.140625 L 237.011719 83.421875 C 237.011719 86.636719 239.644531 89.265625 242.859375 89.265625 C 246.074219 89.265625 248.703125 86.636719 248.703125 83.421875 L 248.703125 72.140625 L 292.304688 72.140625 L 292.304688 83.421875 C 292.304688 86.636719 294.9375 89.265625 298.148438 89.265625 C 301.363281 89.265625 303.996094 86.636719 303.996094 83.421875 L 303.996094 72.140625 L 326.148438 72.140625 C 336.785156 72.140625 345.433594 80.792969 345.433594 91.429688 L 345.433594 118.371094 Z M 345.375 118.371094 " fill-opacity="1" fill-rule="nonzero"/></g></svg>