<svg xmlns="http://www.w3.org/2000/svg" xmlns:xlink="http://www.w3.org/1999/xlink" width="500" zoomAndPan="magnify" viewBox="0 0 375 374.999991" height="500" preserveAspectRatio="xMidYMid meet" version="1.0"><defs><clipPath id="6033643bbf"><path d="M 154 268 L 186 268 L 186 285.652344 L 154 285.652344 Z M 154 268 " clip-rule="nonzero"/></clipPath><clipPath id="46dc81c138"><path d="M 161 269 L 167 269 L 167 285.652344 L 161 285.652344 Z M 161 269 " clip-rule="nonzero"/></clipPath><clipPath id="1d90d82009"><path d="M 174 269 L 180 269 L 180 285.652344 L 174 285.652344 Z M 174 269 " clip-rule="nonzero"/></clipPath><clipPath id="8e38ddd0ca"><path d="M 208 230 L 282 230 L 282 285.652344 L 208 285.652344 Z M 208 230 " clip-rule="nonzero"/></clipPath><clipPath id="1097ab9cc4"><path d="M 202 268 L 234 268 L 234 285.652344 L 202 285.652344 Z M 202 268 " clip-rule="nonzero"/></clipPath><clipPath id="0ba255b60b"><path d="M 209 269 L 215 269 L 215 285.652344 L 209 285.652344 Z M 209 269 " clip-rule="nonzero"/></clipPath><clipPath id="3488f7c56f"><path d="M 222 269 L 227 269 L 227 285.652344 L 222 285.652344 Z M 222 269 " clip-rule="nonzero"/></clipPath><clipPath id="1d52aa39ca"><path d="M 307 157 L 367 157 L 367 285.652344 L 307 285.652344 Z M 307 157 " clip-rule="nonzero"/></clipPath><clipPath id="de576f3d8e"><path d="M 319 268 L 351 268 L 351 285.652344 L 319 285.652344 Z M 319 268 " clip-rule="nonzero"/></clipPath><clipPath id="37824ac767"><path d="M 326 269 L 332 269 L 332 285.652344 L 326 285.652344 Z M 326 269 " clip-rule="nonzero"/></clipPath><clipPath id="a8a22ecf44"><path d="M 339 269 L 345 269 L 345 285.652344 L 339 285.652344 Z M 339 269 " clip-rule="nonzero"/></clipPath><clipPath id="cdbfbff8d7"><path d="M 311 89.152344 L 332 89.152344 L 332 126 L 311 126 Z M 311 89.152344 " clip-rule="nonzero"/></clipPath></defs><path fill="#454b51" d="M 138.425781 274.554688 C 134.976562 274.554688 129.792969 274.554688 129.792969 274.554688 C 119.761719 273.9375 122.9375 266.03125 120.519531 260.984375 C 104.988281 228.542969 118.84375 213.058594 129.199219 214.972656 C 135.214844 216.082031 139.035156 222.8125 137.917969 229.363281 C 136.328125 238.609375 133.726562 261.113281 133.726562 261.113281 C 143.089844 261.113281 147.835938 274.554688 138.425781 274.554688 " fill-opacity="1" fill-rule="nonzero"/><path fill="#2f3137" d="M 143.109375 271.9375 C 143.238281 271.3125 143.101562 270.703125 142.867188 270.144531 C 142.613281 269.59375 142.230469 269.089844 141.746094 268.695312 C 140.777344 267.90625 139.363281 267.597656 138.242188 268.191406 C 138.769531 268.539062 139.222656 268.796875 139.628906 269.074219 C 140.039062 269.34375 140.40625 269.613281 140.769531 269.90625 C 141.128906 270.195312 141.488281 270.503906 141.867188 270.84375 C 142.242188 271.179688 142.632812 271.535156 143.109375 271.9375 " fill-opacity="1" fill-rule="nonzero"/><path fill="#2f3137" d="M 139.738281 274.296875 C 139.980469 273.707031 139.960938 273.082031 139.808594 272.488281 C 139.652344 271.902344 139.335938 271.339844 138.890625 270.886719 C 138.007812 269.976562 136.601562 269.582031 135.457031 270.097656 C 135.957031 270.476562 136.394531 270.765625 136.761719 271.066406 C 137.144531 271.367188 137.472656 271.660156 137.789062 271.976562 C 138.101562 272.292969 138.402344 272.632812 138.710938 273.015625 L 139.738281 274.296875 " fill-opacity="1" fill-rule="nonzero"/><path fill="#454b51" d="M 76.59375 272.574219 C 73.144531 272.574219 67.953125 272.574219 67.953125 272.574219 C 57.925781 271.957031 61.101562 264.050781 58.6875 259.003906 C 55.644531 252.644531 53 249.980469 52.171875 244.894531 C 51.648438 241.726562 55.425781 239.84375 54.691406 238.042969 C 42.046875 206.851562 62.171875 198.664062 69.734375 199.074219 C 76.851562 199.464844 86.691406 203.085938 88.804688 212.90625 C 91.128906 223.695312 87.253906 233.585938 78.0625 237.851562 C 62.339844 245.144531 71.890625 259.132812 71.890625 259.132812 C 81.257812 259.132812 86.003906 272.574219 76.59375 272.574219 " fill-opacity="1" fill-rule="nonzero"/><path fill="#2f3137" d="M 80.929688 269.804688 C 81.054688 269.179688 80.917969 268.570312 80.679688 268.015625 C 80.433594 267.460938 80.050781 266.957031 79.5625 266.5625 C 78.59375 265.777344 77.179688 265.46875 76.058594 266.054688 C 76.589844 266.40625 77.039062 266.664062 77.449219 266.941406 C 77.859375 267.210938 78.226562 267.480469 78.585938 267.769531 C 78.949219 268.0625 79.308594 268.371094 79.683594 268.707031 C 80.0625 269.046875 80.453125 269.40625 80.929688 269.804688 " fill-opacity="1" fill-rule="nonzero"/><path fill="#2f3137" d="M 77.5625 272.160156 C 77.800781 271.570312 77.777344 270.949219 77.625 270.359375 C 77.472656 269.769531 77.15625 269.207031 76.710938 268.757812 C 75.820312 267.84375 74.421875 267.449219 73.277344 267.964844 C 73.773438 268.347656 74.207031 268.636719 74.582031 268.933594 C 74.960938 269.230469 75.289062 269.523438 75.605469 269.839844 C 75.921875 270.15625 76.222656 270.503906 76.53125 270.882812 L 77.5625 272.160156 " fill-opacity="1" fill-rule="nonzero"/><path fill="#717b81" d="M 22.773438 209.425781 C 22.773438 199.671875 33.21875 176.523438 55.066406 180.15625 C 65.054688 181.816406 69.585938 186.59375 81.914062 191.046875 C 97.539062 196.695312 104.859375 189.164062 104.859375 189.164062 L 141.839844 198.433594 C 145.40625 223.339844 130.792969 250.644531 83.152344 250.644531 C 54.152344 250.644531 22.773438 239.972656 22.773438 209.425781 " fill-opacity="1" fill-rule="nonzero"/><path fill="#717b81" d="M 30.539062 201.140625 C 32.476562 201.140625 34.332031 200.050781 35.214844 198.191406 C 36.449219 195.617188 35.355469 192.542969 32.785156 191.316406 C 32.605469 191.222656 22.632812 186.269531 25.035156 179.863281 C 25.511719 178.597656 26.160156 177.058594 26.902344 175.269531 C 29.753906 168.460938 33.652344 159.136719 34.691406 149.789062 C 36.40625 134.371094 29.183594 126.675781 22.816406 122.929688 C 20.355469 121.476562 17.175781 122.296875 15.722656 124.757812 C 14.273438 127.21875 15.097656 130.390625 17.558594 131.835938 C 29.621094 138.933594 23.773438 155.917969 17.347656 171.285156 C 16.558594 173.164062 15.882812 174.789062 15.335938 176.230469 C 10.742188 188.472656 21.816406 197.546875 28.316406 200.636719 C 29.035156 200.976562 29.792969 201.140625 30.539062 201.140625 " fill-opacity="1" fill-rule="nonzero"/><path fill="#454b51" d="M 32.894531 158.660156 C 32.894531 158.660156 31.113281 160.824219 27.589844 161.765625 C 24.675781 162.539062 21.421875 160.726562 21.421875 160.726562 C 25.5 148.734375 26.890625 137.324219 17.558594 131.835938 C 15.097656 130.390625 14.273438 127.21875 15.722656 124.757812 C 17.175781 122.296875 20.355469 121.476562 22.816406 122.929688 C 29.183594 126.675781 36.40625 134.371094 34.691406 149.789062 C 34.28125 153.496094 33.96875 155.121094 32.894531 158.660156 " fill-opacity="1" fill-rule="nonzero"/><path fill="#aeb4b7" d="M 26.289062 225.472656 C 49.660156 243.558594 79.09375 237.816406 101.707031 232.292969 C 126.046875 226.347656 124.394531 195.992188 125.382812 194.308594 L 141.839844 198.433594 C 145.40625 223.339844 130.792969 250.644531 83.152344 250.644531 C 59.96875 250.644531 35.261719 243.816406 26.289062 225.472656 " fill-opacity="1" fill-rule="nonzero"/><path fill="#717b81" d="M 49.40625 274.125 C 45.953125 274.125 40.765625 274.125 40.765625 274.125 C 30.738281 273.507812 33.914062 265.601562 31.5 260.554688 C 28.457031 254.195312 25.8125 251.53125 24.984375 246.445312 C 24.460938 243.277344 28.238281 241.390625 27.507812 239.589844 C 14.859375 208.398438 34.992188 200.214844 42.542969 200.625 C 49.664062 201.015625 59.503906 204.632812 61.617188 214.457031 C 63.941406 225.246094 60.066406 235.136719 50.875 239.402344 C 35.15625 246.695312 44.707031 260.683594 44.707031 260.683594 C 54.066406 260.683594 58.816406 274.125 49.40625 274.125 " fill-opacity="1" fill-rule="nonzero"/><path fill="#2f3137" d="M 53.746094 271.359375 C 53.867188 270.730469 53.734375 270.121094 53.496094 269.566406 C 53.25 269.011719 52.859375 268.503906 52.378906 268.113281 C 51.410156 267.328125 49.992188 267.023438 48.871094 267.613281 C 49.402344 267.957031 49.855469 268.214844 50.257812 268.492188 C 50.675781 268.761719 51.039062 269.03125 51.40625 269.324219 C 51.765625 269.613281 52.117188 269.921875 52.496094 270.257812 C 52.875 270.597656 53.265625 270.953125 53.746094 271.359375 " fill-opacity="1" fill-rule="nonzero"/><path fill="#2f3137" d="M 50.375 273.710938 C 50.613281 273.121094 50.589844 272.496094 50.441406 271.90625 C 50.289062 271.316406 49.96875 270.753906 49.527344 270.304688 C 48.636719 269.394531 47.226562 269.003906 46.085938 269.515625 C 46.589844 269.898438 47.019531 270.1875 47.394531 270.488281 C 47.773438 270.78125 48.105469 271.078125 48.421875 271.394531 C 48.734375 271.707031 49.035156 272.054688 49.34375 272.433594 L 50.375 273.710938 " fill-opacity="1" fill-rule="nonzero"/><path fill="#717b81" d="M 116.894531 283.863281 C 113.445312 283.863281 108.261719 283.863281 108.261719 283.863281 C 98.234375 283.242188 101.40625 275.34375 98.988281 270.292969 C 83.449219 237.851562 97.308594 222.367188 107.664062 224.28125 C 113.679688 225.394531 117.5 232.121094 116.378906 238.667969 C 114.796875 247.910156 112.199219 270.421875 112.199219 270.421875 C 121.5625 270.421875 126.300781 283.863281 116.894531 283.863281 " fill-opacity="1" fill-rule="nonzero"/><path fill="#2f3137" d="M 121.582031 281.246094 C 121.707031 280.617188 121.570312 280.007812 121.328125 279.453125 C 121.085938 278.898438 120.703125 278.394531 120.210938 278.003906 C 119.242188 277.214844 117.828125 276.90625 116.710938 277.496094 C 117.242188 277.84375 117.6875 278.101562 118.101562 278.378906 C 118.507812 278.648438 118.875 278.917969 119.238281 279.207031 C 119.601562 279.503906 119.957031 279.808594 120.332031 280.144531 C 120.710938 280.488281 121.101562 280.84375 121.582031 281.246094 " fill-opacity="1" fill-rule="nonzero"/><path fill="#2f3137" d="M 118.210938 283.601562 C 118.449219 283.011719 118.425781 282.386719 118.277344 281.792969 C 118.121094 281.210938 117.808594 280.644531 117.363281 280.195312 C 116.472656 279.28125 115.070312 278.890625 113.925781 279.402344 C 114.421875 279.785156 114.855469 280.074219 115.238281 280.378906 C 115.613281 280.667969 115.941406 280.964844 116.257812 281.28125 C 116.566406 281.59375 116.871094 281.941406 117.179688 282.320312 L 118.210938 283.601562 " fill-opacity="1" fill-rule="nonzero"/><path fill="#59646c" d="M 123.925781 205.238281 C 107.902344 199.75 103.894531 190.3125 104.339844 189.617188 C 107.074219 195.171875 113.800781 199.386719 121.785156 202.132812 C 122.617188 202.414062 123.460938 202.6875 124.316406 202.9375 C 124.203125 203.679688 124.078125 204.445312 123.925781 205.238281 " fill-opacity="1" fill-rule="nonzero"/><path fill="#869095" d="M 133.878906 206.71875 C 130.808594 206.71875 127.332031 206.382812 124.21875 205.339844 C 124.121094 205.304688 124.023438 205.269531 123.925781 205.238281 C 124.078125 204.445312 124.203125 203.679688 124.316406 202.9375 C 125.953125 203.425781 127.621094 203.847656 129.3125 204.21875 C 132.695312 204.949219 136.148438 205.433594 139.492188 205.605469 C 140.40625 205.65625 141.3125 205.679688 142.207031 205.679688 C 142.253906 205.679688 142.296875 205.679688 142.339844 205.679688 C 142.34375 205.6875 142.34375 205.695312 142.34375 205.703125 C 142.371094 205.921875 138.605469 206.71875 133.878906 206.71875 " fill-opacity="1" fill-rule="nonzero"/><path fill="#717b81" d="M 110.546875 168.925781 C 110.546875 168.925781 106.695312 151.921875 114.527344 146.609375 C 114.527344 146.609375 126.953125 148.894531 130.386719 158.398438 C 130.386719 158.398438 123.175781 167.867188 110.546875 168.925781 " fill-opacity="1" fill-rule="nonzero"/><path fill="#aeb4b7" d="M 115.050781 167.066406 C 115.050781 167.066406 112.605469 156.265625 117.574219 152.890625 C 117.574219 152.890625 125.46875 154.339844 127.648438 160.378906 C 127.648438 160.378906 123.070312 166.390625 115.050781 167.066406 " fill-opacity="1" fill-rule="nonzero"/><path fill="#717b81" d="M 161.082031 179.867188 C 161.082031 179.867188 171.640625 165.984375 166.71875 157.90625 C 166.71875 157.90625 154.460938 154.84375 147.398438 162.082031 C 147.398438 162.082031 150.027344 173.679688 161.082031 179.867188 " fill-opacity="1" fill-rule="nonzero"/><path fill="#aeb4b7" d="M 157.761719 176.3125 C 157.761719 176.3125 164.464844 167.496094 161.339844 162.363281 C 161.339844 162.363281 153.554688 160.417969 149.066406 165.015625 C 149.066406 165.015625 150.738281 172.386719 157.761719 176.3125 " fill-opacity="1" fill-rule="nonzero"/><path fill="#717b81" d="M 104.332031 178.199219 C 98.519531 191.742188 113.160156 200.71875 129.3125 204.21875 C 145.472656 207.714844 163.277344 205.574219 162.84375 190.867188 C 162.347656 174.121094 151.648438 161.101562 139.261719 158.421875 C 126.871094 155.738281 111.183594 162.246094 104.332031 178.199219 " fill-opacity="1" fill-rule="nonzero"/><path fill="#aeb4b7" d="M 134.589844 180.277344 C 148.253906 183.238281 157.835938 192.523438 155.984375 201.023438 C 155.816406 201.800781 155.554688 202.550781 155.210938 203.257812 C 148.613281 206.375 138.6875 206.25 129.3125 204.21875 C 119.839844 202.167969 110.90625 198.230469 106.292969 192.597656 C 106.277344 191.835938 106.351562 191.070312 106.515625 190.3125 C 108.359375 181.8125 120.929688 177.324219 134.589844 180.277344 " fill-opacity="1" fill-rule="nonzero"/><path fill="#2f3137" d="M 117.25 173.097656 C 116.832031 175.03125 117.488281 176.824219 118.722656 177.089844 C 119.957031 177.359375 121.300781 176 121.714844 174.0625 C 122.140625 172.121094 121.484375 170.335938 120.246094 170.066406 C 119.015625 169.800781 117.671875 171.15625 117.25 173.097656 " fill-opacity="1" fill-rule="nonzero"/><path fill="#2f3137" d="M 149.71875 180.125 C 149.296875 182.066406 149.957031 183.855469 151.195312 184.125 C 152.425781 184.386719 153.769531 183.035156 154.191406 181.09375 C 154.609375 179.152344 153.949219 177.363281 152.71875 177.09375 C 151.480469 176.832031 150.140625 178.1875 149.71875 180.125 " fill-opacity="1" fill-rule="nonzero"/><path fill="#f46a7f" d="M 133.476562 199.535156 L 133.195312 200.757812 C 132.875 202.136719 131.496094 202.996094 130.117188 202.675781 C 128.738281 202.355469 127.875 200.980469 128.199219 199.605469 L 128.464844 198.453125 C 128.464844 198.453125 129.679688 198.171875 130.527344 197.253906 C 131.421875 196.289062 132 194.535156 132 194.535156 C 132 194.535156 131.785156 196.195312 132.125 197.539062 C 132.519531 199.050781 133.476562 199.535156 133.476562 199.535156 " fill-opacity="1" fill-rule="nonzero"/><path fill="#f89ca8" d="M 130.210938 202.375 C 130.207031 201.957031 130.246094 201.550781 130.300781 201.144531 C 130.363281 200.738281 130.433594 200.339844 130.527344 199.941406 C 130.617188 199.542969 130.726562 199.15625 130.859375 198.765625 C 130.984375 198.378906 131.121094 197.992188 131.316406 197.617188 C 131.324219 198.039062 131.28125 198.445312 131.222656 198.851562 C 131.167969 199.253906 131.09375 199.660156 131 200.050781 C 130.90625 200.449219 130.796875 200.839844 130.675781 201.234375 C 130.542969 201.617188 130.402344 202 130.210938 202.375 " fill-opacity="1" fill-rule="nonzero"/><path fill="#2f3137" d="M 128.84375 198.429688 C 129.746094 198.429688 130.5625 198.050781 131.230469 197.316406 C 132.070312 196.386719 132.394531 195.191406 132.476562 194.851562 L 134.242188 187.253906 L 133.238281 187.023438 L 131.46875 194.617188 C 131.398438 194.898438 131.132812 195.878906 130.464844 196.621094 C 129.851562 197.296875 129.132812 197.527344 128.265625 197.328125 C 126.394531 196.894531 125.992188 195.625 126.234375 194.589844 L 126.679688 192.664062 C 126.746094 192.386719 126.570312 192.105469 126.292969 192.042969 C 126.011719 191.976562 125.738281 192.152344 125.671875 192.429688 L 125.226562 194.355469 C 124.859375 195.925781 125.585938 197.765625 128.035156 198.332031 C 128.3125 198.394531 128.578125 198.429688 128.84375 198.429688 " fill-opacity="1" fill-rule="nonzero"/><path fill="#2f3137" d="M 135.011719 199.824219 C 135.890625 199.824219 136.507812 199.550781 136.90625 199.273438 C 137.757812 198.679688 138.070312 197.816406 138.179688 197.355469 L 138.625 195.433594 C 138.691406 195.152344 138.515625 194.875 138.234375 194.8125 C 137.960938 194.746094 137.679688 194.917969 137.617188 195.199219 L 137.167969 197.121094 C 137.042969 197.660156 136.734375 198.132812 136.320312 198.425781 C 135.765625 198.800781 135.03125 198.890625 134.136719 198.683594 C 133.269531 198.484375 132.722656 197.964844 132.476562 197.085938 C 132.199219 196.121094 132.390625 195.128906 132.460938 194.847656 L 134.222656 187.25 L 133.210938 187.019531 L 131.445312 194.613281 C 131.371094 194.957031 131.132812 196.171875 131.480469 197.371094 C 131.835938 198.605469 132.671875 199.40625 133.898438 199.691406 C 134.3125 199.785156 134.679688 199.824219 135.011719 199.824219 " fill-opacity="1" fill-rule="nonzero"/><path fill="#2f3137" d="M 126.480469 185.714844 C 125.886719 188.253906 128.632812 191.054688 132.597656 191.976562 C 136.570312 192.894531 140.269531 191.582031 140.855469 189.046875 C 141.449219 186.503906 138.707031 183.703125 134.734375 182.785156 C 130.765625 181.863281 127.0625 183.171875 126.480469 185.714844 " fill-opacity="1" fill-rule="nonzero"/><path fill="#2f3137" d="M 125.1875 182.984375 C 125.339844 182.984375 125.488281 182.914062 125.59375 182.789062 C 125.769531 182.5625 125.734375 182.234375 125.507812 182.0625 C 125.363281 181.953125 111.253906 170.941406 97.15625 171.105469 C 96.875 171.105469 96.636719 171.34375 96.648438 171.628906 C 96.652344 171.910156 96.882812 172.136719 97.164062 172.136719 L 97.167969 172.136719 C 97.28125 172.136719 97.386719 172.132812 97.496094 172.132812 C 111.097656 172.132812 124.730469 182.761719 124.867188 182.875 C 124.960938 182.945312 125.074219 182.984375 125.1875 182.984375 " fill-opacity="1" fill-rule="nonzero"/><path fill="#2f3137" d="M 124.027344 184.335938 C 124.210938 184.335938 124.382812 184.242188 124.476562 184.078125 C 124.617188 183.828125 124.539062 183.511719 124.289062 183.371094 C 124.117188 183.269531 107.507812 173.867188 93.101562 174.601562 C 92.816406 174.613281 92.597656 174.859375 92.609375 175.140625 C 92.617188 175.425781 92.871094 175.644531 93.152344 175.632812 C 107.257812 174.914062 123.609375 184.171875 123.773438 184.265625 L 124.027344 184.335938 " fill-opacity="1" fill-rule="nonzero"/><path fill="#2f3137" d="M 123.546875 186.085938 C 123.730469 186.085938 123.914062 185.984375 124.003906 185.800781 C 124.140625 185.550781 124.035156 185.238281 123.78125 185.109375 C 123.644531 185.042969 110.234375 178.351562 94.554688 179.289062 C 94.273438 179.300781 94.050781 179.546875 94.066406 179.832031 C 94.089844 180.117188 94.335938 180.335938 94.617188 180.320312 C 110.003906 179.40625 123.183594 185.964844 123.308594 186.027344 L 123.546875 186.085938 " fill-opacity="1" fill-rule="nonzero"/><path fill="#2f3137" d="M 123.277344 187.816406 C 123.496094 187.816406 123.703125 187.667969 123.773438 187.449219 C 123.859375 187.175781 123.703125 186.890625 123.433594 186.804688 C 123.300781 186.761719 110.46875 182.835938 99.320312 183.972656 C 99.035156 183.996094 98.832031 184.253906 98.855469 184.539062 C 98.886719 184.820312 99.140625 185.039062 99.429688 185 C 110.363281 183.886719 123 187.75 123.121094 187.789062 L 123.277344 187.816406 " fill-opacity="1" fill-rule="nonzero"/><path fill="#2f3137" d="M 172.148438 194.796875 C 172.3125 194.796875 172.46875 194.71875 172.574219 194.570312 C 172.734375 194.339844 172.675781 194.015625 172.441406 193.855469 C 160.839844 185.886719 142.960938 187.203125 142.777344 187.21875 C 142.492188 187.238281 142.28125 187.484375 142.300781 187.773438 C 142.328125 188.058594 142.566406 188.265625 142.859375 188.246094 C 143.039062 188.234375 160.558594 186.949219 171.851562 194.703125 C 171.941406 194.765625 172.046875 194.796875 172.148438 194.796875 " fill-opacity="1" fill-rule="nonzero"/><path fill="#2f3137" d="M 173.4375 199.921875 C 173.59375 199.921875 173.753906 199.847656 173.851562 199.714844 C 174.027344 199.484375 173.980469 199.160156 173.75 198.988281 C 162.179688 190.375 143.136719 188.972656 142.945312 188.957031 C 142.660156 188.9375 142.40625 189.152344 142.390625 189.4375 C 142.367188 189.722656 142.582031 189.96875 142.871094 189.988281 C 143.058594 190.003906 161.800781 191.386719 173.128906 199.820312 C 173.222656 199.890625 173.332031 199.921875 173.4375 199.921875 " fill-opacity="1" fill-rule="nonzero"/><path fill="#2f3137" d="M 169.652344 203.085938 C 169.808594 203.085938 169.960938 203.015625 170.066406 202.878906 C 170.242188 202.652344 170.191406 202.332031 169.960938 202.160156 C 157.464844 192.6875 142.582031 190.78125 142.4375 190.765625 C 142.152344 190.734375 141.890625 190.933594 141.863281 191.21875 C 141.824219 191.496094 142.023438 191.757812 142.308594 191.792969 C 142.457031 191.808594 157.066406 193.683594 169.339844 202.980469 C 169.433594 203.054688 169.542969 203.085938 169.652344 203.085938 " fill-opacity="1" fill-rule="nonzero"/><path fill="#2f3137" d="M 162.894531 204.246094 C 163.039062 204.246094 163.183594 204.1875 163.292969 204.0625 C 163.472656 203.84375 163.441406 203.515625 163.222656 203.332031 C 154.589844 196.199219 141.742188 192.332031 141.609375 192.296875 C 141.332031 192.210938 141.046875 192.371094 140.964844 192.640625 C 140.882812 192.917969 141.042969 193.207031 141.3125 193.285156 C 141.441406 193.324219 154.101562 197.136719 162.5625 204.128906 C 162.65625 204.210938 162.773438 204.246094 162.894531 204.246094 " fill-opacity="1" fill-rule="nonzero"/><path fill="#4b1615" d="M 347.984375 152.859375 C 347.984375 152.859375 342.179688 134.800781 325.203125 125.878906 C 308.230469 116.957031 314.039062 95.777344 314.488281 91.3125 C 314.488281 91.3125 321.472656 110.300781 331.015625 114.507812 C 348.210938 122.085938 375.238281 141.710938 363.625 177.835938 C 363.625 177.835938 346.199219 166.683594 347.984375 152.859375 " fill-opacity="1" fill-rule="nonzero"/><path fill="#a25030" d="M 300.652344 280.875 C 304.898438 280.875 311.273438 280.875 311.273438 280.875 C 323.601562 280.113281 319.691406 270.398438 322.664062 264.191406 C 326.410156 256.375 331.464844 241.609375 332.488281 235.355469 C 333.121094 231.460938 328.488281 229.144531 329.382812 226.9375 C 344.929688 188.59375 335.480469 156.8125 309.585938 152.917969 C 297.175781 151.046875 282.261719 160.980469 279.667969 173.054688 C 276.8125 186.316406 273.742188 217.96875 300.300781 234.082031 C 318.515625 245.128906 306.433594 264.351562 306.433594 264.351562 C 294.925781 264.351562 289.089844 280.875 300.652344 280.875 " fill-opacity="1" fill-rule="nonzero"/><path fill="#ffffff" d="M 315.960938 280.851562 C 320.050781 280.851562 321.90625 277.859375 320.082031 274.207031 C 320.082031 274.207031 317.3125 263.910156 305.328125 263.910156 C 293.515625 263.910156 290.574219 274.207031 290.574219 274.207031 C 288.746094 277.859375 290.597656 280.851562 294.691406 280.851562 L 315.960938 280.851562 " fill-opacity="1" fill-rule="nonzero"/><path fill="#b8a27c" d="M 301.210938 264.691406 C 300.738281 266.222656 300.304688 267.589844 299.980469 268.929688 C 299.65625 270.265625 299.449219 271.546875 299.429688 272.789062 C 299.40625 274.03125 299.558594 275.25 299.910156 276.523438 C 300.253906 277.808594 300.800781 279.101562 301.386719 280.59375 C 300.082031 280.085938 298.9375 279.074219 298.089844 277.683594 C 297.242188 276.304688 296.757812 274.492188 296.804688 272.714844 C 296.84375 270.929688 297.351562 269.238281 298.132812 267.859375 C 298.914062 266.492188 299.941406 265.34375 301.210938 264.691406 " fill-opacity="1" fill-rule="nonzero"/><path fill="#b8a27c" d="M 309.84375 264.691406 C 310.320312 266.222656 310.75 267.589844 311.070312 268.929688 C 311.398438 270.265625 311.605469 271.546875 311.625 272.789062 C 311.648438 274.03125 311.492188 275.25 311.144531 276.523438 C 310.796875 277.808594 310.25 279.101562 309.667969 280.59375 C 310.972656 280.085938 312.117188 279.074219 312.964844 277.683594 C 313.8125 276.304688 314.296875 274.492188 314.246094 272.714844 C 314.214844 270.929688 313.699219 269.238281 312.925781 267.859375 C 312.136719 266.492188 311.117188 265.34375 309.84375 264.691406 " fill-opacity="1" fill-rule="nonzero"/><path fill="#a25030" d="M 202.480469 236.445312 C 198.863281 242.347656 195.769531 250.488281 191.925781 256.34375 C 189.574219 259.925781 184.054688 266.210938 170.3125 266.210938 C 162.445312 266.210938 161.34375 279.265625 161.019531 282.769531 C 161.019531 282.769531 186.082031 282.769531 196.117188 282.769531 C 209.84375 282.769531 217.410156 263.007812 220.402344 256.847656 C 223.613281 250.238281 233.636719 230.59375 233.636719 230.59375 C 214.875 226.578125 208.003906 227.414062 202.480469 236.445312 " fill-opacity="1" fill-rule="nonzero"/><g clip-path="url(#6033643bbf)"><path fill="#ffffff" d="M 180.722656 285.335938 C 184.816406 285.335938 186.671875 282.34375 184.851562 278.683594 C 184.851562 278.683594 182.085938 268.386719 170.09375 268.386719 C 158.28125 268.386719 155.335938 278.683594 155.335938 278.683594 C 153.511719 282.34375 155.367188 285.335938 159.460938 285.335938 L 180.722656 285.335938 " fill-opacity="1" fill-rule="nonzero"/></g><g clip-path="url(#46dc81c138)"><path fill="#b8a27c" d="M 165.980469 269.175781 C 165.503906 270.703125 165.078125 272.074219 164.746094 273.410156 C 164.421875 274.75 164.21875 276.027344 164.195312 277.265625 C 164.171875 278.511719 164.324219 279.730469 164.675781 281.003906 C 165.023438 282.285156 165.570312 283.585938 166.15625 285.070312 C 164.847656 284.5625 163.703125 283.550781 162.855469 282.167969 C 162.007812 280.785156 161.523438 278.976562 161.570312 277.195312 C 161.609375 275.40625 162.125 273.71875 162.894531 272.34375 C 163.683594 270.96875 164.703125 269.820312 165.980469 269.175781 " fill-opacity="1" fill-rule="nonzero"/></g><g clip-path="url(#1d90d82009)"><path fill="#b8a27c" d="M 174.605469 269.175781 C 175.078125 270.703125 175.511719 272.074219 175.835938 273.410156 C 176.164062 274.75 176.367188 276.027344 176.394531 277.265625 C 176.410156 278.511719 176.261719 279.730469 175.910156 281.003906 C 175.570312 282.285156 175.015625 283.585938 174.425781 285.070312 C 175.734375 284.5625 176.882812 283.550781 177.730469 282.167969 C 178.578125 280.785156 179.0625 278.976562 179.015625 277.195312 C 178.976562 275.40625 178.464844 273.71875 177.6875 272.34375 C 176.902344 270.96875 175.886719 269.820312 174.605469 269.175781 " fill-opacity="1" fill-rule="nonzero"/></g><path fill="#c3633a" d="M 219.226562 194.78125 C 219.226562 194.78125 257.308594 192.882812 275.515625 171.699219 C 292.539062 151.894531 308.007812 141.261719 327.105469 143.273438 C 364.773438 147.226562 370.992188 181.738281 351.226562 213.175781 C 343.375 225.667969 311.027344 247.40625 287.238281 256.769531 C 271.292969 263.046875 235.980469 271.375 215.65625 263.910156 L 219.226562 194.78125 " fill-opacity="1" fill-rule="nonzero"/><path fill="#ffffff" d="M 287.570312 256.769531 C 311.359375 247.40625 343.707031 225.667969 351.566406 213.175781 C 361.359375 197.597656 362.898438 182.019531 359.269531 169.023438 C 348.0625 202.375 311.777344 220.976562 292.265625 238.265625 C 271.492188 256.660156 202.808594 253.316406 202.808594 253.316406 C 197.984375 258.324219 213.960938 264.65625 225.386719 266.359375 C 245.851562 269.105469 273.964844 262.128906 287.570312 256.769531 " fill-opacity="1" fill-rule="nonzero"/><path fill="#4b1615" d="M 327.105469 143.273438 C 308.007812 141.261719 292.539062 151.894531 275.515625 171.699219 C 259.449219 190.394531 227.925781 194.066406 220.726562 194.667969 C 221.90625 196.433594 223.222656 198.25 224.699219 200.132812 C 224.699219 200.132812 288.132812 203.699219 308.679688 186.753906 C 326.964844 171.675781 343.121094 166.144531 362.195312 177.667969 C 363.734375 172.929688 363.207031 167.652344 361.609375 163.671875 C 357.03125 152.265625 344.367188 145.085938 327.105469 143.273438 " fill-opacity="1" fill-rule="nonzero"/><g clip-path="url(#8e38ddd0ca)"><path fill="#c3633a" d="M 250.386719 238.789062 C 246.773438 244.691406 243.683594 252.828125 239.835938 258.6875 C 237.484375 262.269531 231.960938 268.558594 218.222656 268.558594 C 210.359375 268.558594 209.25 281.601562 208.925781 285.113281 C 208.925781 285.113281 233.992188 285.113281 244.019531 285.113281 C 257.757812 285.113281 265.320312 265.347656 268.3125 259.1875 C 271.519531 252.578125 281.546875 232.933594 281.546875 232.933594 C 262.785156 228.921875 255.914062 229.757812 250.386719 238.789062 " fill-opacity="1" fill-rule="nonzero"/></g><g clip-path="url(#1097ab9cc4)"><path fill="#ffffff" d="M 228.628906 285.335938 C 232.726562 285.335938 234.582031 282.34375 232.757812 278.683594 C 232.757812 278.683594 229.988281 268.386719 218 268.386719 C 206.1875 268.386719 203.246094 278.683594 203.246094 278.683594 C 201.417969 282.34375 203.277344 285.335938 207.367188 285.335938 L 228.628906 285.335938 " fill-opacity="1" fill-rule="nonzero"/></g><g clip-path="url(#0ba255b60b)"><path fill="#b8a27c" d="M 213.886719 269.175781 C 213.410156 270.703125 212.980469 272.074219 212.65625 273.410156 C 212.332031 274.75 212.125 276.027344 212.105469 277.265625 C 212.078125 278.511719 212.238281 279.730469 212.585938 281.003906 C 212.929688 282.285156 213.476562 283.585938 214.0625 285.070312 C 212.753906 284.5625 211.613281 283.550781 210.765625 282.167969 C 209.914062 280.785156 209.429688 278.976562 209.480469 277.195312 C 209.511719 275.40625 210.027344 273.71875 210.808594 272.34375 C 211.589844 270.96875 212.609375 269.820312 213.886719 269.175781 " fill-opacity="1" fill-rule="nonzero"/></g><g clip-path="url(#3488f7c56f)"><path fill="#b8a27c" d="M 222.519531 269.175781 C 222.992188 270.703125 223.425781 272.074219 223.746094 273.410156 C 224.074219 274.75 224.273438 276.027344 224.300781 277.265625 C 224.324219 278.511719 224.167969 279.730469 223.816406 281.003906 C 223.472656 282.285156 222.925781 283.585938 222.34375 285.070312 C 223.648438 284.5625 224.792969 283.550781 225.640625 282.167969 C 226.484375 280.785156 226.972656 278.976562 226.921875 277.195312 C 226.890625 275.40625 226.375 273.71875 225.597656 272.34375 C 224.8125 270.96875 223.789062 269.820312 222.519531 269.175781 " fill-opacity="1" fill-rule="nonzero"/></g><path fill="#be512a" d="M 189.292969 195.375 C 189.292969 195.375 183.039062 197.976562 176.835938 202.722656 C 169.828125 208.082031 162.210938 214.496094 158.308594 219.753906 C 154.847656 224.410156 154.035156 227.53125 156.75 231.980469 C 161.484375 239.730469 172.84375 258.667969 178.925781 268.820312 C 181.347656 272.867188 184.621094 273.878906 186.726562 271.160156 C 190.777344 265.917969 196.359375 256.664062 194.351562 247.375 C 191.289062 233.257812 189.292969 195.375 189.292969 195.375 " fill-opacity="1" fill-rule="nonzero"/><path fill="#d77445" d="M 245.558594 218.28125 L 233.964844 192.320312 L 224.546875 186.757812 C 224.546875 186.757812 219.042969 187.25 217.628906 187.773438 C 214.199219 189.035156 208.496094 191.859375 204.949219 192.742188 L 204.953125 192.78125 L 204.945312 192.742188 C 201.402344 193.671875 195.042969 193.949219 191.429688 194.492188 C 189.9375 194.71875 181.582031 198.976562 179.316406 206.335938 C 177.222656 213.128906 181.6875 234.667969 181.6875 234.667969 C 180.535156 239.273438 180.683594 252.941406 189.484375 256.035156 C 203.683594 261.023438 207.964844 266.515625 218.601562 263.789062 L 222.9375 262.679688 L 222.929688 262.644531 L 222.945312 262.679688 L 227.277344 261.566406 C 237.910156 258.839844 239.007812 251.96875 249.042969 240.757812 C 255.265625 233.8125 248.792969 221.769531 245.558594 218.28125 " fill-opacity="1" fill-rule="nonzero"/><path fill="#ffffff" d="M 221.503906 230.089844 L 208.320312 191.605469 C 207.503906 191.90625 205.832031 192.433594 204.976562 192.6875 C 204.164062 192.921875 203.175781 193.210938 201.617188 193.390625 L 208.503906 233.609375 C 200.929688 237.453125 194.945312 244.226562 196.632812 250.796875 C 197.644531 254.722656 205.15625 262.035156 208.828125 263.945312 C 211.757812 264.675781 214.75 264.753906 218.554688 263.777344 L 222.886719 262.667969 L 222.882812 262.632812 L 222.890625 262.667969 L 227.222656 261.554688 C 231.035156 260.574219 233.617188 259.070312 235.828125 257.019531 C 238.121094 253.578125 240.847656 241.921875 239.839844 238 C 238.152344 231.449219 229.878906 229.398438 221.503906 230.089844 " fill-opacity="1" fill-rule="nonzero"/><path fill="#4b1615" d="M 234.640625 217.554688 C 235.230469 219.851562 234.527344 222.019531 233.0625 222.390625 C 231.601562 222.769531 229.941406 221.210938 229.347656 218.914062 C 228.761719 216.613281 229.464844 214.445312 230.925781 214.078125 C 232.382812 213.699219 234.046875 215.257812 234.640625 217.554688 " fill-opacity="1" fill-rule="nonzero"/><path fill="#4b1615" d="M 196.191406 227.414062 C 196.785156 229.710938 196.078125 231.882812 194.621094 232.253906 C 193.15625 232.628906 191.496094 231.070312 190.902344 228.769531 C 190.3125 226.476562 191.019531 224.308594 192.480469 223.933594 C 193.933594 223.558594 195.601562 225.121094 196.191406 227.414062 " fill-opacity="1" fill-rule="nonzero"/><path fill="#be512a" d="M 224.226562 186.796875 C 224.226562 186.796875 224.597656 186.734375 235.941406 186.078125 C 243.34375 185.652344 252.1875 185.839844 261.183594 187.636719 C 266.628906 188.71875 267.820312 195.785156 267.691406 201.054688 C 267.457031 211.140625 267.683594 233.855469 267.808594 243.957031 C 267.84375 247.050781 264.550781 248.847656 260.316406 247.84375 C 253.886719 246.3125 245.359375 242.710938 243.191406 234.277344 C 237.84375 213.488281 236.054688 206.734375 233.140625 195.398438 C 231.890625 190.558594 224.226562 186.796875 224.226562 186.796875 " fill-opacity="1" fill-rule="nonzero"/><path fill="#4b1615" d="M 203.042969 233.824219 C 203 230.714844 207.617188 228.789062 213.628906 227.246094 C 220.898438 225.375 224.574219 225.195312 225.925781 227.953125 C 227.515625 231.207031 222.171875 238.863281 216.527344 240.308594 C 211.9375 241.488281 203.085938 237.59375 203.042969 233.824219 " fill-opacity="1" fill-rule="nonzero"/><path fill="#4b1615" d="M 242.367188 237.492188 L 242.203125 237.546875 L 242.199219 237.546875 C 240.941406 239.828125 239.488281 242.019531 237.835938 244.035156 C 237.007812 245.035156 236.128906 245.992188 235.15625 246.835938 C 234.191406 247.679688 233.132812 248.421875 231.992188 248.847656 C 231.710938 248.957031 231.421875 249.042969 231.128906 249.101562 C 230.828125 249.167969 230.519531 249.21875 230.214844 249.25 C 229.601562 249.3125 228.988281 249.308594 228.371094 249.25 C 227.140625 249.132812 225.933594 248.792969 224.777344 248.316406 C 223.628906 247.84375 222.527344 247.230469 221.484375 246.53125 C 220.964844 246.175781 220.457031 245.8125 219.96875 245.421875 C 219.71875 245.226562 219.484375 245.027344 219.246094 244.824219 C 219.019531 244.625 218.777344 244.402344 218.585938 244.214844 C 218.464844 244.09375 218.308594 243.996094 218.125 243.945312 C 218.019531 243.914062 217.285156 239.152344 217.285156 239.152344 L 215.40625 239.632812 C 215.40625 239.632812 216.839844 244.398438 216.757812 244.664062 L 216.75 244.6875 C 216.667969 244.941406 216.566406 245.25 216.457031 245.539062 C 216.351562 245.828125 216.238281 246.117188 216.117188 246.40625 C 215.875 246.980469 215.609375 247.550781 215.320312 248.105469 C 214.746094 249.21875 214.074219 250.28125 213.292969 251.253906 C 212.511719 252.222656 211.617188 253.101562 210.597656 253.789062 C 210.089844 254.136719 209.546875 254.4375 208.984375 254.671875 C 208.699219 254.792969 208.414062 254.894531 208.117188 254.984375 L 207.898438 255.046875 L 207.6875 255.097656 C 207.539062 255.128906 207.390625 255.15625 207.242188 255.175781 C 206.039062 255.339844 204.753906 255.203125 203.507812 254.929688 C 202.257812 254.652344 201.011719 254.242188 199.804688 253.761719 C 197.394531 252.789062 195.066406 251.5625 192.871094 250.171875 L 192.863281 250.167969 L 192.632812 250.210938 L 192.671875 250.441406 C 194.804688 251.980469 197.0625 253.34375 199.46875 254.480469 C 200.675781 255.046875 201.917969 255.546875 203.226562 255.917969 C 204.539062 256.28125 205.917969 256.53125 207.367188 256.417969 C 207.550781 256.402344 207.730469 256.382812 207.910156 256.351562 C 208 256.339844 208.09375 256.324219 208.191406 256.304688 L 208.3125 256.273438 L 208.453125 256.246094 C 208.800781 256.160156 209.144531 256.058594 209.484375 255.9375 C 210.160156 255.699219 210.804688 255.390625 211.410156 255.027344 C 212.636719 254.296875 213.699219 253.359375 214.632812 252.335938 C 215.566406 251.308594 216.367188 250.183594 217.066406 249.015625 C 217.414062 248.429688 217.746094 247.828125 218.042969 247.21875 C 218.117188 247.0625 218.1875 246.902344 218.265625 246.746094 C 218.402344 246.847656 218.539062 246.953125 218.679688 247.050781 C 219.238281 247.441406 219.8125 247.808594 220.402344 248.152344 C 221.582031 248.839844 222.832031 249.4375 224.140625 249.886719 C 225.449219 250.339844 226.832031 250.640625 228.257812 250.691406 C 228.96875 250.710938 229.679688 250.671875 230.382812 250.558594 C 230.738281 250.5 231.089844 250.425781 231.433594 250.328125 C 231.785156 250.234375 232.136719 250.105469 232.460938 249.957031 C 233.78125 249.359375 234.863281 248.476562 235.835938 247.53125 C 236.800781 246.574219 237.648438 245.539062 238.429688 244.464844 C 239.984375 242.308594 241.296875 240.023438 242.421875 237.65625 L 242.367188 237.492188 " fill-opacity="1" fill-rule="nonzero"/><g clip-path="url(#1d52aa39ca)"><path fill="#c3633a" d="M 330.578125 285.335938 C 334.824219 285.335938 341.203125 285.335938 341.203125 285.335938 C 353.53125 284.570312 349.625 274.855469 352.59375 268.652344 C 356.339844 260.839844 361.394531 246.070312 362.417969 239.816406 C 363.054688 235.925781 358.417969 233.601562 359.3125 231.394531 C 374.855469 193.050781 365.410156 161.277344 339.515625 157.375 C 327.101562 155.507812 312.191406 165.441406 309.589844 177.515625 C 306.738281 190.773438 303.671875 222.433594 330.230469 238.539062 C 348.445312 249.589844 336.363281 268.808594 336.363281 268.808594 C 324.855469 268.808594 319.019531 285.335938 330.578125 285.335938 " fill-opacity="1" fill-rule="nonzero"/></g><path fill="#f1ebdf" d="M 326.230469 274.3125 C 326.226562 274.308594 326.21875 274.304688 326.210938 274.296875 C 328.289062 271.273438 331.882812 268.808594 336.324219 268.808594 C 336.324219 268.808594 347.761719 250.601562 331.585938 239.441406 C 331.585938 239.433594 331.589844 239.425781 331.589844 239.417969 C 347.824219 250.574219 336.363281 268.808594 336.363281 268.808594 C 331.914062 268.808594 328.308594 271.28125 326.230469 274.3125 " fill-opacity="1" fill-rule="nonzero"/><path fill="#b16338" d="M 331.585938 239.441406 C 331.136719 239.136719 330.671875 238.835938 330.1875 238.539062 C 328.738281 237.664062 327.375 236.734375 326.097656 235.765625 C 326.105469 235.761719 326.113281 235.757812 326.117188 235.753906 C 327.402344 236.726562 328.769531 237.65625 330.230469 238.539062 C 330.703125 238.828125 331.152344 239.121094 331.589844 239.417969 C 331.589844 239.425781 331.585938 239.433594 331.585938 239.441406 " fill-opacity="1" fill-rule="nonzero"/><path fill="#cc7544" d="M 313.867188 221.507812 C 307.734375 210.066406 307.15625 197.109375 308.070312 187.242188 C 308.082031 187.230469 308.097656 187.21875 308.109375 187.210938 C 307.195312 197.070312 307.769531 210.035156 313.898438 221.484375 C 313.890625 221.492188 313.882812 221.5 313.867188 221.507812 " fill-opacity="1" fill-rule="nonzero"/><path fill="#ffffff" d="M 326.097656 235.765625 C 320.613281 231.621094 316.667969 226.71875 313.867188 221.507812 C 313.882812 221.5 313.890625 221.492188 313.898438 221.484375 C 316.691406 226.699219 320.636719 231.605469 326.117188 235.753906 C 326.113281 235.757812 326.105469 235.761719 326.097656 235.765625 " fill-opacity="1" fill-rule="nonzero"/><path fill="#63221e" d="M 308.070312 187.242188 C 308.417969 183.457031 308.988281 180.128906 309.554688 177.515625 C 310.972656 170.898438 316.101562 164.929688 322.480469 161.191406 C 322.480469 161.195312 322.472656 161.203125 322.472656 161.210938 C 316.113281 164.957031 311.015625 170.914062 309.589844 177.515625 C 309.035156 180.121094 308.464844 183.4375 308.109375 187.210938 C 308.097656 187.21875 308.082031 187.230469 308.070312 187.242188 " fill-opacity="1" fill-rule="nonzero"/><path fill="#cc7544" d="M 335.992188 279.457031 C 333.5 279.457031 330.015625 277.375 326.230469 274.3125 C 328.308594 271.28125 331.914062 268.808594 336.363281 268.808594 C 336.363281 268.808594 347.824219 250.574219 331.589844 239.417969 C 331.152344 239.121094 330.703125 238.828125 330.230469 238.539062 C 328.769531 237.65625 327.402344 236.726562 326.117188 235.753906 C 320.636719 231.605469 316.691406 226.699219 313.898438 221.484375 C 307.769531 210.035156 307.195312 197.070312 308.109375 187.210938 C 308.464844 183.4375 309.035156 180.121094 309.589844 177.515625 C 311.015625 170.914062 316.113281 164.957031 322.472656 161.210938 C 314.265625 182.535156 319.628906 217.304688 336.597656 227.109375 C 355.695312 238.148438 345.15625 270.707031 338.457031 278.398438 C 337.824219 279.125 336.984375 279.457031 335.992188 279.457031 " fill-opacity="1" fill-rule="nonzero"/><g clip-path="url(#de576f3d8e)"><path fill="#ffffff" d="M 345.886719 285.316406 C 349.980469 285.316406 351.835938 282.320312 350.015625 278.664062 C 350.015625 278.664062 347.242188 268.367188 335.257812 268.367188 C 323.441406 268.367188 320.503906 278.664062 320.503906 278.664062 C 318.675781 282.320312 320.53125 285.316406 324.621094 285.316406 L 345.886719 285.316406 " fill-opacity="1" fill-rule="nonzero"/></g><g clip-path="url(#37824ac767)"><path fill="#b8a27c" d="M 331.140625 269.152344 C 330.667969 270.679688 330.234375 272.050781 329.914062 273.390625 C 329.582031 274.730469 329.382812 276.007812 329.359375 277.246094 C 329.335938 278.488281 329.484375 279.707031 329.839844 280.988281 C 330.179688 282.269531 330.734375 283.566406 331.316406 285.050781 C 330.015625 284.542969 328.863281 283.53125 328.019531 282.144531 C 327.171875 280.761719 326.6875 278.957031 326.734375 277.171875 C 326.769531 275.386719 327.285156 273.695312 328.0625 272.316406 C 328.847656 270.949219 329.863281 269.800781 331.140625 269.152344 " fill-opacity="1" fill-rule="nonzero"/></g><g clip-path="url(#a8a22ecf44)"><path fill="#b8a27c" d="M 339.769531 269.152344 C 340.246094 270.679688 340.675781 272.050781 341 273.390625 C 341.328125 274.730469 341.527344 276.007812 341.550781 277.246094 C 341.574219 278.488281 341.425781 279.707031 341.074219 280.988281 C 340.730469 282.269531 340.179688 283.566406 339.59375 285.050781 C 340.902344 284.542969 342.042969 283.53125 342.894531 282.144531 C 343.742188 280.761719 344.222656 278.957031 344.175781 277.171875 C 344.144531 275.386719 343.625 273.695312 342.855469 272.316406 C 342.070312 270.949219 341.039062 269.800781 339.769531 269.152344 " fill-opacity="1" fill-rule="nonzero"/></g><g clip-path="url(#cdbfbff8d7)"><path fill="#e4d8c2" d="M 325.203125 125.878906 C 325.351562 125.941406 329.117188 123.203125 330.039062 121.449219 C 332.210938 117.304688 331.742188 114.945312 331.015625 114.507812 C 321.160156 108.570312 314.039062 89.417969 314.039062 89.417969 C 313.59375 93.878906 303.992188 116.761719 325.203125 125.878906 " fill-opacity="1" fill-rule="nonzero"/></g></svg>