<svg xmlns="http://www.w3.org/2000/svg" xmlns:xlink="http://www.w3.org/1999/xlink" width="500" zoomAndPan="magnify" viewBox="0 0 375 374.999991" height="500" preserveAspectRatio="xMidYMid meet" version="1.0"><defs><clipPath id="ef5a6bb319"><path d="M 1.253906 12.820312 L 358.847656 12.820312 L 358.847656 366.976562 L 1.253906 366.976562 Z M 1.253906 12.820312 " clip-rule="nonzero"/></clipPath><clipPath id="d6e6e839f0"><path d="M 42.226562 107 L 357.355469 107 L 357.355469 366.976562 L 42.226562 366.976562 Z M 42.226562 107 " clip-rule="nonzero"/></clipPath><clipPath id="29ee352070"><path d="M 10 12.226562 L 354 12.226562 L 354 362 L 10 362 Z M 10 12.226562 " clip-rule="nonzero"/></clipPath></defs><g clip-path="url(#ef5a6bb319)"><path fill="#4a4f52" d="M 300.671875 332.277344 C 299.671875 332.152344 298.527344 331.855469 298.09375 330.945312 C 297.753906 330.246094 297.957031 329.410156 298.199219 328.664062 C 300.71875 320.890625 306.757812 314.328125 309.996094 307.003906 C 311.171875 315.871094 312.347656 324.738281 313.523438 333.601562 C 309.394531 332.367188 304.953125 332.84375 300.671875 332.277344 Z M 354.195312 83.441406 C 353.023438 79.664062 351.851562 75.886719 350.679688 72.105469 C 354.242188 61.050781 356.945312 49.664062 355.425781 38.253906 C 355.09375 35.746094 354.519531 33.1875 353.03125 31.15625 C 351.542969 29.125 348.925781 27.738281 346.480469 28.339844 C 344.984375 28.710938 343.757812 29.742188 342.601562 30.75 C 334.257812 37.984375 326.351562 45.710938 318.925781 53.878906 C 313.179688 50.414062 306.894531 47.847656 300.371094 46.292969 C 294.984375 45.003906 289.449219 44.410156 283.921875 44.570312 C 282.65625 42.421875 281.195312 40.375 279.675781 38.417969 C 275.519531 33.046875 270.777344 28.03125 267.660156 21.996094 C 266.484375 19.730469 265.523438 17.289062 263.816406 15.394531 C 262.101562 13.492188 259.371094 12.226562 256.96875 13.109375 C 255.285156 13.722656 254.113281 15.253906 253.191406 16.796875 C 248.46875 24.75 248.160156 34.496094 248.3125 43.753906 C 248.453125 52.457031 248.882812 61.140625 249.605469 69.8125 C 246.0625 74.769531 242.746094 79.875 240.066406 85.332031 C 236.359375 92.894531 233.898438 101.257812 234.101562 109.640625 C 234.125 110.707031 234.191406 111.78125 234.304688 112.847656 C 234.773438 117.273438 236.117188 121.667969 238.269531 125.582031 C 237.15625 126.582031 235.945312 127.523438 234.691406 128.449219 C 229.339844 132.324219 223.046875 135.71875 219.195312 140.941406 C 216.277344 144.894531 214.894531 149.765625 212.386719 153.992188 C 207.339844 162.523438 198.390625 167.617188 189.535156 172.289062 C 188.371094 172.90625 187.203125 173.515625 186.046875 174.125 C 168.074219 183.601562 150.667969 194.816406 137.265625 210.085938 C 127.226562 221.527344 119.988281 235.167969 115.6875 249.722656 C 108.5625 273.703125 109.375 300.167969 118.558594 323.375 C 112.347656 322.9375 106.089844 322.554688 99.820312 322.304688 C 90.417969 321.929688 81.015625 321.84375 71.722656 322.351562 C 68.636719 322.507812 65.566406 322.742188 62.523438 323.042969 C 59.347656 323.351562 56.1875 323.742188 53.050781 324.222656 C 40.445312 326.175781 28.207031 329.582031 16.667969 335.199219 C 15.878906 335.574219 15.097656 335.964844 14.3125 336.371094 C 10.148438 338.523438 5.988281 341.085938 3.414062 345.007812 C 0.84375 348.917969 0.292969 354.519531 3.269531 358.140625 C 5.160156 360.433594 7.800781 361.410156 10.726562 361.644531 C 14.464844 361.953125 18.671875 361.035156 22.363281 360.105469 C 30.570312 358.023438 38.9375 356.609375 47.371094 355.863281 C 51.773438 355.464844 56.1875 355.257812 60.601562 355.234375 C 63.867188 355.203125 67.125 355.285156 70.382812 355.460938 C 75.234375 355.722656 80.0625 356.207031 84.871094 356.914062 C 95.777344 358.515625 106.660156 361.253906 117.664062 360.613281 C 123.636719 360.265625 129.765625 358.695312 134.949219 355.769531 C 138.71875 357.664062 142.382812 359.898438 146.355469 361.292969 C 150.257812 362.660156 154.394531 363.195312 158.5 363.722656 C 162.503906 364.234375 166.511719 364.746094 170.515625 365.257812 C 177.328125 366.132812 184.160156 367.003906 191.023438 367.003906 C 196.964844 367.003906 202.902344 366.339844 208.695312 365.046875 C 212.78125 364.128906 217.015625 362.761719 219.804688 359.628906 C 220.636719 358.679688 221.285156 357.53125 221.691406 356.308594 C 232.195312 357.929688 243.226562 356.21875 252.699219 351.402344 C 256.910156 357.796875 262.105469 364.738281 269.695312 365.550781 C 271.644531 365.761719 273.683594 365.515625 275.390625 364.566406 C 279.277344 362.421875 280.511719 357.363281 280.28125 352.929688 C 280.269531 352.847656 280.269531 352.773438 280.265625 352.691406 C 281.730469 352.960938 283.214844 352.824219 284.46875 352.035156 C 285.785156 351.207031 286.664062 349.785156 288.050781 349.089844 C 289.238281 348.507812 290.632812 348.527344 291.957031 348.574219 C 295.058594 348.664062 298.175781 348.757812 301.28125 348.859375 C 305.042969 348.972656 308.914062 349.066406 312.445312 347.765625 C 313.113281 347.519531 313.773438 347.203125 314.402344 346.839844 C 316.640625 352.257812 319.484375 357.476562 324.355469 360.546875 C 330.472656 364.394531 340.605469 362.292969 341.960938 355.195312 C 342.507812 352.304688 341.523438 349.378906 340.738281 346.539062 C 336.84375 332.382812 338.023438 317.390625 339.234375 302.757812 C 339.785156 296.046875 340.339844 289.339844 340.898438 282.636719 C 341.148438 279.660156 341.386719 276.695312 341.636719 273.730469 C 342.53125 262.929688 343.433594 252.09375 345.765625 241.515625 C 347.746094 232.558594 350.757812 223.714844 350.949219 214.542969 C 351.082031 208.183594 349.84375 201.824219 350.414062 195.488281 C 350.953125 189.40625 353.152344 183.558594 353.714844 177.476562 C 354.320312 170.941406 353.019531 164.433594 351.796875 157.9375 C 350.609375 151.585938 349.496094 145.234375 350.308594 138.871094 C 351.273438 131.320312 354.882812 124.351562 357.0625 117.066406 C 357.703125 114.929688 358.222656 112.765625 358.507812 110.546875 C 359.703125 101.398438 356.933594 92.246094 354.195312 83.441406 " fill-opacity="1" fill-rule="nonzero"/></g><g clip-path="url(#d6e6e839f0)"><path fill="#c0c9cf" d="M 53.050781 324.222656 C 52.644531 324.941406 52.164062 325.625 51.695312 326.257812 C 48.882812 330.070312 46.460938 334.167969 44.476562 338.472656 C 43.421875 340.753906 42.476562 343.199219 42.691406 345.695312 C 43 349.285156 45.597656 352.203125 47.175781 355.4375 C 47.246094 355.578125 47.3125 355.714844 47.371094 355.863281 C 51.773438 355.464844 56.1875 355.257812 60.601562 355.234375 C 59.445312 351.792969 58.25 348.347656 58.191406 344.765625 C 58.066406 337.355469 62.800781 330.285156 62.523438 323.042969 C 59.347656 323.351562 56.1875 323.742188 53.050781 324.222656 Z M 313.523438 333.601562 C 312.347656 324.738281 311.171875 315.871094 309.996094 307.003906 C 306.757812 314.328125 300.71875 320.890625 298.199219 328.664062 C 297.957031 329.410156 297.753906 330.246094 298.09375 330.945312 C 298.527344 331.855469 299.671875 332.152344 300.671875 332.277344 C 304.953125 332.84375 309.394531 332.367188 313.523438 333.601562 Z M 357.0625 117.066406 C 354.882812 124.351562 351.273438 131.320312 350.308594 138.875 C 349.496094 145.234375 350.609375 151.585938 351.796875 157.9375 C 350.550781 160.992188 348.652344 163.890625 346.496094 166.296875 C 340.929688 172.496094 333.625 177.207031 329.261719 184.300781 C 325.289062 190.765625 324.171875 198.917969 326.261719 206.21875 C 327.9375 212.082031 331.511719 217.199219 333.835938 222.835938 C 336.933594 230.351562 337.753906 238.785156 336.160156 246.753906 C 334.683594 254.152344 331.179688 261.253906 331.421875 268.792969 C 331.609375 274.738281 335.625 281.105469 340.898438 282.636719 C 340.339844 289.339844 339.785156 296.046875 339.234375 302.757812 C 338.023438 317.390625 336.84375 332.382812 340.738281 346.539062 C 341.523438 349.378906 342.507812 352.304688 341.960938 355.195312 C 340.605469 362.292969 330.472656 364.394531 324.355469 360.546875 C 319.484375 357.476562 316.640625 352.257812 314.402344 346.839844 C 313.773438 347.203125 313.113281 347.519531 312.445312 347.765625 C 308.914062 349.066406 305.042969 348.972656 301.28125 348.859375 C 298.175781 348.757812 295.058594 348.664062 291.957031 348.574219 C 290.632812 348.527344 289.238281 348.507812 288.050781 349.089844 C 286.664062 349.785156 285.785156 351.207031 284.46875 352.035156 C 283.214844 352.824219 281.730469 352.960938 280.265625 352.691406 C 280.269531 352.773438 280.269531 352.847656 280.28125 352.929688 C 280.511719 357.363281 279.277344 362.421875 275.390625 364.566406 C 273.683594 365.515625 271.644531 365.761719 269.695312 365.550781 C 262.105469 364.738281 256.910156 357.796875 252.699219 351.402344 C 243.226562 356.21875 232.195312 357.929688 221.691406 356.308594 C 221.285156 357.53125 220.636719 358.679688 219.804688 359.628906 C 217.015625 362.761719 212.78125 364.128906 208.695312 365.046875 C 202.902344 366.339844 196.964844 367.003906 191.023438 367.003906 C 184.160156 367.003906 177.328125 366.132812 170.515625 365.257812 C 166.511719 364.746094 162.503906 364.234375 158.5 363.722656 C 154.394531 363.195312 150.257812 362.660156 146.355469 361.292969 C 142.382812 359.898438 138.71875 357.664062 134.949219 355.769531 C 129.765625 358.695312 123.636719 360.265625 117.664062 360.613281 C 106.660156 361.253906 95.777344 358.515625 84.871094 356.914062 C 80.0625 356.207031 75.234375 355.722656 70.382812 355.460938 C 70.945312 353.132812 71.035156 350.695312 70.617188 348.347656 C 72.214844 348.90625 73.78125 349.746094 75.375 350.355469 C 78.136719 351.402344 81.890625 351.417969 83.335938 348.84375 C 84.085938 347.488281 83.96875 345.773438 84.777344 344.445312 C 86.800781 341.144531 92.089844 343.054688 95.597656 341.382812 C 98.800781 339.859375 99.703125 335.765625 99.933594 332.21875 C 100.144531 328.914062 100.109375 325.601562 99.820312 322.304688 C 106.089844 322.554688 112.347656 322.9375 118.558594 323.375 C 109.375 300.167969 108.5625 273.703125 115.6875 249.722656 C 120.109375 254.441406 125.675781 258.171875 131.371094 261.355469 C 138.675781 265.441406 146.78125 268.898438 155.121094 268.25 C 163.472656 267.605469 171.894531 261.6875 172.898438 253.378906 C 173.445312 248.835938 171.800781 244.347656 171.03125 239.832031 C 170.261719 235.316406 170.695312 230.007812 174.28125 227.164062 C 176.914062 225.078125 180.277344 224.964844 183.726562 225.285156 C 185.722656 225.464844 187.746094 225.796875 189.671875 225.96875 C 201.59375 227.050781 213.878906 220.691406 219.886719 210.335938 C 222.355469 206.101562 225.875 200.347656 230.441406 202.117188 C 233.28125 203.214844 234.277344 206.785156 236.691406 208.640625 C 240.25 211.375 245.820312 209.304688 248.230469 205.519531 C 250.632812 201.730469 250.6875 196.945312 250.394531 192.46875 C 249.675781 181.210938 247.28125 170.0625 243.332031 159.496094 C 239.542969 149.371094 234.230469 139.007812 234.691406 128.449219 C 235.945312 127.523438 237.15625 126.582031 238.269531 125.582031 C 236.117188 121.667969 234.773438 117.273438 234.304688 112.847656 C 234.191406 111.78125 234.125 110.707031 234.101562 109.640625 C 237.234375 108.535156 240.21875 107.804688 242.429688 109.980469 C 244.867188 112.386719 243.902344 116.472656 244.875 119.765625 C 246.367188 124.835938 252.546875 127.273438 257.757812 126.398438 C 262.972656 125.53125 267.402344 122.234375 271.613281 119.035156 C 275.921875 115.75 280.488281 112.070312 282.980469 107.425781 C 292.464844 108.941406 301.425781 113.804688 307.773438 121.035156 C 312 125.84375 316.277344 132.226562 322.664062 131.964844 C 329.535156 131.683594 333.382812 123.535156 333.175781 116.65625 C 333.136719 115.601562 333.054688 114.511719 333.378906 113.5 C 334.066406 111.382812 336.492188 110.203125 338.730469 110.25 C 340.96875 110.296875 343.058594 111.289062 345.066406 112.285156 C 348.917969 114.195312 352.90625 116.226562 357.0625 117.066406 " fill-opacity="1" fill-rule="nonzero"/></g><g clip-path="url(#29ee352070)"><path fill="#7e8481" d="M 16.667969 335.199219 C 16.914062 340.195312 18.15625 345.589844 16.683594 350.3125 C 15.636719 353.675781 13.273438 356.445312 11.636719 359.554688 C 11.289062 360.214844 10.972656 360.917969 10.726562 361.644531 C 14.464844 361.953125 18.671875 361.035156 22.363281 360.105469 C 30.570312 358.023438 38.9375 356.609375 47.371094 355.863281 C 47.3125 355.714844 47.246094 355.578125 47.175781 355.4375 C 45.597656 352.203125 43 349.285156 42.691406 345.695312 C 42.476562 343.199219 43.421875 340.753906 44.476562 338.472656 C 46.460938 334.167969 48.882812 330.070312 51.695312 326.257812 C 52.164062 325.625 52.644531 324.941406 53.050781 324.222656 C 40.445312 326.175781 28.207031 329.582031 16.667969 335.199219 Z M 62.523438 323.042969 C 62.800781 330.285156 58.066406 337.355469 58.191406 344.765625 C 58.25 348.347656 59.445312 351.792969 60.601562 355.234375 C 63.867188 355.203125 67.125 355.285156 70.382812 355.460938 C 70.945312 353.132812 71.035156 350.695312 70.617188 348.347656 C 70.464844 347.488281 70.246094 346.636719 69.953125 345.808594 C 69.523438 344.597656 68.960938 343.410156 68.863281 342.128906 C 68.523438 337.710938 73.625 334.828125 74.925781 330.585938 C 75.855469 327.554688 74.371094 324.03125 71.722656 322.351562 C 68.636719 322.507812 65.566406 322.742188 62.523438 323.042969 Z M 189.535156 172.289062 C 188.371094 172.90625 187.203125 173.515625 186.046875 174.125 C 168.074219 183.601562 150.667969 194.816406 137.265625 210.085938 C 127.226562 221.527344 119.988281 235.167969 115.6875 249.722656 C 120.109375 254.441406 125.675781 258.171875 131.371094 261.355469 C 138.675781 265.441406 146.78125 268.898438 155.121094 268.25 C 163.472656 267.605469 171.894531 261.6875 172.898438 253.378906 C 173.445312 248.835938 171.800781 244.347656 171.03125 239.832031 C 170.261719 235.316406 170.695312 230.007812 174.28125 227.164062 C 176.914062 225.078125 180.277344 224.964844 183.726562 225.285156 C 183.382812 222.679688 184.46875 219.566406 186.089844 217.335938 C 188.65625 213.820312 192.320312 210.683594 192.816406 206.351562 C 193.183594 203.132812 191.671875 200.03125 190.542969 196.984375 C 187.652344 189.128906 187.339844 180.367188 189.535156 172.289062 Z M 283.921875 44.570312 C 282.65625 42.421875 281.195312 40.375 279.675781 38.417969 C 275.519531 33.046875 270.777344 28.03125 267.660156 21.996094 C 266.484375 19.730469 265.523438 17.289062 263.816406 15.394531 C 262.101562 13.492188 259.371094 12.226562 256.96875 13.109375 C 255.285156 13.722656 254.113281 15.253906 253.191406 16.796875 C 248.46875 24.75 248.160156 34.496094 248.3125 43.753906 C 248.453125 52.457031 248.882812 61.140625 249.605469 69.8125 C 246.0625 74.769531 242.746094 79.875 240.066406 85.332031 C 236.359375 92.894531 233.898438 101.257812 234.101562 109.640625 C 237.234375 108.535156 240.21875 107.804688 242.429688 109.980469 C 244.867188 112.386719 243.902344 116.472656 244.875 119.765625 C 246.367188 124.835938 252.546875 127.273438 257.757812 126.398438 C 262.972656 125.53125 267.402344 122.234375 271.613281 119.035156 C 275.921875 115.75 280.488281 112.070312 282.980469 107.425781 C 283.832031 105.855469 284.4375 104.175781 284.71875 102.363281 C 285.410156 97.929688 283.980469 93.429688 284.230469 88.941406 C 284.6875 80.582031 290.746094 73.777344 294.722656 66.402344 C 298.046875 60.222656 299.972656 53.296875 300.371094 46.292969 C 294.984375 45.003906 289.449219 44.410156 283.921875 44.570312 Z M 351.796875 157.9375 C 353.019531 164.433594 354.320312 170.941406 353.714844 177.476562 C 353.152344 183.558594 350.953125 189.40625 350.414062 195.488281 C 349.84375 201.824219 351.082031 208.183594 350.949219 214.542969 C 350.757812 223.714844 347.746094 232.558594 345.765625 241.515625 C 343.433594 252.09375 342.53125 262.929688 341.636719 273.730469 C 341.386719 276.695312 341.148438 279.660156 340.898438 282.636719 C 335.625 281.105469 331.609375 274.738281 331.421875 268.792969 C 331.179688 261.253906 334.683594 254.152344 336.160156 246.753906 C 337.753906 238.785156 336.933594 230.351562 333.835938 222.835938 C 331.511719 217.199219 327.9375 212.082031 326.261719 206.21875 C 324.171875 198.917969 325.289062 190.765625 329.261719 184.300781 C 333.625 177.207031 340.929688 172.496094 346.496094 166.296875 C 348.652344 163.890625 350.550781 160.992188 351.796875 157.9375 " fill-opacity="1" fill-rule="nonzero"/></g><path fill="#4a4f52" d="M 14.3125 336.371094 C 10.148438 338.523438 5.988281 341.085938 3.414062 345.007812 C 0.84375 348.917969 0.292969 354.519531 3.269531 358.140625 C 5.160156 360.433594 7.800781 361.410156 10.726562 361.644531 C 10.972656 360.917969 11.289062 360.214844 11.636719 359.554688 C 13.273438 356.445312 15.636719 353.675781 16.683594 350.3125 C 18.15625 345.589844 16.914062 340.195312 16.667969 335.199219 C 15.878906 335.574219 15.097656 335.964844 14.3125 336.371094 Z M 71.722656 322.351562 C 74.371094 324.03125 75.855469 327.554688 74.925781 330.585938 C 73.625 334.828125 68.523438 337.710938 68.863281 342.128906 C 68.960938 343.410156 69.523438 344.597656 69.953125 345.808594 C 70.246094 346.636719 70.464844 347.488281 70.617188 348.347656 C 72.214844 348.90625 73.78125 349.746094 75.375 350.355469 C 78.136719 351.402344 81.890625 351.417969 83.335938 348.84375 C 84.085938 347.488281 83.96875 345.773438 84.777344 344.445312 C 86.800781 341.144531 92.089844 343.054688 95.597656 341.382812 C 98.800781 339.859375 99.703125 335.765625 99.933594 332.21875 C 100.144531 328.914062 100.109375 325.601562 99.820312 322.304688 C 90.417969 321.929688 81.015625 321.84375 71.722656 322.351562 Z M 243.332031 159.496094 C 239.542969 149.371094 234.230469 139.007812 234.691406 128.449219 C 229.339844 132.324219 223.046875 135.71875 219.195312 140.941406 C 216.277344 144.894531 214.894531 149.765625 212.386719 153.992188 C 207.339844 162.523438 198.390625 167.617188 189.535156 172.289062 C 187.339844 180.367188 187.652344 189.128906 190.542969 196.984375 C 191.671875 200.03125 193.183594 203.132812 192.816406 206.351562 C 192.320312 210.683594 188.65625 213.820312 186.089844 217.335938 C 184.46875 219.566406 183.382812 222.679688 183.726562 225.285156 C 185.722656 225.464844 187.746094 225.796875 189.671875 225.96875 C 201.59375 227.050781 213.878906 220.691406 219.886719 210.335938 C 222.355469 206.101562 225.875 200.347656 230.441406 202.117188 C 233.28125 203.214844 234.277344 206.785156 236.691406 208.640625 C 240.25 211.375 245.820312 209.304688 248.230469 205.519531 C 250.632812 201.730469 250.6875 196.945312 250.394531 192.46875 C 249.675781 181.210938 247.28125 170.0625 243.332031 159.496094 Z M 354.195312 83.441406 C 356.933594 92.246094 359.703125 101.398438 358.507812 110.546875 C 358.222656 112.765625 357.703125 114.929688 357.0625 117.066406 C 352.90625 116.226562 348.917969 114.195312 345.066406 112.285156 C 343.058594 111.289062 340.96875 110.296875 338.730469 110.25 C 336.492188 110.203125 334.066406 111.382812 333.378906 113.5 C 333.054688 114.511719 333.136719 115.601562 333.175781 116.65625 C 333.382812 123.535156 329.535156 131.683594 322.664062 131.964844 C 316.277344 132.226562 312 125.84375 307.773438 121.035156 C 301.425781 113.804688 292.464844 108.941406 282.980469 107.425781 C 283.832031 105.855469 284.4375 104.175781 284.71875 102.363281 C 285.410156 97.929688 283.980469 93.429688 284.230469 88.941406 C 284.6875 80.582031 290.746094 73.777344 294.722656 66.402344 C 298.046875 60.222656 299.972656 53.296875 300.371094 46.292969 C 306.894531 47.847656 313.179688 50.414062 318.925781 53.878906 C 326.351562 45.710938 334.257812 37.984375 342.601562 30.75 C 343.757812 29.742188 344.984375 28.710938 346.480469 28.339844 C 348.925781 27.738281 351.542969 29.125 353.03125 31.15625 C 354.519531 33.1875 355.09375 35.746094 355.421875 38.253906 C 356.945312 49.664062 354.242188 61.050781 350.679688 72.105469 C 351.851562 75.886719 353.023438 79.664062 354.195312 83.441406 " fill-opacity="1" fill-rule="nonzero"/><path fill="#7e8481" d="M 347.324219 65.835938 C 349.066406 60.800781 350.226562 55.578125 350.773438 50.28125 C 350.933594 48.730469 351.039062 47.132812 350.601562 45.644531 C 350.15625 44.148438 349.066406 42.753906 347.554688 42.371094 C 345.019531 41.738281 342.761719 43.996094 341.132812 46.035156 C 338.230469 49.65625 335.324219 53.261719 332.421875 56.875 C 330.886719 58.777344 331.503906 61.605469 333.6875 62.710938 C 336.363281 64.0625 338.898438 65.695312 341.238281 67.574219 C 343.335938 69.253906 346.445312 68.382812 347.324219 65.835938 Z M 267.949219 52.289062 C 265.402344 53.855469 262.988281 55.640625 260.738281 57.601562 C 258.347656 59.695312 254.628906 58.175781 254.367188 55.007812 C 253.878906 48.957031 253.808594 42.867188 254.171875 36.800781 C 254.316406 34.496094 254.945312 31.660156 257.1875 31.125 C 259.445312 30.582031 261.292969 32.859375 262.476562 34.851562 C 264.882812 38.921875 267.167969 43.070312 269.3125 47.285156 C 270.214844 49.054688 269.644531 51.242188 267.949219 52.289062 " fill-opacity="1" fill-rule="nonzero"/><path fill="#7e8481" d="M 326.546875 78.75 C 326.558594 81.917969 321.957031 81.195312 316.289062 81.214844 C 310.617188 81.234375 306.023438 81.996094 306.011719 78.828125 C 306 75.65625 310.589844 73.070312 316.257812 73.046875 C 321.929688 73.027344 326.535156 75.578125 326.546875 78.75 " fill-opacity="1" fill-rule="nonzero"/><path fill="#4a4f52" d="M 273.964844 78.785156 C 273.964844 81.957031 269.367188 81.214844 263.695312 81.214844 C 258.023438 81.214844 253.429688 81.957031 253.429688 78.785156 C 253.429688 75.617188 258.023438 73.046875 263.695312 73.046875 C 269.367188 73.046875 273.964844 75.617188 273.964844 78.785156 " fill-opacity="1" fill-rule="nonzero"/><path fill="#000000" d="M 334.082031 138.382812 C 336.371094 136.941406 334.339844 134.183594 332.222656 135.5 C 317.625 144.574219 301.460938 154.113281 283.566406 151.539062 C 274.894531 150.289062 266.851562 146.5 259.671875 141.585938 C 255.800781 138.933594 252.210938 135.929688 248.695312 132.820312 C 248.636719 132.769531 248.578125 132.714844 248.519531 132.65625 C 250.589844 130.820312 252.714844 129.042969 254.890625 127.335938 C 258.582031 124.4375 262.902344 121.988281 266.292969 118.757812 C 266.972656 118.113281 265.960938 117.4375 265.316406 117.664062 C 260.4375 119.398438 255.902344 122.96875 251.835938 126.109375 C 249.960938 127.558594 248.140625 129.078125 246.363281 130.648438 C 244.136719 128.511719 241.921875 126.304688 239.371094 124.636719 C 239.007812 124.398438 237.910156 124.660156 238.273438 125.257812 C 239.859375 127.890625 242.097656 130.242188 244.371094 132.460938 C 243.035156 133.699219 241.710938 134.957031 240.433594 136.253906 C 232.957031 143.804688 226.542969 152.273438 221.285156 161.503906 C 220.425781 163.015625 223.214844 163.480469 223.964844 162.246094 C 229.375 153.335938 235.78125 145.039062 243.167969 137.679688 C 244.25 136.601562 245.355469 135.550781 246.480469 134.511719 C 246.757812 134.78125 247.039062 135.050781 247.308594 135.316406 C 250.851562 138.792969 254.664062 142.011719 258.734375 144.851562 C 265.890625 149.84375 274.179688 153.527344 282.84375 154.8125 C 301.664062 157.59375 318.738281 148.054688 334.082031 138.382812 Z M 306.683594 121.128906 C 305.808594 121.320312 306.171875 122.488281 307.011719 122.363281 C 317.515625 120.726562 327.941406 123.804688 336.878906 129.304688 C 345.75 134.761719 352.777344 142.339844 360.847656 148.808594 C 361.601562 149.414062 363.164062 148.453125 362.410156 147.550781 C 349.242188 131.75 328.359375 116.277344 306.683594 121.128906 Z M 373.355469 128.558594 C 355.992188 112.34375 330.328125 107.59375 307.945312 114.9375 C 306.402344 115.449219 307.503906 117.117188 308.855469 116.726562 C 330.277344 110.535156 353.816406 116.238281 370.933594 130.277344 C 372.105469 131.238281 374.734375 129.847656 373.355469 128.558594 Z M 195.871094 138.707031 C 215.234375 123.117188 239.050781 114.8125 263.980469 116.484375 C 265.617188 116.59375 266.191406 114.398438 264.371094 114.230469 C 239.144531 111.929688 212.8125 120.132812 194.042969 137.3125 C 192.941406 138.320312 194.933594 139.457031 195.871094 138.707031 Z M 262.011719 353.671875 C 261.804688 353.570312 261.40625 353.667969 261.351562 353.929688 C 261.121094 355.023438 261.589844 356.25 261.460938 357.398438 C 261.332031 358.566406 260.472656 359.726562 260.796875 360.855469 C 260.921875 361.296875 261.675781 361.40625 262.023438 361.257812 C 264.59375 360.167969 264.488281 354.871094 262.011719 353.671875 Z M 324.726562 351.722656 C 325.792969 354.84375 325.375 357.683594 325.273438 360.878906 C 325.242188 361.839844 326.957031 361.742188 327.28125 361.066406 C 328.78125 357.925781 327.949219 354.128906 326.390625 351.175781 C 325.972656 350.382812 324.402344 350.773438 324.726562 351.722656 Z M 334.9375 347.363281 C 334.316406 346.789062 332.785156 347.386719 333.488281 348.230469 C 334.910156 349.9375 335.859375 351.839844 336.382812 354 C 336.785156 355.65625 336.636719 357.503906 337.375 359.046875 C 337.683594 359.6875 338.777344 359.632812 339.109375 359.042969 C 341.242188 355.21875 337.691406 349.894531 334.9375 347.363281 Z M 313.882812 332.882812 C 313.863281 332.539062 313.203125 332.492188 313.152344 332.832031 C 312.476562 337.457031 312.046875 343.984375 314.761719 348.046875 C 315.25 348.777344 316.867188 348.671875 316.769531 347.582031 C 316.550781 345.109375 315.40625 342.738281 314.882812 340.296875 C 314.363281 337.855469 314.039062 335.367188 313.882812 332.882812 Z M 271.128906 355.085938 C 272.710938 357.921875 272.761719 360.765625 272.488281 363.925781 C 272.402344 364.898438 274.011719 365.195312 274.371094 364.328125 C 275.757812 361.019531 274.949219 357.367188 273.046875 354.414062 C 272.5 353.5625 270.558594 354.0625 271.128906 355.085938 Z M 204.128906 354.285156 C 203.027344 354.066406 202.257812 355.589844 203.476562 356.035156 C 207.132812 357.351562 209.128906 360.402344 210.714844 363.757812 C 211.28125 364.964844 213.578125 364.335938 213.433594 363 C 212.925781 358.289062 208.476562 355.140625 204.128906 354.285156 Z M 306.867188 106.914062 C 308.976562 103.703125 310.914062 100.570312 314.359375 98.613281 C 318.476562 96.273438 322.710938 96.738281 327.148438 97.574219 C 328.050781 97.746094 329.160156 96.730469 328.125 96.046875 C 319.804688 90.601562 307.039062 97.382812 305.082031 106.648438 C 304.863281 107.699219 306.484375 107.492188 306.867188 106.914062 Z M 266.785156 125.140625 C 266.117188 127.417969 268.699219 129.101562 270.585938 129.832031 C 273.023438 130.769531 275.671875 130.605469 278.089844 129.695312 C 281.101562 128.558594 283.488281 126.402344 285.277344 123.78125 C 286.988281 126.707031 289.660156 129.089844 292.847656 130.113281 C 296.824219 131.386719 302.441406 130.664062 304.34375 126.46875 C 304.578125 125.953125 303.902344 125.585938 303.480469 125.867188 C 299.773438 128.355469 295.539062 128.425781 291.980469 125.589844 C 289.980469 124 288.6875 121.914062 287.414062 119.800781 C 287.527344 119.535156 287.628906 119.269531 287.734375 119 L 290.152344 117.832031 C 295.757812 115.117188 293.828125 106.679688 287.597656 106.679688 L 282.109375 106.679688 C 275.882812 106.679688 273.949219 115.117188 279.558594 117.832031 L 282.300781 119.160156 C 282.71875 119.359375 283.152344 119.507812 283.59375 119.605469 C 282.394531 121.839844 281.042969 123.96875 279.027344 125.53125 C 276.773438 127.28125 274.171875 128.023438 271.425781 127.140625 C 269.871094 126.640625 268.820312 125.449219 267.285156 124.957031 C 267.109375 124.902344 266.851562 124.929688 266.785156 125.140625 Z M 259.355469 111.828125 C 262.695312 111.828125 265.402344 107.050781 265.402344 101.15625 C 265.402344 98.695312 264.921875 96.433594 264.132812 94.628906 C 265.660156 95.5625 266.75 96.886719 268.078125 98.132812 C 268.609375 98.628906 270.046875 98.464844 269.910156 97.507812 C 269.003906 91.261719 259.550781 88.195312 254.792969 91.867188 C 253.949219 92.519531 254.332031 93.347656 255.09375 93.597656 C 253.996094 95.53125 253.316406 98.203125 253.316406 101.15625 C 253.316406 107.050781 256.019531 111.828125 259.355469 111.828125 Z M 197.734375 334.742188 C 185.691406 330.960938 161.429688 331.390625 159.660156 314.792969 C 159.589844 314.113281 158.453125 314.234375 158.40625 314.882812 C 157.4375 329.566406 176.117188 333.160156 186.832031 335.695312 C 193.589844 337.296875 200.46875 339.117188 206.140625 343.316406 C 212.128906 347.742188 215.828125 354.285156 218.386719 361.160156 C 218.988281 362.78125 221.851562 362.34375 221.667969 360.523438 C 220.375 347.535156 209.558594 338.449219 197.734375 334.742188 Z M 296.84375 331.03125 C 294.445312 334.492188 292.667969 338.320312 290.128906 341.703125 C 287.445312 345.277344 284.265625 348.355469 280.863281 351.222656 C 280.714844 343.246094 279.890625 335.261719 279.679688 327.28125 C 279.429688 317.71875 279.378906 308.148438 279.53125 298.582031 C 279.664062 290.351562 279.652344 282.015625 280.371094 273.808594 C 280.640625 270.695312 281.09375 267.546875 282.03125 264.5625 C 283.265625 260.652344 285.613281 257.894531 287.816406 254.542969 C 288.0625 254.167969 287.46875 253.914062 287.1875 254.085938 C 281.730469 257.4375 279.109375 264.484375 278.105469 270.511719 C 276.699219 278.9375 276.851562 287.746094 276.667969 296.265625 C 276.472656 305.324219 276.457031 314.386719 276.617188 323.445312 C 276.789062 333.296875 276.5625 343.4375 277.710938 353.226562 C 277.851562 354.421875 279.753906 354.484375 280.542969 353.738281 C 280.683594 353.722656 280.816406 353.683594 280.925781 353.617188 C 288.46875 349.078125 297.46875 340.574219 298.980469 331.453125 C 299.191406 330.207031 297.359375 330.289062 296.84375 331.03125 Z M 312.792969 268.886719 C 316.683594 260.359375 326.328125 254.738281 327 244.785156 C 327.046875 244.101562 325.808594 244.191406 325.644531 244.75 C 322.496094 255.386719 311.441406 260.902344 308.078125 271.480469 C 306.289062 277.101562 306.253906 283.066406 306.445312 288.90625 C 306.550781 292.164062 306.710938 295.414062 306.847656 298.667969 C 306.996094 302.136719 306.78125 305.808594 307.546875 309.203125 C 307.910156 310.832031 310.757812 310.453125 310.949219 308.898438 C 311.789062 302.035156 310.414062 294.589844 310.191406 287.664062 C 309.984375 281.34375 310.121094 274.742188 312.792969 268.886719 Z M 238.417969 281.667969 C 237.476562 270.335938 237.570312 259.4375 232.523438 248.980469 C 229.769531 243.265625 226.613281 237.890625 224.789062 231.769531 C 223.0625 225.972656 222.289062 219.984375 222.25 213.945312 C 222.242188 213.417969 221.214844 213.394531 221.148438 213.894531 C 219.730469 224.941406 222.117188 235.351562 226.957031 245.285156 C 229.75 251.015625 232.34375 256.507812 233.367188 262.867188 C 234.332031 268.867188 234.367188 274.980469 234.828125 281.03125 C 236.671875 305.070312 242.191406 329.664062 252.027344 351.742188 C 252.71875 353.289062 256.21875 352.203125 255.5625 350.554688 C 246.6875 328.265625 240.414062 305.664062 238.417969 281.667969 Z M 131.671875 348.558594 C 132.121094 349.679688 130.386719 350.238281 129.691406 349.527344 C 122.804688 342.484375 118.882812 329.671875 119.675781 319.980469 C 119.761719 318.929688 121.566406 319.03125 121.792969 319.949219 C 123.023438 324.910156 123.890625 329.933594 125.539062 334.792969 C 127.175781 339.601562 129.796875 343.875 131.671875 348.558594 " fill-opacity="1" fill-rule="nonzero"/></svg>