<svg xmlns="http://www.w3.org/2000/svg" xmlns:xlink="http://www.w3.org/1999/xlink" width="736" zoomAndPan="magnify" viewBox="0 0 552 434.999989" height="580" preserveAspectRatio="xMidYMid meet" version="1.0"><defs><g/><clipPath id="cc7528f5c1"><path d="M 341.261719 94.105469 L 451.855469 94.105469 L 451.855469 204.695312 L 341.261719 204.695312 Z M 341.261719 94.105469 " clip-rule="nonzero"/></clipPath><clipPath id="ce0828885e"><path d="M 326.3125 116.269531 L 436.902344 116.269531 L 436.902344 219.609375 L 326.3125 219.609375 Z M 326.3125 116.269531 " clip-rule="nonzero"/></clipPath></defs><g clip-path="url(#cc7528f5c1)"><path fill="#3d5666" d="M 396.558594 94.105469 C 366.019531 94.105469 341.261719 118.859375 341.261719 149.398438 C 341.261719 179.9375 366.019531 204.695312 396.558594 204.695312 C 427.097656 204.695312 451.855469 179.9375 451.855469 149.398438 C 451.855469 118.859375 427.097656 94.105469 396.558594 94.105469 " fill-opacity="1" fill-rule="nonzero"/></g><g clip-path="url(#ce0828885e)"><path fill="#ffffff" d="M 345.179688 116.269531 C 336.414062 116.269531 326.378906 131.277344 326.378906 137.40625 C 326.378906 142.316406 330.5625 146.402344 335.378906 148.1875 C 335.636719 147.785156 335.917969 147.386719 336.226562 147.011719 C 335.917969 145.367188 335.78125 143.722656 335.78125 142.105469 C 335.78125 131.628906 341.515625 122.46875 350.023438 117.632812 C 348.613281 116.761719 346.941406 116.269531 345.179688 116.269531 Z M 382.785156 116.269531 C 381.019531 116.269531 379.351562 116.761719 377.941406 117.632812 C 386.449219 122.46875 392.183594 131.628906 392.183594 142.105469 C 392.183594 143.722656 392.046875 145.367188 391.738281 147.011719 C 392.046875 147.386719 392.324219 147.785156 392.585938 148.1875 C 397.402344 146.402344 401.585938 142.316406 401.585938 137.40625 C 401.585938 131.277344 391.550781 116.269531 382.785156 116.269531 Z M 363.980469 118.617188 C 351.007812 118.617188 340.480469 129.140625 340.480469 142.105469 C 340.480469 144.242188 340.785156 146.308594 341.324219 148.28125 C 337.894531 151.875 335.78125 156.710938 335.78125 162.066406 C 335.78125 173.082031 344.734375 182.03125 355.757812 182.03125 L 361.632812 182.03125 L 361.632812 167.257812 C 358.882812 165.710938 356.929688 161.902344 356.929688 160.890625 C 356.929688 159.601562 360.082031 158.542969 363.980469 158.542969 C 367.882812 158.542969 371.03125 159.601562 371.03125 160.890625 C 371.03125 161.902344 369.082031 165.710938 366.332031 167.257812 L 366.332031 182.03125 L 372.207031 182.03125 C 383.230469 182.03125 392.183594 173.082031 392.183594 162.066406 C 392.183594 156.710938 390.070312 151.875 386.640625 148.28125 C 387.179688 146.308594 387.484375 144.242188 387.484375 142.105469 C 387.484375 129.140625 376.957031 118.617188 363.980469 118.617188 Z M 355.757812 144.453125 C 357.707031 144.453125 359.28125 146.027344 359.28125 147.976562 C 359.28125 149.925781 357.707031 151.496094 355.757812 151.496094 C 353.804688 151.496094 352.230469 149.925781 352.230469 147.976562 C 352.230469 146.027344 353.804688 144.453125 355.757812 144.453125 Z M 372.207031 144.453125 C 374.160156 144.453125 375.734375 146.027344 375.734375 147.976562 C 375.734375 149.925781 374.160156 151.496094 372.207031 151.496094 C 370.257812 151.496094 368.683594 149.925781 368.683594 147.976562 C 368.683594 146.027344 370.257812 144.453125 372.207031 144.453125 Z M 427.695312 158.566406 C 427.085938 158.496094 426.453125 158.664062 425.984375 159.0625 L 415.265625 167.609375 C 413.054688 166.878906 408.261719 165.589844 401.585938 165.589844 C 399.777344 165.589844 398.132812 165.683594 396.605469 165.847656 C 394.773438 177.660156 384.523438 186.726562 372.207031 186.726562 L 368.660156 186.726562 C 367.507812 190.367188 366.402344 195.746094 366.332031 203.144531 C 366.332031 203.566406 366.453125 203.988281 366.664062 204.339844 C 367.015625 204.976562 375.875 219.609375 401.585938 219.609375 C 427.296875 219.609375 436.15625 204.976562 436.507812 204.339844 C 436.71875 203.988281 436.839844 203.566406 436.839844 203.144531 C 436.746094 191.566406 434.085938 184.945312 432.605469 182.171875 C 433.476562 180.738281 434.488281 178.367188 434.488281 174.984375 C 434.488281 166.035156 429.480469 159.695312 429.269531 159.4375 C 428.894531 158.945312 428.308594 158.636719 427.695312 158.566406 Z M 393.359375 186.726562 C 395.3125 186.726562 396.886719 188.300781 396.886719 190.25 C 396.886719 192.199219 395.3125 193.773438 393.359375 193.773438 C 391.410156 193.773438 389.835938 192.199219 389.835938 190.25 C 389.835938 188.300781 391.410156 186.726562 393.359375 186.726562 Z M 409.8125 186.726562 C 411.761719 186.726562 413.335938 188.300781 413.335938 190.25 C 413.335938 192.199219 411.761719 193.773438 409.8125 193.773438 C 407.859375 193.773438 406.285156 192.199219 406.285156 190.25 C 406.285156 188.300781 407.859375 186.726562 409.8125 186.726562 Z M 401.585938 196.121094 C 405.488281 196.121094 408.636719 197.179688 408.636719 198.46875 C 408.636719 199.292969 406.78125 201.855469 404.832031 203.664062 C 405.652344 204.554688 406.945312 205.515625 408.636719 205.515625 L 408.636719 210.214844 C 405.441406 210.214844 403.089844 208.617188 401.585938 207.066406 C 400.082031 208.617188 397.730469 210.214844 394.535156 210.214844 L 394.535156 205.515625 C 396.226562 205.515625 397.519531 204.554688 398.339844 203.664062 C 396.390625 201.855469 394.535156 199.292969 394.535156 198.46875 C 394.535156 197.179688 397.683594 196.121094 401.585938 196.121094 Z M 401.585938 196.121094 " fill-opacity="1" fill-rule="nonzero"/></g><g fill="#3d5666" fill-opacity="1"><g transform="translate(116.118797, 221.273885)"><g><path d="M 54.089844 -86.945312 C 45.253906 -86.945312 39.054688 -83.226562 34.714844 -78.730469 L 34.714844 -82.292969 C 34.714844 -84.621094 30.066406 -85.859375 21.542969 -85.859375 L 21.230469 -85.859375 C 12.707031 -85.859375 8.058594 -81.210938 8.214844 -72.6875 C 8.367188 -62.765625 8.523438 -53.160156 8.523438 -42.929688 C 8.523438 -21.851562 8.214844 -2.167969 8.058594 18.597656 C 8.058594 27.121094 12.707031 31.769531 21.230469 31.769531 L 21.542969 31.769531 C 30.066406 31.769531 34.714844 27.121094 34.5625 18.597656 C 34.40625 8.679688 33.941406 -1.085938 32.699219 -10.847656 L 33.628906 -12.554688 C 37.503906 -4.03125 44.945312 1.703125 54.554688 1.703125 C 72.839844 1.703125 87.5625 -13.636719 87.5625 -44.324219 C 87.5625 -76.871094 72.839844 -86.945312 54.089844 -86.945312 Z M 47.425781 -19.21875 C 40.605469 -19.21875 34.871094 -22.316406 34.40625 -32.390625 L 34.25 -32.234375 C 34.25 -35.492188 34.25 -38.746094 34.40625 -42 C 34.5625 -55.636719 34.40625 -57.1875 34.25 -59.046875 C 37.351562 -63.078125 40.914062 -65.09375 46.804688 -65.09375 C 56.722656 -65.09375 62.457031 -59.203125 62.457031 -42.773438 C 62.457031 -23.710938 55.484375 -19.21875 47.425781 -19.21875 Z M 47.425781 -19.21875 "/></g></g></g><g fill="#3d5666" fill-opacity="1"><g transform="translate(201.047448, 221.273885)"><g><path d="M 45.5625 1.550781 C 64.628906 1.550781 76.25 -3.875 79.96875 -15.34375 C 82.292969 -22.316406 76.558594 -26.65625 68.5 -26.65625 C 61.835938 -26.65625 61.21875 -22.316406 55.328125 -18.441406 C 53.160156 -17.203125 49.902344 -16.429688 45.71875 -16.429688 C 37.660156 -16.429688 31.769531 -20.300781 31.152344 -36.265625 L 80.589844 -36.265625 C 81.828125 -36.265625 82.757812 -37.195312 82.914062 -38.746094 C 85.859375 -67.570312 74.390625 -87.097656 45.5625 -87.097656 C 18.753906 -87.097656 5.578125 -72.6875 5.578125 -44.167969 C 5.578125 -13.636719 17.824219 1.550781 45.5625 1.550781 Z M 31.304688 -50.832031 C 30.996094 -63.386719 36.265625 -69.429688 44.324219 -69.429688 C 53.3125 -69.429688 57.03125 -63.230469 56.722656 -50.832031 Z M 31.304688 -50.832031 "/></g></g></g><g fill="#3d5666" fill-opacity="1"><g transform="translate(282.411566, 221.273885)"><g><path d="M 49.128906 -18.753906 C 41.691406 -18.597656 38.433594 -22.78125 38.433594 -31.769531 C 38.433594 -39.828125 38.28125 -48.972656 38.589844 -57.808594 C 38.589844 -60.597656 38.746094 -63.230469 38.746094 -66.023438 L 50.832031 -66.175781 C 58.582031 -66.175781 62.765625 -69.585938 62.765625 -75.941406 C 62.765625 -82.292969 58.117188 -85.703125 49.59375 -85.703125 L 38.746094 -85.703125 L 38.746094 -99.34375 C 38.746094 -107.558594 33.011719 -111.121094 24.332031 -108.332031 C 17.046875 -106.007812 13.484375 -101.203125 13.484375 -93.453125 C 13.484375 -90.820312 13.636719 -88.339844 13.636719 -85.703125 L 7.128906 -85.703125 C 2.945312 -85.703125 0.464844 -82.140625 0.464844 -75.785156 C 0.464844 -69.429688 5.113281 -65.867188 13.636719 -65.867188 L 13.792969 -65.867188 L 13.792969 -57.808594 C 13.792969 -47.890625 13.792969 -37.816406 13.636719 -28.671875 C 13.171875 -6.199219 25.570312 1.859375 44.789062 1.859375 C 48.355469 1.859375 51.917969 1.550781 55.019531 0.929688 C 61.835938 -0.464844 64.472656 -5.578125 63.851562 -12.242188 C 63.230469 -18.597656 58.117188 -19.0625 49.128906 -18.753906 Z M 49.128906 -18.753906 "/></g></g></g><g fill="#7b9d8f" fill-opacity="1"><g transform="translate(220.539857, 305.783029)"><g><path d="M 39.351562 -39.488281 C 39.417969 -39.488281 39.488281 -39.488281 39.558594 -39.488281 C 39.488281 -39.488281 39.417969 -39.488281 39.351562 -39.488281 Z M 14.964844 -13.371094 C 22.792969 5.957031 43.089844 1.59375 52.511719 -1.523438 C 56.878906 -10.253906 64.359375 -34.5 66.992188 -48.496094 C 69.972656 -64.222656 62.210938 -75.167969 45.445312 -68.863281 C 44.476562 -65.261719 41.773438 -49.328125 39.558594 -39.488281 C 38.242188 -33.808594 36.996094 -28.335938 35.75 -22.863281 C 35.539062 -22.863281 35.332031 -22.863281 35.125 -22.863281 C 34.15625 -30.828125 31.800781 -46.210938 28.820312 -60.273438 C 25.5625 -75.859375 6.097656 -70.664062 3.601562 -61.796875 C 6.234375 -47.25 11.292969 -22.515625 14.964844 -13.371094 Z M 14.964844 -13.371094 "/></g></g></g><g fill="#7b9d8f" fill-opacity="1"><g transform="translate(290.710047, 305.783029)"><g><path d="M 3.808594 -16.003906 C 4.363281 -6.582031 7.203125 -1.941406 13.71875 -0.277344 C 18.707031 0.902344 36.789062 0.761719 42.539062 0 C 55.699219 -1.730469 57.5 -13.71875 52.238281 -21.128906 C 44.824219 -21.128906 37.410156 -21.128906 29.996094 -21.128906 C 29.445312 -21.128906 28.890625 -21.128906 28.40625 -21.128906 C 28.40625 -22.585938 28.40625 -23.832031 28.40625 -25.355469 C 34.847656 -25.355469 36.925781 -25.21875 40.460938 -25.355469 C 50.644531 -25.839844 53.828125 -33.878906 49.671875 -43.089844 C 43.785156 -44.960938 32.351562 -44.199219 28.335938 -44.199219 C 28.335938 -45.585938 28.335938 -46.695312 28.335938 -47.800781 C 37.273438 -47.800781 38.867188 -47.800781 42.605469 -47.800781 C 59.304688 -47.800781 57.5 -64.984375 54.9375 -68.65625 C 42.605469 -69.625 16.488281 -69.902344 4.917969 -68.726562 C 3.535156 -57.015625 3.257812 -25.496094 3.808594 -16.003906 Z M 3.808594 -16.003906 "/></g></g></g><g fill="#7b9d8f" fill-opacity="1"><g transform="translate(346.333495, 305.783029)"><g><path d="M 62.28125 -69.140625 C 54.382812 -69.070312 25.355469 -69.488281 16.628906 -68.933594 C 3.464844 -68.101562 2.492188 -51.890625 6.929688 -46.140625 C 11.429688 -45.238281 16.488281 -45.308594 21.128906 -45.65625 C 20.921875 -32.421875 21.546875 -18.082031 22.238281 -14.203125 C 25.285156 1.871094 40.460938 4.15625 46.277344 -2.285156 C 47.59375 -11.777344 48.078125 -32.699219 47.59375 -45.585938 C 47.941406 -45.585938 49.671875 -45.722656 52.097656 -45.863281 C 67.617188 -46.832031 65.953125 -64.292969 62.28125 -69.140625 Z M 62.28125 -69.140625 "/></g></g></g><path stroke-linecap="butt" transform="matrix(0.906479, 0, 0, 0.906479, 72.468533, 235.329008)" fill="none" stroke-linejoin="miter" d="M 205.034533 32.452016 C 205.120718 32.452016 205.176738 32.452016 205.258614 32.452016 C 205.176738 32.452016 205.120718 32.452016 205.034533 32.452016 Z M 178.136171 61.250758 C 186.758988 82.577255 209.14987 77.763819 219.561027 74.320725 C 224.374464 64.693852 232.630994 37.937696 235.544049 22.514876 C 238.814773 5.161512 230.252286 -6.930254 211.752659 0.0378089 C 210.688274 4.01525 207.723507 21.592696 205.258614 32.452016 C 203.802086 38.691815 202.431744 44.737698 201.061401 50.783581 C 200.83732 50.783581 200.613239 50.783581 200.358993 50.783581 C 199.298916 41.992703 196.696127 25.031481 193.421094 9.50093 C 189.835795 -7.684374 168.341237 -1.948757 165.600552 7.820321 C 168.509298 23.885219 174.081163 51.175723 178.136171 61.250758 Z M 243.231758 58.337703 C 243.847981 68.753169 246.985118 73.872562 254.177262 75.691068 C 259.662943 76.979534 279.619097 76.841638 285.970937 76.001334 C 300.467266 74.096644 302.458141 60.858616 296.662195 52.683962 C 288.49185 52.683962 280.317196 52.683962 272.116686 52.683962 C 271.530627 52.683962 270.914404 52.683962 270.380057 52.683962 C 270.380057 51.089538 270.380057 49.719195 270.380057 48.038586 C 277.490325 48.038586 279.756993 48.180792 283.674104 48.038586 C 294.89971 47.478383 298.42468 38.635795 293.835325 28.474574 C 287.341279 26.406133 274.719475 27.246437 270.298181 27.246437 C 270.298181 25.703724 270.298181 24.501442 270.298181 23.268996 C 280.149135 23.268996 281.91162 23.268996 286.026957 23.268996 C 304.444707 23.268996 302.458141 4.321207 299.631271 0.26189 C 286.026957 -0.798186 257.228214 -1.108453 244.464205 0.180014 C 242.925801 13.112085 242.615535 47.870525 243.231758 58.337703 Z M 369.109369 -0.268148 C 360.404676 -0.181963 328.356756 -0.66029 318.729884 -0.0440669 C 304.229245 0.878113 303.139003 18.765826 308.038625 25.087501 C 313.020122 26.095866 318.587678 26.01399 323.711381 25.621848 C 323.4873 40.230219 324.159543 56.04518 324.943827 60.328578 C 328.300736 78.069776 345.037878 80.590689 351.445738 73.48042 C 352.902266 63.013243 353.432304 39.924262 352.902266 25.703724 C 353.294408 25.703724 355.199098 25.565828 357.857907 25.397767 C 374.987191 24.333382 373.164377 5.079636 369.109369 -0.268148 Z M 369.109369 -0.268148 " stroke="#5c6266" stroke-width="4.442571" stroke-opacity="1" stroke-miterlimit="4"/><g fill="#3d5666" fill-opacity="1"><g transform="translate(196.63001, 329.958508)"><g><path d="M 5.46875 0.1875 C 4.59375 0.1875 3.8125 0.078125 3.125 -0.140625 C 2.445312 -0.359375 1.8125 -0.734375 1.21875 -1.265625 C 0.894531 -1.554688 0.734375 -1.875 0.734375 -2.21875 C 0.734375 -2.5 0.832031 -2.742188 1.03125 -2.953125 C 1.238281 -3.171875 1.488281 -3.28125 1.78125 -3.28125 C 2.019531 -3.28125 2.226562 -3.207031 2.40625 -3.0625 C 2.894531 -2.664062 3.367188 -2.375 3.828125 -2.1875 C 4.296875 -2.007812 4.84375 -1.921875 5.46875 -1.921875 C 6.15625 -1.921875 6.742188 -2.070312 7.234375 -2.375 C 7.722656 -2.675781 7.96875 -3.050781 7.96875 -3.5 C 7.96875 -4.050781 7.722656 -4.476562 7.234375 -4.78125 C 6.753906 -5.09375 5.984375 -5.332031 4.921875 -5.5 C 2.265625 -5.882812 0.9375 -7.125 0.9375 -9.21875 C 0.9375 -9.976562 1.132812 -10.640625 1.53125 -11.203125 C 1.9375 -11.773438 2.484375 -12.207031 3.171875 -12.5 C 3.867188 -12.800781 4.644531 -12.953125 5.5 -12.953125 C 6.257812 -12.953125 6.976562 -12.835938 7.65625 -12.609375 C 8.332031 -12.378906 8.894531 -12.078125 9.34375 -11.703125 C 9.695312 -11.421875 9.875 -11.097656 9.875 -10.734375 C 9.875 -10.453125 9.769531 -10.203125 9.5625 -9.984375 C 9.351562 -9.773438 9.109375 -9.671875 8.828125 -9.671875 C 8.648438 -9.671875 8.488281 -9.726562 8.34375 -9.84375 C 8.019531 -10.09375 7.578125 -10.320312 7.015625 -10.53125 C 6.453125 -10.75 5.945312 -10.859375 5.5 -10.859375 C 4.726562 -10.859375 4.128906 -10.710938 3.703125 -10.421875 C 3.285156 -10.140625 3.078125 -9.769531 3.078125 -9.3125 C 3.078125 -8.78125 3.289062 -8.378906 3.71875 -8.109375 C 4.15625 -7.847656 4.835938 -7.632812 5.765625 -7.46875 C 6.816406 -7.28125 7.65625 -7.039062 8.28125 -6.75 C 8.90625 -6.46875 9.375 -6.082031 9.6875 -5.59375 C 10.007812 -5.101562 10.171875 -4.445312 10.171875 -3.625 C 10.171875 -2.863281 9.953125 -2.191406 9.515625 -1.609375 C 9.085938 -1.035156 8.515625 -0.59375 7.796875 -0.28125 C 7.078125 0.03125 6.300781 0.1875 5.46875 0.1875 Z M 5.46875 0.1875 "/></g></g></g><g fill="#3d5666" fill-opacity="1"><g transform="translate(208.999345, 329.958508)"><g><path d="M 11.390625 -1.421875 C 11.453125 -1.265625 11.484375 -1.117188 11.484375 -0.984375 C 11.484375 -0.671875 11.378906 -0.410156 11.171875 -0.203125 C 10.960938 -0.00390625 10.722656 0.09375 10.453125 0.09375 C 10.234375 0.09375 10.035156 0.0234375 9.859375 -0.109375 C 9.679688 -0.242188 9.546875 -0.425781 9.453125 -0.65625 L 8.5 -2.859375 L 3.0625 -2.859375 L 2.109375 -0.640625 C 2.023438 -0.410156 1.894531 -0.226562 1.71875 -0.09375 C 1.539062 0.03125 1.351562 0.09375 1.15625 0.09375 C 0.832031 0.09375 0.585938 0.0078125 0.421875 -0.15625 C 0.265625 -0.332031 0.1875 -0.566406 0.1875 -0.859375 C 0.1875 -0.960938 0.203125 -1.078125 0.234375 -1.203125 L 4.78125 -12.125 C 4.875 -12.363281 5.019531 -12.550781 5.21875 -12.6875 C 5.414062 -12.820312 5.632812 -12.875 5.875 -12.84375 C 6.09375 -12.84375 6.296875 -12.78125 6.484375 -12.65625 C 6.671875 -12.53125 6.8125 -12.351562 6.90625 -12.125 Z M 3.953125 -4.96875 L 7.609375 -4.96875 L 5.765625 -9.234375 Z M 3.953125 -4.96875 "/></g></g></g><g fill="#3d5666" fill-opacity="1"><g transform="translate(222.134878, 329.958508)"><g><path d="M 8.40625 -2.140625 C 8.726562 -2.140625 8.992188 -2.035156 9.203125 -1.828125 C 9.421875 -1.628906 9.53125 -1.375 9.53125 -1.0625 C 9.53125 -0.757812 9.421875 -0.503906 9.203125 -0.296875 C 8.992188 -0.0976562 8.726562 0 8.40625 0 L 2.484375 0 C 2.160156 0 1.894531 -0.101562 1.6875 -0.3125 C 1.476562 -0.53125 1.375 -0.796875 1.375 -1.109375 L 1.375 -11.65625 C 1.375 -11.976562 1.484375 -12.242188 1.703125 -12.453125 C 1.921875 -12.671875 2.195312 -12.78125 2.53125 -12.78125 C 2.84375 -12.78125 3.109375 -12.671875 3.328125 -12.453125 C 3.546875 -12.242188 3.65625 -11.976562 3.65625 -11.65625 L 3.65625 -2.140625 Z M 8.40625 -2.140625 "/></g></g></g><g fill="#3d5666" fill-opacity="1"><g transform="translate(233.865712, 329.958508)"><g><path d="M 10.4375 -12.796875 C 10.75 -12.796875 11.003906 -12.691406 11.203125 -12.484375 C 11.398438 -12.273438 11.5 -12.007812 11.5 -11.6875 L 11.5 -5.078125 C 11.5 -4.066406 11.285156 -3.171875 10.859375 -2.390625 C 10.429688 -1.609375 9.832031 -1 9.0625 -0.5625 C 8.300781 -0.125 7.425781 0.09375 6.4375 0.09375 C 5.457031 0.09375 4.578125 -0.125 3.796875 -0.5625 C 3.023438 -1 2.425781 -1.609375 2 -2.390625 C 1.582031 -3.171875 1.375 -4.066406 1.375 -5.078125 L 1.375 -11.6875 C 1.375 -12 1.484375 -12.257812 1.703125 -12.46875 C 1.921875 -12.6875 2.195312 -12.796875 2.53125 -12.796875 C 2.820312 -12.796875 3.078125 -12.6875 3.296875 -12.46875 C 3.515625 -12.257812 3.625 -12 3.625 -11.6875 L 3.625 -5.078125 C 3.625 -4.492188 3.75 -3.972656 4 -3.515625 C 4.257812 -3.054688 4.601562 -2.703125 5.03125 -2.453125 C 5.46875 -2.210938 5.9375 -2.09375 6.4375 -2.09375 C 6.96875 -2.09375 7.457031 -2.210938 7.90625 -2.453125 C 8.363281 -2.703125 8.726562 -3.054688 9 -3.515625 C 9.28125 -3.972656 9.421875 -4.492188 9.421875 -5.078125 L 9.421875 -11.6875 C 9.421875 -12.007812 9.507812 -12.273438 9.6875 -12.484375 C 9.875 -12.691406 10.125 -12.796875 10.4375 -12.796875 Z M 10.4375 -12.796875 "/></g></g></g><g fill="#3d5666" fill-opacity="1"><g transform="translate(248.205273, 329.958508)"><g><path d="M 6.84375 -12.78125 C 7.988281 -12.78125 8.96875 -12.492188 9.78125 -11.921875 C 10.601562 -11.359375 11.226562 -10.59375 11.65625 -9.625 C 12.09375 -8.65625 12.3125 -7.578125 12.3125 -6.390625 C 12.3125 -5.191406 12.09375 -4.109375 11.65625 -3.140625 C 11.226562 -2.179688 10.601562 -1.414062 9.78125 -0.84375 C 8.96875 -0.28125 7.988281 0 6.84375 0 L 2.484375 0 C 2.160156 0 1.894531 -0.101562 1.6875 -0.3125 C 1.476562 -0.53125 1.375 -0.796875 1.375 -1.109375 L 1.375 -11.65625 C 1.375 -11.976562 1.476562 -12.242188 1.6875 -12.453125 C 1.894531 -12.671875 2.160156 -12.78125 2.484375 -12.78125 Z M 6.65625 -2.09375 C 7.75 -2.09375 8.570312 -2.5 9.125 -3.3125 C 9.675781 -4.125 9.953125 -5.148438 9.953125 -6.390625 C 9.953125 -7.628906 9.671875 -8.648438 9.109375 -9.453125 C 8.554688 -10.265625 7.738281 -10.671875 6.65625 -10.671875 L 3.65625 -10.671875 L 3.65625 -2.09375 Z M 6.65625 -2.09375 "/></g></g></g><g fill="#3d5666" fill-opacity="1"><g transform="translate(262.727261, 329.958508)"><g/></g></g><g fill="#3d5666" fill-opacity="1"><g transform="translate(269.313629, 329.958508)"><g><path d="M 6.640625 -12.78125 C 7.265625 -12.78125 7.851562 -12.59375 8.40625 -12.21875 C 8.96875 -11.84375 9.421875 -11.34375 9.765625 -10.71875 C 10.109375 -10.09375 10.28125 -9.410156 10.28125 -8.671875 C 10.28125 -7.941406 10.109375 -7.257812 9.765625 -6.625 C 9.421875 -5.988281 8.96875 -5.484375 8.40625 -5.109375 C 7.851562 -4.742188 7.265625 -4.5625 6.640625 -4.5625 L 3.46875 -4.5625 L 3.46875 -1.109375 C 3.46875 -0.785156 3.367188 -0.519531 3.171875 -0.3125 C 2.984375 -0.101562 2.726562 0 2.40625 0 C 2.101562 0 1.851562 -0.101562 1.65625 -0.3125 C 1.46875 -0.53125 1.375 -0.796875 1.375 -1.109375 L 1.375 -11.65625 C 1.375 -11.976562 1.476562 -12.242188 1.6875 -12.453125 C 1.894531 -12.671875 2.160156 -12.78125 2.484375 -12.78125 Z M 6.640625 -6.640625 C 6.867188 -6.640625 7.097656 -6.738281 7.328125 -6.9375 C 7.554688 -7.132812 7.738281 -7.382812 7.875 -7.6875 C 8.007812 -8 8.078125 -8.328125 8.078125 -8.671875 C 8.078125 -9.015625 8.007812 -9.335938 7.875 -9.640625 C 7.738281 -9.953125 7.554688 -10.203125 7.328125 -10.390625 C 7.097656 -10.578125 6.867188 -10.671875 6.640625 -10.671875 L 3.46875 -10.671875 L 3.46875 -6.640625 Z M 6.640625 -6.640625 "/></g></g></g><g fill="#3d5666" fill-opacity="1"><g transform="translate(281.792418, 329.958508)"><g><path d="M 11.390625 -1.421875 C 11.453125 -1.265625 11.484375 -1.117188 11.484375 -0.984375 C 11.484375 -0.671875 11.378906 -0.410156 11.171875 -0.203125 C 10.960938 -0.00390625 10.722656 0.09375 10.453125 0.09375 C 10.234375 0.09375 10.035156 0.0234375 9.859375 -0.109375 C 9.679688 -0.242188 9.546875 -0.425781 9.453125 -0.65625 L 8.5 -2.859375 L 3.0625 -2.859375 L 2.109375 -0.640625 C 2.023438 -0.410156 1.894531 -0.226562 1.71875 -0.09375 C 1.539062 0.03125 1.351562 0.09375 1.15625 0.09375 C 0.832031 0.09375 0.585938 0.0078125 0.421875 -0.15625 C 0.265625 -0.332031 0.1875 -0.566406 0.1875 -0.859375 C 0.1875 -0.960938 0.203125 -1.078125 0.234375 -1.203125 L 4.78125 -12.125 C 4.875 -12.363281 5.019531 -12.550781 5.21875 -12.6875 C 5.414062 -12.820312 5.632812 -12.875 5.875 -12.84375 C 6.09375 -12.84375 6.296875 -12.78125 6.484375 -12.65625 C 6.671875 -12.53125 6.8125 -12.351562 6.90625 -12.125 Z M 3.953125 -4.96875 L 7.609375 -4.96875 L 5.765625 -9.234375 Z M 3.953125 -4.96875 "/></g></g></g><g fill="#3d5666" fill-opacity="1"><g transform="translate(294.927953, 329.958508)"><g><path d="M 11.390625 -1.78125 C 11.546875 -1.6875 11.671875 -1.5625 11.765625 -1.40625 C 11.859375 -1.25 11.90625 -1.082031 11.90625 -0.90625 C 11.90625 -0.6875 11.832031 -0.488281 11.6875 -0.3125 C 11.5 -0.09375 11.21875 0.015625 10.84375 0.015625 C 10.550781 0.015625 10.28125 -0.0507812 10.03125 -0.1875 C 9.15625 -0.6875 8.71875 -1.703125 8.71875 -3.234375 C 8.71875 -3.671875 8.570312 -4.015625 8.28125 -4.265625 C 8 -4.523438 7.59375 -4.65625 7.0625 -4.65625 L 3.65625 -4.65625 L 3.65625 -1.109375 C 3.65625 -0.785156 3.566406 -0.519531 3.390625 -0.3125 C 3.210938 -0.101562 2.976562 0 2.6875 0 C 2.332031 0 2.023438 -0.101562 1.765625 -0.3125 C 1.503906 -0.53125 1.375 -0.796875 1.375 -1.109375 L 1.375 -11.65625 C 1.375 -11.976562 1.476562 -12.242188 1.6875 -12.453125 C 1.894531 -12.671875 2.160156 -12.78125 2.484375 -12.78125 L 7.734375 -12.78125 C 8.367188 -12.78125 8.960938 -12.609375 9.515625 -12.265625 C 10.078125 -11.921875 10.523438 -11.453125 10.859375 -10.859375 C 11.203125 -10.265625 11.375 -9.59375 11.375 -8.84375 C 11.375 -8.238281 11.207031 -7.644531 10.875 -7.0625 C 10.550781 -6.488281 10.125 -6.03125 9.59375 -5.6875 C 10.363281 -5.15625 10.785156 -4.441406 10.859375 -3.546875 C 10.890625 -3.347656 10.90625 -3.15625 10.90625 -2.96875 C 10.957031 -2.59375 11.003906 -2.320312 11.046875 -2.15625 C 11.097656 -2 11.210938 -1.875 11.390625 -1.78125 Z M 7.640625 -6.53125 C 7.859375 -6.53125 8.070312 -6.632812 8.28125 -6.84375 C 8.488281 -7.050781 8.660156 -7.328125 8.796875 -7.671875 C 8.929688 -8.015625 9 -8.390625 9 -8.796875 C 9 -9.140625 8.929688 -9.453125 8.796875 -9.734375 C 8.660156 -10.023438 8.488281 -10.253906 8.28125 -10.421875 C 8.070312 -10.585938 7.859375 -10.671875 7.640625 -10.671875 L 3.65625 -10.671875 L 3.65625 -6.53125 Z M 7.640625 -6.53125 "/></g></g></g><g fill="#3d5666" fill-opacity="1"><g transform="translate(308.939151, 329.958508)"><g><path d="M 11.390625 -1.421875 C 11.453125 -1.265625 11.484375 -1.117188 11.484375 -0.984375 C 11.484375 -0.671875 11.378906 -0.410156 11.171875 -0.203125 C 10.960938 -0.00390625 10.722656 0.09375 10.453125 0.09375 C 10.234375 0.09375 10.035156 0.0234375 9.859375 -0.109375 C 9.679688 -0.242188 9.546875 -0.425781 9.453125 -0.65625 L 8.5 -2.859375 L 3.0625 -2.859375 L 2.109375 -0.640625 C 2.023438 -0.410156 1.894531 -0.226562 1.71875 -0.09375 C 1.539062 0.03125 1.351562 0.09375 1.15625 0.09375 C 0.832031 0.09375 0.585938 0.0078125 0.421875 -0.15625 C 0.265625 -0.332031 0.1875 -0.566406 0.1875 -0.859375 C 0.1875 -0.960938 0.203125 -1.078125 0.234375 -1.203125 L 4.78125 -12.125 C 4.875 -12.363281 5.019531 -12.550781 5.21875 -12.6875 C 5.414062 -12.820312 5.632812 -12.875 5.875 -12.84375 C 6.09375 -12.84375 6.296875 -12.78125 6.484375 -12.65625 C 6.671875 -12.53125 6.8125 -12.351562 6.90625 -12.125 Z M 3.953125 -4.96875 L 7.609375 -4.96875 L 5.765625 -9.234375 Z M 3.953125 -4.96875 "/></g></g></g><g fill="#3d5666" fill-opacity="1"><g transform="translate(322.074687, 329.958508)"><g/></g></g><g fill="#3d5666" fill-opacity="1"><g transform="translate(328.661048, 329.958508)"><g><path d="M 8.40625 -2.140625 C 8.726562 -2.140625 8.992188 -2.035156 9.203125 -1.828125 C 9.421875 -1.628906 9.53125 -1.375 9.53125 -1.0625 C 9.53125 -0.757812 9.421875 -0.503906 9.203125 -0.296875 C 8.992188 -0.0976562 8.726562 0 8.40625 0 L 2.484375 0 C 2.160156 0 1.894531 -0.101562 1.6875 -0.3125 C 1.476562 -0.53125 1.375 -0.796875 1.375 -1.109375 L 1.375 -11.65625 C 1.375 -11.976562 1.484375 -12.242188 1.703125 -12.453125 C 1.921875 -12.671875 2.195312 -12.78125 2.53125 -12.78125 C 2.84375 -12.78125 3.109375 -12.671875 3.328125 -12.453125 C 3.546875 -12.242188 3.65625 -11.976562 3.65625 -11.65625 L 3.65625 -2.140625 Z M 8.40625 -2.140625 "/></g></g></g><g fill="#3d5666" fill-opacity="1"><g transform="translate(340.391876, 329.958508)"><g><path d="M 13.125 -6.390625 C 13.125 -5.179688 12.851562 -4.070312 12.3125 -3.0625 C 11.78125 -2.0625 11.039062 -1.269531 10.09375 -0.6875 C 9.15625 -0.101562 8.097656 0.1875 6.921875 0.1875 C 5.734375 0.1875 4.664062 -0.101562 3.71875 -0.6875 C 2.78125 -1.269531 2.046875 -2.0625 1.515625 -3.0625 C 0.992188 -4.070312 0.734375 -5.179688 0.734375 -6.390625 C 0.734375 -7.585938 0.992188 -8.6875 1.515625 -9.6875 C 2.046875 -10.695312 2.78125 -11.492188 3.71875 -12.078125 C 4.664062 -12.660156 5.734375 -12.953125 6.921875 -12.953125 C 8.097656 -12.953125 9.15625 -12.660156 10.09375 -12.078125 C 11.039062 -11.492188 11.78125 -10.695312 12.3125 -9.6875 C 12.851562 -8.6875 13.125 -7.585938 13.125 -6.390625 Z M 10.75 -6.390625 C 10.75 -7.203125 10.582031 -7.9375 10.25 -8.59375 C 9.925781 -9.257812 9.472656 -9.785156 8.890625 -10.171875 C 8.304688 -10.566406 7.648438 -10.765625 6.921875 -10.765625 C 6.171875 -10.765625 5.503906 -10.570312 4.921875 -10.1875 C 4.347656 -9.8125 3.898438 -9.285156 3.578125 -8.609375 C 3.265625 -7.941406 3.109375 -7.203125 3.109375 -6.390625 C 3.109375 -5.578125 3.265625 -4.832031 3.578125 -4.15625 C 3.898438 -3.488281 4.347656 -2.960938 4.921875 -2.578125 C 5.503906 -2.191406 6.171875 -2 6.921875 -2 C 7.648438 -2 8.304688 -2.191406 8.890625 -2.578125 C 9.472656 -2.972656 9.925781 -3.503906 10.25 -4.171875 C 10.582031 -4.835938 10.75 -5.578125 10.75 -6.390625 Z M 10.75 -6.390625 "/></g></g></g><g fill="#3d5666" fill-opacity="1"><g transform="translate(355.716547, 329.958508)"><g><path d="M 5.46875 0.1875 C 4.59375 0.1875 3.8125 0.078125 3.125 -0.140625 C 2.445312 -0.359375 1.8125 -0.734375 1.21875 -1.265625 C 0.894531 -1.554688 0.734375 -1.875 0.734375 -2.21875 C 0.734375 -2.5 0.832031 -2.742188 1.03125 -2.953125 C 1.238281 -3.171875 1.488281 -3.28125 1.78125 -3.28125 C 2.019531 -3.28125 2.226562 -3.207031 2.40625 -3.0625 C 2.894531 -2.664062 3.367188 -2.375 3.828125 -2.1875 C 4.296875 -2.007812 4.84375 -1.921875 5.46875 -1.921875 C 6.15625 -1.921875 6.742188 -2.070312 7.234375 -2.375 C 7.722656 -2.675781 7.96875 -3.050781 7.96875 -3.5 C 7.96875 -4.050781 7.722656 -4.476562 7.234375 -4.78125 C 6.753906 -5.09375 5.984375 -5.332031 4.921875 -5.5 C 2.265625 -5.882812 0.9375 -7.125 0.9375 -9.21875 C 0.9375 -9.976562 1.132812 -10.640625 1.53125 -11.203125 C 1.9375 -11.773438 2.484375 -12.207031 3.171875 -12.5 C 3.867188 -12.800781 4.644531 -12.953125 5.5 -12.953125 C 6.257812 -12.953125 6.976562 -12.835938 7.65625 -12.609375 C 8.332031 -12.378906 8.894531 -12.078125 9.34375 -11.703125 C 9.695312 -11.421875 9.875 -11.097656 9.875 -10.734375 C 9.875 -10.453125 9.769531 -10.203125 9.5625 -9.984375 C 9.351562 -9.773438 9.109375 -9.671875 8.828125 -9.671875 C 8.648438 -9.671875 8.488281 -9.726562 8.34375 -9.84375 C 8.019531 -10.09375 7.578125 -10.320312 7.015625 -10.53125 C 6.453125 -10.75 5.945312 -10.859375 5.5 -10.859375 C 4.726562 -10.859375 4.128906 -10.710938 3.703125 -10.421875 C 3.285156 -10.140625 3.078125 -9.769531 3.078125 -9.3125 C 3.078125 -8.78125 3.289062 -8.378906 3.71875 -8.109375 C 4.15625 -7.847656 4.835938 -7.632812 5.765625 -7.46875 C 6.816406 -7.28125 7.65625 -7.039062 8.28125 -6.75 C 8.90625 -6.46875 9.375 -6.082031 9.6875 -5.59375 C 10.007812 -5.101562 10.171875 -4.445312 10.171875 -3.625 C 10.171875 -2.863281 9.953125 -2.191406 9.515625 -1.609375 C 9.085938 -1.035156 8.515625 -0.59375 7.796875 -0.28125 C 7.078125 0.03125 6.300781 0.1875 5.46875 0.1875 Z M 5.46875 0.1875 "/></g></g></g><g fill="#3d5666" fill-opacity="1"><g transform="translate(368.085878, 329.958508)"><g/></g></g><g fill="#3d5666" fill-opacity="1"><g transform="translate(374.672239, 329.958508)"><g><path d="M 13.1875 0.515625 C 13.445312 0.515625 13.6875 0.625 13.90625 0.84375 C 14.125 1.0625 14.234375 1.300781 14.234375 1.5625 C 14.234375 1.914062 14.03125 2.253906 13.625 2.578125 C 13.21875 2.898438 12.71875 3.160156 12.125 3.359375 C 11.53125 3.554688 11.003906 3.65625 10.546875 3.65625 C 9.765625 3.65625 9.144531 3.578125 8.6875 3.421875 C 8.238281 3.265625 7.78125 3.054688 7.3125 2.796875 C 7.007812 2.609375 6.757812 2.472656 6.5625 2.390625 C 6.375 2.316406 6.144531 2.28125 5.875 2.28125 C 5.726562 2.28125 5.601562 2.296875 5.5 2.328125 C 5.40625 2.367188 5.28125 2.425781 5.125 2.5 C 4.96875 2.582031 4.820312 2.644531 4.6875 2.6875 C 4.550781 2.726562 4.378906 2.75 4.171875 2.75 C 3.878906 2.75 3.628906 2.632812 3.421875 2.40625 C 3.210938 2.1875 3.109375 1.9375 3.109375 1.65625 C 3.109375 1.1875 3.316406 0.875 3.734375 0.71875 L 5.546875 0.03125 C 4.597656 -0.175781 3.757812 -0.582031 3.03125 -1.1875 C 2.300781 -1.800781 1.734375 -2.554688 1.328125 -3.453125 C 0.929688 -4.359375 0.734375 -5.335938 0.734375 -6.390625 C 0.734375 -7.585938 0.992188 -8.6875 1.515625 -9.6875 C 2.046875 -10.695312 2.78125 -11.492188 3.71875 -12.078125 C 4.664062 -12.660156 5.734375 -12.953125 6.921875 -12.953125 C 8.097656 -12.953125 9.15625 -12.660156 10.09375 -12.078125 C 11.039062 -11.492188 11.78125 -10.695312 12.3125 -9.6875 C 12.851562 -8.6875 13.125 -7.585938 13.125 -6.390625 C 13.125 -5.335938 12.921875 -4.359375 12.515625 -3.453125 C 12.109375 -2.554688 11.535156 -1.800781 10.796875 -1.1875 C 10.054688 -0.582031 9.210938 -0.175781 8.265625 0.03125 L 7.15625 0.453125 C 7.4375 0.492188 7.691406 0.5625 7.921875 0.65625 C 8.160156 0.75 8.429688 0.882812 8.734375 1.0625 C 9.117188 1.269531 9.445312 1.421875 9.71875 1.515625 C 10 1.609375 10.316406 1.65625 10.671875 1.65625 C 10.972656 1.65625 11.234375 1.609375 11.453125 1.515625 C 11.679688 1.429688 11.894531 1.300781 12.09375 1.125 C 12.164062 1.070312 12.273438 0.984375 12.421875 0.859375 C 12.566406 0.742188 12.703125 0.65625 12.828125 0.59375 C 12.953125 0.539062 13.070312 0.515625 13.1875 0.515625 Z M 3.109375 -6.390625 C 3.109375 -5.578125 3.265625 -4.832031 3.578125 -4.15625 C 3.898438 -3.488281 4.347656 -2.960938 4.921875 -2.578125 C 5.503906 -2.191406 6.171875 -2 6.921875 -2 C 7.648438 -2 8.304688 -2.191406 8.890625 -2.578125 C 9.472656 -2.972656 9.925781 -3.503906 10.25 -4.171875 C 10.582031 -4.835938 10.75 -5.578125 10.75 -6.390625 C 10.75 -7.203125 10.582031 -7.9375 10.25 -8.59375 C 9.925781 -9.257812 9.472656 -9.785156 8.890625 -10.171875 C 8.304688 -10.566406 7.648438 -10.765625 6.921875 -10.765625 C 6.171875 -10.765625 5.503906 -10.570312 4.921875 -10.1875 C 4.347656 -9.8125 3.898438 -9.285156 3.578125 -8.609375 C 3.265625 -7.941406 3.109375 -7.203125 3.109375 -6.390625 Z M 3.109375 -6.390625 "/></g></g></g><g fill="#3d5666" fill-opacity="1"><g transform="translate(389.923933, 329.958508)"><g><path d="M 10.4375 -12.796875 C 10.75 -12.796875 11.003906 -12.691406 11.203125 -12.484375 C 11.398438 -12.273438 11.5 -12.007812 11.5 -11.6875 L 11.5 -5.078125 C 11.5 -4.066406 11.285156 -3.171875 10.859375 -2.390625 C 10.429688 -1.609375 9.832031 -1 9.0625 -0.5625 C 8.300781 -0.125 7.425781 0.09375 6.4375 0.09375 C 5.457031 0.09375 4.578125 -0.125 3.796875 -0.5625 C 3.023438 -1 2.425781 -1.609375 2 -2.390625 C 1.582031 -3.171875 1.375 -4.066406 1.375 -5.078125 L 1.375 -11.6875 C 1.375 -12 1.484375 -12.257812 1.703125 -12.46875 C 1.921875 -12.6875 2.195312 -12.796875 2.53125 -12.796875 C 2.820312 -12.796875 3.078125 -12.6875 3.296875 -12.46875 C 3.515625 -12.257812 3.625 -12 3.625 -11.6875 L 3.625 -5.078125 C 3.625 -4.492188 3.75 -3.972656 4 -3.515625 C 4.257812 -3.054688 4.601562 -2.703125 5.03125 -2.453125 C 5.46875 -2.210938 5.9375 -2.09375 6.4375 -2.09375 C 6.96875 -2.09375 7.457031 -2.210938 7.90625 -2.453125 C 8.363281 -2.703125 8.726562 -3.054688 9 -3.515625 C 9.28125 -3.972656 9.421875 -4.492188 9.421875 -5.078125 L 9.421875 -11.6875 C 9.421875 -12.007812 9.507812 -12.273438 9.6875 -12.484375 C 9.875 -12.691406 10.125 -12.796875 10.4375 -12.796875 Z M 10.4375 -12.796875 "/></g></g></g><g fill="#3d5666" fill-opacity="1"><g transform="translate(404.26349, 329.958508)"><g><path d="M 8.59375 -2.09375 C 8.90625 -2.09375 9.164062 -1.984375 9.375 -1.765625 C 9.59375 -1.554688 9.703125 -1.316406 9.703125 -1.046875 C 9.703125 -0.734375 9.59375 -0.476562 9.375 -0.28125 C 9.164062 -0.09375 8.90625 0 8.59375 0 L 2.484375 0 C 2.160156 0 1.894531 -0.101562 1.6875 -0.3125 C 1.476562 -0.53125 1.375 -0.796875 1.375 -1.109375 L 1.375 -11.65625 C 1.375 -11.976562 1.476562 -12.242188 1.6875 -12.453125 C 1.894531 -12.671875 2.160156 -12.78125 2.484375 -12.78125 L 8.59375 -12.78125 C 8.90625 -12.78125 9.164062 -12.675781 9.375 -12.46875 C 9.59375 -12.269531 9.703125 -12.015625 9.703125 -11.703125 C 9.703125 -11.390625 9.597656 -11.140625 9.390625 -10.953125 C 9.191406 -10.765625 8.925781 -10.671875 8.59375 -10.671875 L 3.65625 -10.671875 L 3.65625 -7.578125 L 7.78125 -7.578125 C 8.09375 -7.578125 8.351562 -7.472656 8.5625 -7.265625 C 8.78125 -7.066406 8.890625 -6.8125 8.890625 -6.5 C 8.890625 -6.195312 8.785156 -5.945312 8.578125 -5.75 C 8.367188 -5.5625 8.101562 -5.46875 7.78125 -5.46875 L 3.65625 -5.46875 L 3.65625 -2.09375 Z M 8.59375 -2.09375 "/></g></g></g><g fill="#3d5666" fill-opacity="1"><g transform="translate(416.176746, 329.958508)"><g/></g></g><g fill="#3d5666" fill-opacity="1"><g transform="translate(422.763107, 329.958508)"><g><path d="M 11.390625 -1.421875 C 11.453125 -1.265625 11.484375 -1.117188 11.484375 -0.984375 C 11.484375 -0.671875 11.378906 -0.410156 11.171875 -0.203125 C 10.960938 -0.00390625 10.722656 0.09375 10.453125 0.09375 C 10.234375 0.09375 10.035156 0.0234375 9.859375 -0.109375 C 9.679688 -0.242188 9.546875 -0.425781 9.453125 -0.65625 L 8.5 -2.859375 L 3.0625 -2.859375 L 2.109375 -0.640625 C 2.023438 -0.410156 1.894531 -0.226562 1.71875 -0.09375 C 1.539062 0.03125 1.351562 0.09375 1.15625 0.09375 C 0.832031 0.09375 0.585938 0.0078125 0.421875 -0.15625 C 0.265625 -0.332031 0.1875 -0.566406 0.1875 -0.859375 C 0.1875 -0.960938 0.203125 -1.078125 0.234375 -1.203125 L 4.78125 -12.125 C 4.875 -12.363281 5.019531 -12.550781 5.21875 -12.6875 C 5.414062 -12.820312 5.632812 -12.875 5.875 -12.84375 C 6.09375 -12.84375 6.296875 -12.78125 6.484375 -12.65625 C 6.671875 -12.53125 6.8125 -12.351562 6.90625 -12.125 Z M 3.953125 -4.96875 L 7.609375 -4.96875 L 5.765625 -9.234375 Z M 3.953125 -4.96875 "/></g></g></g><g fill="#3d5666" fill-opacity="1"><g transform="translate(435.898649, 329.958508)"><g><path d="M 12.453125 -12.796875 C 12.753906 -12.796875 13.015625 -12.6875 13.234375 -12.46875 C 13.460938 -12.257812 13.578125 -12 13.578125 -11.6875 L 13.578125 -1.109375 C 13.578125 -0.796875 13.472656 -0.53125 13.265625 -0.3125 C 13.054688 -0.101562 12.785156 0 12.453125 0 C 12.109375 0 11.828125 -0.101562 11.609375 -0.3125 C 11.398438 -0.519531 11.296875 -0.785156 11.296875 -1.109375 L 11.296875 -8.46875 L 8.28125 -3.875 C 8.164062 -3.726562 8.023438 -3.609375 7.859375 -3.515625 C 7.703125 -3.421875 7.539062 -3.378906 7.375 -3.390625 C 7.21875 -3.378906 7.054688 -3.421875 6.890625 -3.515625 C 6.734375 -3.609375 6.597656 -3.726562 6.484375 -3.875 L 3.46875 -8.625 L 3.46875 -1.109375 C 3.46875 -0.785156 3.367188 -0.519531 3.171875 -0.3125 C 2.984375 -0.101562 2.726562 0 2.40625 0 C 2.101562 0 1.851562 -0.101562 1.65625 -0.3125 C 1.46875 -0.53125 1.375 -0.796875 1.375 -1.109375 L 1.375 -11.6875 C 1.375 -11.988281 1.484375 -12.25 1.703125 -12.46875 C 1.929688 -12.6875 2.203125 -12.796875 2.515625 -12.796875 C 2.703125 -12.796875 2.882812 -12.75 3.0625 -12.65625 C 3.25 -12.5625 3.390625 -12.441406 3.484375 -12.296875 L 7.46875 -6.1875 L 11.546875 -12.296875 C 11.648438 -12.441406 11.78125 -12.5625 11.9375 -12.65625 C 12.101562 -12.75 12.273438 -12.796875 12.453125 -12.796875 Z M 12.453125 -12.796875 "/></g></g></g><g fill="#3d5666" fill-opacity="1"><g transform="translate(452.317884, 329.958508)"><g><path d="M 11.390625 -1.421875 C 11.453125 -1.265625 11.484375 -1.117188 11.484375 -0.984375 C 11.484375 -0.671875 11.378906 -0.410156 11.171875 -0.203125 C 10.960938 -0.00390625 10.722656 0.09375 10.453125 0.09375 C 10.234375 0.09375 10.035156 0.0234375 9.859375 -0.109375 C 9.679688 -0.242188 9.546875 -0.425781 9.453125 -0.65625 L 8.5 -2.859375 L 3.0625 -2.859375 L 2.109375 -0.640625 C 2.023438 -0.410156 1.894531 -0.226562 1.71875 -0.09375 C 1.539062 0.03125 1.351562 0.09375 1.15625 0.09375 C 0.832031 0.09375 0.585938 0.0078125 0.421875 -0.15625 C 0.265625 -0.332031 0.1875 -0.566406 0.1875 -0.859375 C 0.1875 -0.960938 0.203125 -1.078125 0.234375 -1.203125 L 4.78125 -12.125 C 4.875 -12.363281 5.019531 -12.550781 5.21875 -12.6875 C 5.414062 -12.820312 5.632812 -12.875 5.875 -12.84375 C 6.09375 -12.84375 6.296875 -12.78125 6.484375 -12.65625 C 6.671875 -12.53125 6.8125 -12.351562 6.90625 -12.125 Z M 3.953125 -4.96875 L 7.609375 -4.96875 L 5.765625 -9.234375 Z M 3.953125 -4.96875 "/></g></g></g><g fill="#3d5666" fill-opacity="1"><g transform="translate(465.453427, 329.958508)"><g><path d="M 5.46875 0.1875 C 4.59375 0.1875 3.8125 0.078125 3.125 -0.140625 C 2.445312 -0.359375 1.8125 -0.734375 1.21875 -1.265625 C 0.894531 -1.554688 0.734375 -1.875 0.734375 -2.21875 C 0.734375 -2.5 0.832031 -2.742188 1.03125 -2.953125 C 1.238281 -3.171875 1.488281 -3.28125 1.78125 -3.28125 C 2.019531 -3.28125 2.226562 -3.207031 2.40625 -3.0625 C 2.894531 -2.664062 3.367188 -2.375 3.828125 -2.1875 C 4.296875 -2.007812 4.84375 -1.921875 5.46875 -1.921875 C 6.15625 -1.921875 6.742188 -2.070312 7.234375 -2.375 C 7.722656 -2.675781 7.96875 -3.050781 7.96875 -3.5 C 7.96875 -4.050781 7.722656 -4.476562 7.234375 -4.78125 C 6.753906 -5.09375 5.984375 -5.332031 4.921875 -5.5 C 2.265625 -5.882812 0.9375 -7.125 0.9375 -9.21875 C 0.9375 -9.976562 1.132812 -10.640625 1.53125 -11.203125 C 1.9375 -11.773438 2.484375 -12.207031 3.171875 -12.5 C 3.867188 -12.800781 4.644531 -12.953125 5.5 -12.953125 C 6.257812 -12.953125 6.976562 -12.835938 7.65625 -12.609375 C 8.332031 -12.378906 8.894531 -12.078125 9.34375 -11.703125 C 9.695312 -11.421875 9.875 -11.097656 9.875 -10.734375 C 9.875 -10.453125 9.769531 -10.203125 9.5625 -9.984375 C 9.351562 -9.773438 9.109375 -9.671875 8.828125 -9.671875 C 8.648438 -9.671875 8.488281 -9.726562 8.34375 -9.84375 C 8.019531 -10.09375 7.578125 -10.320312 7.015625 -10.53125 C 6.453125 -10.75 5.945312 -10.859375 5.5 -10.859375 C 4.726562 -10.859375 4.128906 -10.710938 3.703125 -10.421875 C 3.285156 -10.140625 3.078125 -9.769531 3.078125 -9.3125 C 3.078125 -8.78125 3.289062 -8.378906 3.71875 -8.109375 C 4.15625 -7.847656 4.835938 -7.632812 5.765625 -7.46875 C 6.816406 -7.28125 7.65625 -7.039062 8.28125 -6.75 C 8.90625 -6.46875 9.375 -6.082031 9.6875 -5.59375 C 10.007812 -5.101562 10.171875 -4.445312 10.171875 -3.625 C 10.171875 -2.863281 9.953125 -2.191406 9.515625 -1.609375 C 9.085938 -1.035156 8.515625 -0.59375 7.796875 -0.28125 C 7.078125 0.03125 6.300781 0.1875 5.46875 0.1875 Z M 5.46875 0.1875 "/></g></g></g><g fill="#3d5666" fill-opacity="1"><g transform="translate(477.822771, 355.339933)"><g/></g></g></svg>